<?xml version="1.0" encoding="utf-8"?>
<!-- Generator: Adobe Illustrator 24.1.2, SVG Export Plug-In . SVG Version: 6.00 Build 0)  -->
<svg version="1.1" id="Слой_1" xmlns="http://www.w3.org/2000/svg" xmlns:xlink="http://www.w3.org/1999/xlink" x="0px" y="0px"
	 viewBox="0 0 100 100" style="enable-background:new 0 0 100 100;" xml:space="preserve">
<style type="text/css">
	.st0{fill:none;stroke:#a0a0a0;stroke-width:1.5;opacity:0.5;}
</style>
<g>
	<g>
		<path class="st0" d="M70.3,60.8c-0.7,0-1.3,0-2,0c-0.2,0-0.4,0-0.6-0.1c-0.4-0.2-0.4-0.9-0.1-1.2c0.3-0.4,0.9-0.4,1.4-0.4
			c0.3-1.9,0-3.9-0.9-5.6c-0.1,0.2-0.3,0.3-0.5,0.4c-0.1-0.6,0-1.2,0.1-1.7c-0.2,0.2-0.3,0.4-0.5,0.6c0-1.5,0.4-3.1,1.1-4.4
			c1.1-0.1,2.4-0.7,3.5-1c1.1,1.8,1.1,1.3,5.3,3.6c1.5,0.8,2.7,2.2,3.3,3.8c0.6,1.6,0.7,3.4,0.1,4.9c0.9-0.5,1.6-1.4,2-2.4
			c0.4-1,0.4-2.1,0.3-3.1c1.2,0.8,1.6,1.5,1.4,3c0.3-0.1,0.6-0.4,0.8-0.6c0.1,0.6-0.1,1.3-0.5,1.8c0.1,0,0.3,0,0.4-0.1
			c-0.8,2.1-3.1,3.1-4.6,2.2c-0.6,0.1-1,0.7-1.6,0.7c-3.7,0-6.2-0.2-6.4-0.3c-0.1,0-0.4-1,0.3-1.2c0.5-0.2,1.7-0.4,3.2-0.1
			c-0.5-0.3-0.9-0.9-1-0.9c-0.5-0.1-2.9-1.2-3.9-1.9c0,0.6-0.1,2.5-0.1,3.1c0,0.2,0,0.4-0.1,0.6C70.5,60.4,70.4,60.6,70.3,60.8z"/>
		<path d="M78.6,61.1c-3.6,0-6.2-0.2-6.4-0.3c-0.1,0-0.2-0.4-0.2-0.7c0-0.4,0.2-0.6,0.5-0.7c0.2-0.1,1.4-0.4,3-0.2
			c-0.2-0.2-0.5-0.4-0.6-0.6c-0.1-0.1-0.1-0.1-0.1-0.1c-0.4-0.1-2.8-1.1-3.8-1.9c0,0.3,0,0.9-0.1,1.4c0,0.6,0,1.2-0.1,1.5
			c0,0.2,0,0.4-0.1,0.6c0,0.1-0.1,0.2-0.2,0.4c0,0.1-0.1,0.1-0.1,0.2c0,0,0,0-0.1,0l-2,0c-0.2,0-0.5,0-0.7-0.1
			c-0.2-0.1-0.3-0.3-0.4-0.5c0-0.3,0-0.6,0.2-0.8c0.3-0.3,0.8-0.5,1.3-0.5c0,0,0,0,0,0c0.3-1.8,0-3.7-0.9-5.4
			c-0.1,0.1-0.3,0.3-0.5,0.3c0,0,0,0-0.1,0c0,0,0,0,0-0.1c-0.1-0.5,0-1,0.1-1.5l-0.3,0.4c0,0-0.1,0-0.1,0c0,0,0,0,0-0.1
			c0-1.6,0.4-3.1,1.1-4.5c0,0,0,0,0.1,0c0.7-0.1,1.5-0.4,2.4-0.7c0.4-0.1,0.8-0.3,1.1-0.4c0,0,0.1,0,0.1,0c0.8,1.3,1,1.4,2.7,2.2
			c0.6,0.3,1.4,0.7,2.6,1.4c1.5,0.8,2.7,2.2,3.4,3.8c0.6,1.5,0.7,3.3,0.2,4.8c0.8-0.5,1.4-1.3,1.8-2.2c0.3-0.9,0.4-1.9,0.3-3.1
			c0,0,0-0.1,0-0.1c0,0,0.1,0,0.1,0c1.2,0.8,1.6,1.5,1.5,2.9c0.2-0.1,0.5-0.3,0.6-0.6c0,0,0,0,0.1,0c0,0,0.1,0,0.1,0.1
			c0.1,0.6-0.1,1.3-0.4,1.8c0.1,0,0.2,0,0.2-0.1c0,0,0.1,0,0.1,0c0,0,0,0.1,0,0.1c-0.4,1.1-1.2,2-2.3,2.4c-0.8,0.3-1.7,0.3-2.4-0.1
			c-0.2,0.1-0.5,0.2-0.7,0.3C79.3,60.9,79,61.1,78.6,61.1z M72.3,60.7c0.3,0.1,2.7,0.2,6.4,0.2c0.3,0,0.5-0.2,0.8-0.3
			c0.2-0.2,0.5-0.3,0.7-0.4c0,0,0,0,0,0c0.7,0.4,1.5,0.4,2.3,0.1c0.9-0.4,1.7-1.1,2.1-2.1c-0.1,0-0.2,0-0.3,0c0,0,0,0-0.1,0
			c0,0,0,0,0-0.1c0.3-0.5,0.5-1,0.5-1.6c-0.2,0.2-0.4,0.4-0.7,0.5c0,0-0.1,0-0.1,0c0,0,0,0,0-0.1c0.1-1.4-0.1-2-1.3-2.8
			c0.1,1.1,0,2.1-0.3,3c-0.4,1.1-1.1,1.9-2,2.4c0,0-0.1,0-0.1,0c0,0,0-0.1,0-0.1c0.5-1.5,0.5-3.3-0.1-4.9c-0.6-1.5-1.8-2.9-3.3-3.7
			c-1.1-0.6-2-1-2.6-1.3c-1.7-0.9-1.9-1-2.7-2.2c-0.3,0.1-0.7,0.2-1.1,0.4c-0.8,0.3-1.6,0.6-2.3,0.7c-0.7,1.3-1.1,2.7-1.1,4.2
			l0.4-0.4c0,0,0.1,0,0.1,0c0,0,0,0.1,0,0.1c-0.1,0.5-0.2,1.1-0.1,1.6c0.2-0.1,0.3-0.2,0.4-0.3c0,0,0,0,0.1,0c0,0,0,0,0.1,0
			c0.9,1.8,1.3,3.7,0.9,5.6c0,0,0,0.1-0.1,0.1c0,0,0,0,0,0c-0.4,0-1,0.1-1.3,0.4c-0.2,0.2-0.3,0.5-0.2,0.7c0,0.2,0.1,0.3,0.3,0.4
			c0.2,0.1,0.4,0.1,0.6,0.1l2,0c0-0.1,0.1-0.1,0.1-0.2c0.1-0.1,0.1-0.2,0.2-0.3c0.1-0.2,0.1-0.4,0.1-0.6c0-0.3,0-0.9,0.1-1.5
			c0-0.6,0-1.2,0.1-1.5c0,0,0,0,0-0.1c0,0,0.1,0,0.1,0c1,0.7,3.5,1.8,3.9,1.9c0,0,0.1,0,0.2,0.2c0.2,0.2,0.5,0.5,0.8,0.8
			c0,0,0,0.1,0,0.1c0,0,0,0.1-0.1,0c-1.7-0.3-3.1,0.1-3.2,0.1c-0.2,0.1-0.3,0.2-0.4,0.4C72.1,60.3,72.2,60.6,72.3,60.7z M70.3,60.8
			L70.3,60.8L70.3,60.8z M74.7,58.5C74.7,58.5,74.7,58.5,74.7,58.5S74.7,58.5,74.7,58.5z"/>
	</g>
	<g>
		<path class="st0" d="M68.3,47.5c0-0.8-0.4-1.9-1-2.5c-0.3-0.3-0.6-0.5-1-0.6c-0.8-0.3-1.6-0.5-2.3-0.9c-0.7-0.4-1-1.5-1.2-2.3
			c-0.2-0.8-0.1-1.3,0.8-1.4c0.3,0,0.6,0,0.8,0.1c1.1,0.2,2.3,0.6,3.2,0c0.4-0.3,0.7-0.7,1-1c0.8-0.7,1.9-0.9,2.9-0.5
			c1,0.4,1.6,1.3,1.7,2.3c0.1,1.2-0.6,2.3-1.3,3.3c-0.6,1-0.7,1.8-0.3,2.9c-0.6,0.2-1.7,0.9-2.3,0.9C68.6,47.9,68.3,47.9,68.3,47.5z
			"/>
		<path d="M69.3,47.9C69.3,47.9,69.3,47.9,69.3,47.9c-0.1,0-0.2,0-0.2,0c-0.5,0-0.8,0-0.8-0.4l0,0c0-0.7-0.4-1.9-0.9-2.5
			c-0.3-0.3-0.6-0.5-1-0.6c-0.3-0.1-0.6-0.2-0.9-0.3c-0.5-0.2-1-0.3-1.5-0.6c-0.7-0.4-1-1.4-1.3-2.3c-0.1-0.5-0.1-0.9,0.1-1.1
			c0.1-0.2,0.4-0.3,0.8-0.4c0.3,0,0.6,0,0.9,0.1l0.2,0c1,0.2,2.1,0.5,2.9-0.1c0.2-0.2,0.4-0.4,0.6-0.6c0.1-0.1,0.3-0.3,0.4-0.4
			c0.8-0.7,2-0.9,2.9-0.5c1,0.4,1.7,1.3,1.8,2.4c0.1,1.2-0.6,2.2-1.2,3.2C72,44,72,44,72,44.1c-0.6,1-0.7,1.7-0.3,2.8
			c0,0,0,0.1,0,0.1c-0.2,0.1-0.4,0.2-0.6,0.3C70.4,47.6,69.7,47.9,69.3,47.9z M69.1,47.8c0,0,0.1,0,0.1,0c0,0,0,0,0,0
			c0.4,0,1.1-0.3,1.7-0.6c0.2-0.1,0.4-0.2,0.5-0.3c-0.4-1.1-0.3-1.9,0.4-2.9c0-0.1,0.1-0.1,0.1-0.2c0.6-1,1.2-2,1.2-3.1
			c-0.1-1-0.7-1.9-1.7-2.2c-0.9-0.4-2.1-0.2-2.8,0.5c-0.1,0.1-0.3,0.3-0.4,0.4c-0.2,0.2-0.4,0.4-0.6,0.6c-0.9,0.6-2,0.3-3,0.1
			l-0.2,0c-0.3-0.1-0.5-0.1-0.8-0.1c-0.3,0-0.5,0.1-0.7,0.3c-0.1,0.2-0.2,0.5,0,1c0.2,0.9,0.5,1.9,1.2,2.2c0.5,0.2,1,0.4,1.4,0.6
			c0.3,0.1,0.6,0.2,0.9,0.3c0.3,0.1,0.7,0.3,1,0.6c0.6,0.6,1,1.8,1,2.6l0,0c0,0.2,0.1,0.3,0.6,0.2C69.1,47.8,69.1,47.8,69.1,47.8z"
			/>
	</g>
	<g>
		<path class="st0" d="M72.1,38.6c-0.6,0.1-0.9,0.7-1,1.2c0,0.5,0.1,1,0.1,1.5c-0.1,0.5-0.3,0.9-0.4,1.4c-0.1,0.5-0.1,1,0.4,1.3
			c0.2,0.2,0.6,0.2,0.9,0.3c0.8,0.1,1.6,0.2,2.3-0.2c0.5-0.3,0.8-0.7,0.8-1.2c0.1-0.5-0.1-1-0.4-1.4c-0.2-0.3-0.5-0.6-0.6-0.9
			c-0.2-0.4-0.3-0.9-0.6-1.3C73.3,38.9,72.8,38.5,72.1,38.6z"/>
		<path d="M73,44.5c-0.3,0-0.6,0-1-0.1c-0.3-0.1-0.7-0.1-0.9-0.3c-0.4-0.3-0.6-0.8-0.4-1.4c0.1-0.2,0.1-0.4,0.2-0.6
			c0.1-0.3,0.2-0.5,0.2-0.8c0-0.3,0-0.6,0-0.8c0-0.2-0.1-0.5,0-0.7c0-0.5,0.4-1.2,1-1.3c0,0,0,0,0,0c0.7,0,1.2,0.4,1.5,0.8
			c0.1,0.2,0.2,0.5,0.3,0.7c0.1,0.2,0.2,0.4,0.3,0.6c0.1,0.2,0.2,0.4,0.4,0.5c0.1,0.1,0.2,0.3,0.3,0.4c0.3,0.5,0.4,1,0.4,1.4
			c-0.1,0.5-0.4,1-0.9,1.3C74,44.4,73.6,44.5,73,44.5z M72.1,38.6c-0.6,0.1-0.9,0.7-0.9,1.2c0,0.2,0,0.5,0,0.7c0,0.3,0.1,0.6,0,0.9
			c0,0.3-0.1,0.6-0.2,0.8c-0.1,0.2-0.1,0.4-0.2,0.6c-0.1,0.5,0,1,0.4,1.2c0.2,0.2,0.5,0.2,0.8,0.3c1,0.2,1.7,0.1,2.2-0.2
			c0.5-0.2,0.8-0.7,0.8-1.2c0-0.4-0.1-0.9-0.4-1.3c-0.1-0.1-0.2-0.3-0.3-0.4c-0.1-0.2-0.3-0.4-0.4-0.5c-0.1-0.2-0.2-0.4-0.3-0.6
			c-0.1-0.2-0.2-0.5-0.3-0.7C73.2,39,72.8,38.6,72.1,38.6z"/>
	</g>
	<g>
		<path class="st0" d="M71.8,46.5c-0.1-0.2-0.2-0.4-0.6-0.2c-0.9,0.5-2,0.7-3.1,0.5c-0.1,0-0.2,0-0.3,0c0,0-0.1,0.1-0.1,0.2
			c-0.1,0.3-0.1,0.6-0.1,1c0,0.1,0,0.1,0,0.2c0,0.1,0.1,0.1,0.2,0.1c0.8,0.2,1.7,0,2.5-0.2c0.5-0.1,1.1-0.3,1.5-0.6
			c0.1-0.1,0.2-0.2,0.2-0.3c0-0.1,0-0.1-0.1-0.2C72,46.8,72,46.6,71.8,46.5z"/>
		<path d="M68.8,48.4c-0.3,0-0.5,0-0.8-0.1c-0.1,0-0.2,0-0.2-0.1c0-0.1,0-0.1-0.1-0.2c0-0.3,0-0.7,0.1-1c0-0.1,0-0.1,0.1-0.2
			c0.1-0.1,0.2-0.1,0.3-0.1c1.1,0.2,2.2,0,3-0.5c0.1-0.1,0.3-0.1,0.4-0.1c0.1,0,0.2,0.2,0.3,0.3c0.1,0.2,0.2,0.4,0.3,0.5
			c0,0.1,0.1,0.1,0.1,0.2c0,0.1-0.1,0.3-0.2,0.4c-0.4,0.3-0.9,0.5-1.5,0.6C69.9,48.3,69.3,48.4,68.8,48.4z M68.1,46.9
			c0,0-0.1,0-0.1,0c0,0,0,0.1,0,0.1c-0.1,0.3-0.1,0.6-0.1,0.9c0,0,0,0.1,0,0.1c0,0,0.1,0,0.1,0.1c0.8,0.2,1.6,0,2.4-0.2
			c0.6-0.1,1.1-0.3,1.4-0.6c0.1-0.1,0.2-0.2,0.2-0.3c0,0,0-0.1,0-0.1c-0.1-0.2-0.1-0.3-0.3-0.5l0,0c-0.1-0.1-0.1-0.2-0.2-0.2
			c-0.1,0-0.2,0-0.3,0.1C70.4,46.9,69.3,47.1,68.1,46.9C68.2,46.9,68.1,46.9,68.1,46.9z"/>
	</g>
	<g>
		<path d="M69.4,40.5c-0.1,0-0.2,0-0.3,0.1c-0.1,0.1-0.1,0.1-0.1,0.2c0,0.1,0,0.1,0,0.2c0,0.1,0.2,0.2,0.3,0.2
			c0.1,0,0.2-0.2,0.3-0.3C69.6,40.7,69.6,40.6,69.4,40.5z"/>
	</g>
	<g>
		<path d="M62.8,40.9c0.3,0.1,0.7,0.1,0.9,0c0.3-0.2,0.3-0.5,0.3-0.8c0-0.1,0-0.1-0.1-0.1c0,0-0.1,0-0.1,0c-0.3,0-0.7,0-0.9,0.2
			C62.7,40.3,62.7,40.6,62.8,40.9z"/>
	</g>
	<g>
		<path d="M76.2,59.7C76.2,59.7,76.2,59.7,76.2,59.7c-0.6-0.2-1.1-0.7-1.6-1.4c-0.6-0.9-0.9-1.9-0.8-2.7c0.1-1,0.8-1.9,1.7-2.2
			c0,0,0.1,0,0.1,0c0,0,0,0.1,0,0.1c-0.8,0.3-1.5,1.1-1.6,2.1c-0.1,1,0.4,2,0.8,2.6c0.4,0.7,0.9,1.1,1.5,1.3
			C76.3,59.6,76.3,59.6,76.2,59.7C76.2,59.7,76.2,59.7,76.2,59.7z"/>
	</g>
	<g>
		<path d="M70.9,56.8C70.9,56.8,70.9,56.8,70.9,56.8C70.8,56.8,70.8,56.8,70.9,56.8c-0.1-0.5-0.1-0.9-0.2-1.2c0,0,0-0.1,0.1-0.1
			c0,0,0.1,0,0.1,0.1C70.9,55.9,71,56.3,70.9,56.8C70.9,56.8,70.9,56.8,70.9,56.8z"/>
	</g>
	<g>
		<path d="M67.8,50.7C67.8,50.7,67.8,50.7,67.8,50.7C67.8,50.7,67.8,50.7,67.8,50.7c0-0.3,0.1-0.7,0.2-0.9c0,0,0,0,0,0c0,0,0,0,0,0
			C67.9,50.1,67.9,50.4,67.8,50.7C67.8,50.7,67.8,50.7,67.8,50.7z"/>
	</g>
	<g>
		<path d="M68.2,51.1C68.2,51.1,68.2,51.1,68.2,51.1C68.2,51.1,68.2,51.1,68.2,51.1l0.1-0.7c0,0,0,0,0,0c0,0,0,0,0,0L68.2,51.1
			C68.3,51.1,68.3,51.1,68.2,51.1z"/>
	</g>
	<g>
		<path d="M68.4,52.8C68.4,52.8,68.3,52.8,68.4,52.8c0-0.3,0-0.5,0-0.7c0,0,0,0,0,0c0,0,0,0,0,0C68.4,52.3,68.4,52.5,68.4,52.8
			C68.4,52.8,68.4,52.8,68.4,52.8C68.4,52.8,68.4,52.8,68.4,52.8z"/>
	</g>
	<g>
		<path d="M69.1,51.7C69.1,51.7,69.1,51.7,69.1,51.7C69.1,51.7,69.1,51.7,69.1,51.7l0-0.6c0,0,0,0,0,0c0,0,0,0,0,0L69.1,51.7
			C69.2,51.7,69.1,51.7,69.1,51.7z"/>
	</g>
	<g>
		<path d="M71.7,40C71.6,40,71.6,40,71.7,40c0-0.3,0-0.5,0.1-0.8c0,0,0,0,0,0c0,0,0,0,0,0C71.7,39.5,71.7,39.7,71.7,40
			C71.7,40,71.7,40,71.7,40C71.7,40,71.7,40,71.7,40z"/>
	</g>
	<g>
		<path d="M72.1,39.7C72.1,39.7,72.1,39.7,72.1,39.7c0-0.2,0-0.4,0.1-0.6c0,0,0,0,0,0c0,0,0,0,0,0C72.2,39.2,72.2,39.4,72.1,39.7
			C72.2,39.7,72.2,39.7,72.1,39.7C72.1,39.7,72.1,39.7,72.1,39.7z"/>
	</g>
	<g>
		<path d="M74.3,43.5C74.3,43.5,74.3,43.5,74.3,43.5C74.3,43.5,74.3,43.5,74.3,43.5c0.1-0.2,0.2-0.5,0.2-0.8c0,0,0,0,0,0
			c0,0,0,0,0,0C74.6,43.1,74.5,43.3,74.3,43.5C74.3,43.5,74.3,43.5,74.3,43.5z"/>
	</g>
	<g>
		<path d="M69.1,54.4C69,54.4,69,54.4,69.1,54.4l-0.2-0.8c0,0,0,0,0,0c0,0,0,0,0,0L69.1,54.4C69.1,54.4,69.1,54.4,69.1,54.4
			C69.1,54.4,69.1,54.4,69.1,54.4z"/>
	</g>
</g>
<g>
	<g>
		<path class="st0" d="M84.7,64.9c-1.7,1.9-7.5,7.4-8.8,8.7c0,0,17.8,0.2,17.7,0.1C91.8,71.7,85.7,66.2,84.7,64.9z"/>
		<path d="M91.4,73.8c-0.2,0-0.3,0-0.5,0c-1.5,0-3.5,0-6.1,0c-4.4,0-8.8-0.1-8.8-0.1c0,0-0.1,0-0.1-0.1c0,0,0-0.1,0-0.1
			c0.5-0.5,1.5-1.5,2.8-2.7c2.2-2.1,5-4.8,6.1-6c0,0,0,0,0.1,0c0,0,0,0,0.1,0c0.5,0.7,2.7,2.7,4.7,4.7c1.7,1.6,3.3,3.2,4.1,4.1h0
			c0,0,0,0.1,0,0.1c0,0.1,0,0.1-0.8,0.1C92.5,73.8,92,73.8,91.4,73.8z M76.1,73.5c5.7,0.1,15.9,0.1,17.3,0.1c-0.9-0.9-2.5-2.4-4-3.9
			c-2-1.9-4.1-3.9-4.7-4.7c-1.1,1.2-3.8,3.9-6,6C77.6,72.1,76.6,73,76.1,73.5z"/>
	</g>
	<g>
		<path class="st0" d="M84.7,66.5c2.4,2.4,4.7,4.6,7.4,7.3c-0.3,5.3-0.1,8.2,0,11.4c-0.1,0-14.5,0-14.5,0c0-4,0-7.1-0.1-11.5
			C80.2,71.1,83.2,68,84.7,66.5z"/>
		<path d="M92.1,85.2c-0.7,0-13.9,0-14.5,0c0,0-0.1,0-0.1-0.1c0-0.4,0-0.9,0-1.3c0-3.4,0-6.3-0.1-10.2c0,0,0,0,0-0.1
			c2.2-2,4.7-4.5,6.3-6.1c0.4-0.4,0.7-0.7,1-1c0,0,0.1,0,0.1,0c1.2,1.2,2.3,2.3,3.5,3.5c1.2,1.2,2.5,2.4,3.9,3.8c0,0,0,0,0,0.1
			c-0.3,5.4-0.1,8.3,0,11.4C92.2,85.1,92.2,85.2,92.1,85.2C92.1,85.2,92.1,85.2,92.1,85.2C92.1,85.2,92.1,85.2,92.1,85.2z M77.7,85
			c1.1,0,13.2,0,14.3,0c-0.1-3.1-0.2-6,0-11.3c-1.4-1.4-2.6-2.6-3.8-3.8c-1.2-1.1-2.3-2.2-3.5-3.4c-0.3,0.3-0.6,0.6-0.9,0.9
			c-1.6,1.6-4,4.1-6.3,6.1c0.1,3.9,0.1,6.8,0.1,10.2C77.7,84.2,77.7,84.6,77.7,85z"/>
	</g>
	<g>
		<path class="st0" d="M81.4,85.1c0.1-1.6-0.1-2.9,0.2-4.6c0.4-2.7,1.8-3.6,3.3-3.6c1.3,0,2.8,0.7,3.1,3.3c0.2,1.8,0.1,3.4,0.1,4.9
			L81.4,85.1z"/>
		<path d="M81.4,85.2C81.4,85.2,81.4,85.2,81.4,85.2C81.3,85.1,81.3,85.1,81.4,85.2c-0.1-0.7-0.1-1.2-0.1-1.8c0-0.9,0-1.8,0.1-2.9
			c0.4-3,2.1-3.7,3.4-3.7c0.8,0,2.8,0.2,3.2,3.4c0.2,1.3,0.1,2.5,0.1,3.7c0,0.4,0,0.8,0,1.2c0,0,0,0.1-0.1,0.1L81.4,85.2
			C81.4,85.2,81.4,85.2,81.4,85.2z M85,76.9C84.9,76.9,84.9,76.9,85,76.9c-1.9,0.1-3,1.3-3.3,3.6c-0.1,1-0.1,1.9-0.1,2.9
			c0,0.5,0,1.1,0,1.6l6.5,0c0-0.4,0-0.8,0-1.1c0-1.1,0.1-2.3-0.1-3.6C87.5,77.3,85.8,76.9,85,76.9z"/>
	</g>
	<g>
		<path d="M84.9,76.2C84.8,76.2,84.8,76.2,84.9,76.2l-0.2-8.9c0,0,0,0,0,0c0,0,0,0,0,0L84.9,76.2C84.9,76.2,84.9,76.2,84.9,76.2
			C84.9,76.2,84.9,76.2,84.9,76.2z"/>
	</g>
	<g>
		<path d="M87.5,74.9C87.5,74.9,87.5,74.9,87.5,74.9c-0.1-1.7-0.1-3.4-0.1-5c0,0,0,0,0,0h0c0,0,0,0,0,0
			C87.4,71.5,87.5,73.2,87.5,74.9C87.5,74.9,87.5,74.9,87.5,74.9C87.5,74.9,87.5,74.9,87.5,74.9z"/>
	</g>
	<g>
		<path d="M87.6,77.6C87.6,77.6,87.6,77.5,87.6,77.6l-0.1-1.1c0,0,0,0,0,0c0,0,0,0,0,0L87.6,77.6C87.6,77.5,87.6,77.6,87.6,77.6
			C87.6,77.6,87.6,77.6,87.6,77.6z"/>
	</g>
	<g>
		<path d="M89.9,84.1C89.9,84.1,89.9,84.1,89.9,84.1l-0.2-11.5c0,0,0,0,0,0c0,0,0,0,0,0c0,0,0,0,0,0L89.9,84.1
			C90,84.1,90,84.1,89.9,84.1C89.9,84.1,89.9,84.1,89.9,84.1z"/>
	</g>
	<g>
		<path d="M82.3,76.7C82.3,76.7,82.3,76.7,82.3,76.7c-0.1-1.1-0.1-2.1-0.2-3.1c-0.1-1.2-0.1-2.4-0.2-3.7c0,0,0,0,0,0c0,0,0,0,0,0
			c0,1.4,0.1,2.6,0.2,3.7C82.3,74.7,82.3,75.7,82.3,76.7C82.4,76.7,82.3,76.7,82.3,76.7C82.3,76.7,82.3,76.7,82.3,76.7z"/>
	</g>
	<g>
		<path d="M80,84.5C80,84.5,80,84.5,80,84.5c0-3.7-0.1-7.9-0.4-12c0,0,0,0,0,0c0,0,0,0,0,0C80,76.6,80,80.8,80,84.5
			C80,84.5,80,84.5,80,84.5z"/>
	</g>
</g>
<g>
	<g>
		<path class="st0" d="M86.2,46.5c-0.1-1,0.7-1.9,1.6-1.8c-0.1-0.5,0.4-0.9,0.8-1.1c0.5-0.2,1.2-0.2,1.5,0.2
			c0.2-0.2,0.5-0.3,0.8-0.2c0.3,0.1,0.5,0.4,0.5,0.7c0.5-0.2,1.1,0,1.5,0.4c0.4,0.5,0.5,1.1,0.5,1.7c-1.3,0.1-2.5,0.1-3.8,0.1
			C88.7,46.6,87.8,46.5,86.2,46.5z"/>
		<path d="M90.9,46.7c-0.4,0-0.8,0-1.3,0c-0.3,0-0.6,0-1,0c-0.7,0-1.4-0.1-2.4-0.1c0,0-0.1,0-0.1-0.1c0-0.5,0.2-1.1,0.5-1.5
			c0.3-0.3,0.6-0.5,1-0.5c0-0.5,0.4-0.9,0.9-1.1c0.6-0.2,1.2-0.2,1.6,0.2c0.2-0.2,0.6-0.2,0.8-0.1c0.3,0.1,0.5,0.4,0.5,0.7
			c0.5-0.2,1.1,0,1.5,0.5c0.4,0.4,0.5,1.1,0.5,1.8c0,0,0,0.1-0.1,0.1C92.6,46.7,91.7,46.7,90.9,46.7z M86.3,46.4
			c1,0,1.7,0.1,2.4,0.1c0.3,0,0.6,0,1,0c1.2,0,2.5,0,3.7-0.1c0-0.6-0.1-1.2-0.5-1.6c-0.4-0.5-0.9-0.6-1.4-0.4c0,0-0.1,0-0.1,0
			c0,0,0,0,0-0.1c0-0.3-0.2-0.5-0.5-0.7c-0.2-0.1-0.5,0-0.7,0.1c0,0,0,0-0.1,0c0,0,0,0-0.1,0c-0.4-0.5-1.2-0.3-1.4-0.2
			c-0.4,0.2-0.8,0.5-0.7,1c0,0,0,0.1,0,0.1c0,0,0,0-0.1,0c-0.3,0-0.7,0.1-1,0.4C86.5,45.5,86.3,45.9,86.3,46.4z"/>
	</g>
	<g>
		<path class="st0" d="M86,45.9l-1.3,3.2c-0.1,0.3,0.1,0.7,0.5,0.7l9.1,0c0.4,0,0.8-0.3,0.6-0.7l-1.1-3.2L86,45.9z"/>
		<path d="M85.2,49.9c-0.2,0-0.3-0.1-0.4-0.3c-0.1-0.2-0.2-0.4-0.1-0.6l1.3-3.2c0,0,0-0.1,0.1-0.1c0,0,0,0,0,0l7.8,0
			c0,0,0.1,0,0.1,0.1l1.1,3.2c0.1,0.2,0,0.4-0.1,0.5c-0.1,0.2-0.4,0.3-0.6,0.3L85.2,49.9C85.2,49.9,85.2,49.9,85.2,49.9z M86,45.9
			l-1.3,3.2c0,0.1,0,0.3,0.1,0.4c0.1,0.1,0.2,0.2,0.3,0.2c0,0,0,0,0,0l9.1,0c0.2,0,0.4-0.1,0.5-0.2c0.1-0.1,0.1-0.2,0.1-0.4L93.7,46
			L86,45.9z"/>
	</g>
	<g>
		<path d="M90.7,49.1C90.7,49.1,90.7,49.1,90.7,49.1c-0.9,0-1.8,0-2.7,0c-0.9,0-1.8,0-2.7,0c0,0,0,0,0,0c0,0,0,0,0,0c0,0,0,0,0,0
			c0.9,0,1.8,0,2.7,0C88.9,49.1,89.8,49.1,90.7,49.1C90.7,49.1,90.7,49.1,90.7,49.1C90.7,49.1,90.7,49.1,90.7,49.1z"/>
	</g>
	<g>
		<path d="M92.2,49.1c-0.2,0-0.4,0-0.5,0c0,0,0,0,0,0c0,0,0,0,0,0c0.4,0,0.9,0,1.3,0c0.4,0,0.8,0,1.3,0c0,0,0,0,0,0c0,0,0,0,0,0
			c0,0,0,0,0,0c-0.4,0-0.9,0-1.3,0C92.7,49.1,92.5,49.1,92.2,49.1z"/>
	</g>
	<g>
		<path d="M88.4,44.6C88.4,44.6,88.4,44.6,88.4,44.6C88.4,44.6,88.3,44.5,88.4,44.6c0-0.2,0.1-0.4,0.3-0.5c0,0,0,0,0,0c0,0,0,0,0,0
			C88.5,44.2,88.4,44.4,88.4,44.6C88.4,44.5,88.4,44.6,88.4,44.6z"/>
	</g>
	<g>
		<path d="M92.8,45.5C92.8,45.5,92.8,45.5,92.8,45.5c0-0.2-0.2-0.4-0.4-0.4c0,0,0,0,0,0c0,0,0,0,0,0c0,0,0,0,0,0
			C92.7,45.1,92.8,45.2,92.8,45.5C92.9,45.5,92.9,45.5,92.8,45.5C92.8,45.5,92.8,45.5,92.8,45.5z"/>
	</g>
	<g>
		<path d="M87,45.6C87,45.6,87,45.6,87,45.6C87,45.6,87,45.6,87,45.6c0-0.2,0.1-0.4,0.2-0.4c0,0,0,0,0,0c0,0,0,0,0,0
			C87.1,45.3,87,45.4,87,45.6C87,45.6,87,45.6,87,45.6z"/>
	</g>
	<g>
		<path d="M86.3,48.5C86.3,48.5,86.3,48.5,86.3,48.5c-0.2,0-0.5,0-0.7,0c0,0,0,0,0,0c0,0,0,0,0,0c0,0,0,0,0,0
			C85.9,48.4,86.1,48.4,86.3,48.5C86.4,48.4,86.4,48.5,86.3,48.5C86.4,48.5,86.4,48.5,86.3,48.5z"/>
	</g>
</g>
<g>
	<g>
		<path class="st0" d="M16.2,74.5c-0.1-1,0.7-1.9,1.6-1.8c-0.1-0.5,0.4-0.9,0.8-1.1c0.5-0.2,1.2-0.2,1.5,0.2
			c0.2-0.2,0.5-0.3,0.8-0.2c0.3,0.1,0.5,0.4,0.5,0.7c0.5-0.2,1.1,0,1.5,0.4c0.4,0.5,0.5,1.1,0.5,1.7c-1.3,0.1-2.5,0.1-3.8,0.1
			C18.7,74.6,17.8,74.5,16.2,74.5z"/>
		<path d="M20.9,74.7c-0.4,0-0.8,0-1.3,0c-0.3,0-0.6,0-1,0c-0.7,0-1.4-0.1-2.4-0.1c0,0-0.1,0-0.1-0.1c0-0.5,0.2-1.1,0.5-1.5
			c0.3-0.3,0.6-0.5,1-0.5c0-0.5,0.4-0.9,0.9-1.1c0.6-0.2,1.2-0.2,1.6,0.2c0.2-0.2,0.6-0.2,0.8-0.1c0.3,0.1,0.5,0.4,0.5,0.7
			c0.5-0.2,1.1,0,1.5,0.5c0.4,0.4,0.5,1.1,0.5,1.8c0,0,0,0.1-0.1,0.1C22.6,74.7,21.7,74.7,20.9,74.7z M16.3,74.4
			c1,0,1.7,0.1,2.4,0.1c0.3,0,0.6,0,1,0c1.2,0,2.5,0,3.7-0.1c0-0.6-0.1-1.2-0.5-1.6c-0.4-0.5-0.9-0.6-1.4-0.4c0,0-0.1,0-0.1,0
			c0,0,0,0,0-0.1c0-0.3-0.2-0.5-0.5-0.7c-0.2-0.1-0.5,0-0.7,0.1c0,0,0,0-0.1,0c0,0,0,0-0.1,0c-0.4-0.5-1.2-0.3-1.4-0.2
			c-0.4,0.2-0.8,0.5-0.7,1c0,0,0,0.1,0,0.1c0,0,0,0-0.1,0c-0.3,0-0.7,0.1-1,0.4C16.5,73.5,16.3,73.9,16.3,74.4z"/>
	</g>
	<g>
		<path class="st0" d="M16,73.9l-1.3,3.2c-0.1,0.3,0.1,0.7,0.5,0.7l9.1,0c0.4,0,0.8-0.3,0.6-0.7l-1.1-3.2L16,73.9z"/>
		<path d="M15.2,77.9c-0.2,0-0.3-0.1-0.4-0.3c-0.1-0.2-0.2-0.4-0.1-0.6l1.3-3.2c0,0,0-0.1,0.1-0.1c0,0,0,0,0,0l7.8,0
			c0,0,0.1,0,0.1,0.1l1.1,3.2c0.1,0.2,0,0.4-0.1,0.5c-0.1,0.2-0.4,0.3-0.6,0.3L15.2,77.9C15.2,77.9,15.2,77.9,15.2,77.9z M16,73.9
			l-1.3,3.2c0,0.1,0,0.3,0.1,0.4c0.1,0.1,0.2,0.2,0.3,0.2c0,0,0,0,0,0l9.1,0c0.2,0,0.4-0.1,0.5-0.2c0.1-0.1,0.1-0.2,0.1-0.4L23.7,74
			L16,73.9z"/>
	</g>
	<g>
		<path d="M20.7,77.1C20.7,77.1,20.7,77.1,20.7,77.1c-0.9,0-1.8,0-2.7,0c-0.9,0-1.8,0-2.7,0c0,0,0,0,0,0c0,0,0,0,0,0c0,0,0,0,0,0
			c0.9,0,1.8,0,2.7,0C18.9,77.1,19.8,77.1,20.7,77.1C20.7,77.1,20.7,77.1,20.7,77.1C20.7,77.1,20.7,77.1,20.7,77.1z"/>
	</g>
	<g>
		<path d="M22.2,77.1c-0.2,0-0.4,0-0.5,0c0,0,0,0,0,0c0,0,0,0,0,0c0.4,0,0.9,0,1.3,0c0.4,0,0.8,0,1.3,0c0,0,0,0,0,0c0,0,0,0,0,0
			c0,0,0,0,0,0c-0.4,0-0.9,0-1.3,0C22.7,77.1,22.5,77.1,22.2,77.1z"/>
	</g>
	<g>
		<path d="M18.4,72.6C18.4,72.6,18.4,72.6,18.4,72.6C18.4,72.6,18.3,72.5,18.4,72.6c0-0.2,0.1-0.4,0.3-0.5c0,0,0,0,0,0c0,0,0,0,0,0
			C18.5,72.2,18.4,72.4,18.4,72.6C18.4,72.5,18.4,72.6,18.4,72.6z"/>
	</g>
	<g>
		<path d="M22.8,73.5C22.8,73.5,22.8,73.5,22.8,73.5c0-0.2-0.2-0.4-0.4-0.4c0,0,0,0,0,0c0,0,0,0,0,0c0,0,0,0,0,0
			C22.7,73.1,22.8,73.2,22.8,73.5C22.9,73.5,22.9,73.5,22.8,73.5C22.8,73.5,22.8,73.5,22.8,73.5z"/>
	</g>
	<g>
		<path d="M17,73.6C17,73.6,17,73.6,17,73.6C17,73.6,17,73.6,17,73.6c0-0.2,0.1-0.4,0.2-0.4c0,0,0,0,0,0c0,0,0,0,0,0
			C17.1,73.3,17,73.4,17,73.6C17,73.6,17,73.6,17,73.6z"/>
	</g>
	<g>
		<path d="M16.3,76.5C16.3,76.5,16.3,76.5,16.3,76.5c-0.2,0-0.5,0-0.7,0c0,0,0,0,0,0c0,0,0,0,0,0c0,0,0,0,0,0
			C15.9,76.4,16.1,76.4,16.3,76.5C16.4,76.4,16.4,76.5,16.3,76.5C16.4,76.5,16.4,76.5,16.3,76.5z"/>
	</g>
</g>
<g>
	<g>
		<path class="st0" d="M8.3,71.5c0.3,0.5,1.3,0.9,1.6,0.4c0.7-1-1-2-1-2l0.2-4.6c0,0,0.8-0.5,1-1c0.2-0.4-0.1-1-0.6-1.1
			c-0.5-0.1-1.1,0.3-1.1,0.8c-0.1-0.6-0.7-1.1-1.2-0.8c-0.4,0.2-0.5,0.6-0.4,1c0.1,0.4,0.4,0.7,0.7,1c0,1.9,0.1,4.6,0.1,4.6
			s-0.9,0.8-1,1.2c-0.1,0.4,0.2,0.9,0.6,1C7.6,72.3,8.1,71.9,8.3,71.5z"/>
		<path d="M7.4,72.2c-0.1,0-0.2,0-0.2,0c-0.4-0.1-0.7-0.6-0.6-1.1c0.1-0.4,0.8-1.1,1-1.3c0-0.3-0.1-2.8-0.1-4.6
			c-0.3-0.3-0.6-0.6-0.7-1c-0.1-0.4,0-1,0.4-1.1c0.2-0.1,0.5-0.1,0.8,0.1c0.2,0.1,0.4,0.3,0.5,0.5c0.1-0.1,0.2-0.2,0.3-0.3
			c0.3-0.2,0.6-0.3,0.8-0.2c0.2,0.1,0.5,0.2,0.6,0.5c0.1,0.2,0.2,0.5,0.1,0.8c-0.2,0.4-0.8,0.9-1,1L9,69.9c0.2,0.1,1,0.6,1.1,1.3
			c0.1,0.3,0,0.5-0.2,0.8c-0.1,0.2-0.3,0.2-0.5,0.2c-0.4,0-0.9-0.3-1.1-0.6C8.1,72,7.7,72.2,7.4,72.2z M7.4,63.3c-0.1,0-0.2,0-0.2,0
			c-0.3,0.1-0.4,0.6-0.3,0.9c0.1,0.4,0.4,0.7,0.7,0.9c0,0,0,0,0,0.1c0,1.9,0.1,4.6,0.1,4.6c0,0,0,0,0,0.1c-0.2,0.2-0.9,0.9-1,1.2
			c-0.1,0.4,0.1,0.8,0.5,0.9c0.4,0.1,0.8-0.2,1.1-0.6c0,0,0,0,0.1,0c0,0,0.1,0,0.1,0C8.6,71.7,9.1,72,9.5,72c0.2,0,0.3-0.1,0.4-0.2
			c0.1-0.2,0.2-0.4,0.1-0.6C9.9,70.6,8.9,70,8.9,70c0,0,0,0,0-0.1L9,65.4c0,0,0-0.1,0-0.1c0,0,0.8-0.5,0.9-0.9
			c0.1-0.2,0.1-0.4-0.1-0.6c-0.1-0.2-0.3-0.3-0.5-0.4c-0.2,0-0.5,0-0.7,0.2c-0.2,0.1-0.3,0.3-0.3,0.5c0,0,0,0.1-0.1,0.1
			c0,0-0.1,0-0.1-0.1c0-0.3-0.2-0.6-0.5-0.7C7.7,63.3,7.6,63.3,7.4,63.3z"/>
	</g>
	<g>
		<path d="M9.5,71.7C9.4,71.7,9.4,71.7,9.5,71.7C9.4,71.7,9.4,71.7,9.5,71.7c0.2-0.3,0.1-0.6-0.1-0.8c0,0,0,0,0,0c0,0,0,0,0,0
			C9.6,71.1,9.7,71.5,9.5,71.7C9.5,71.7,9.5,71.7,9.5,71.7z"/>
	</g>
	<g>
		<path d="M7.2,64.1C7.2,64.1,7.2,64.1,7.2,64.1c-0.1-0.2,0-0.4,0.1-0.6c0,0,0,0,0,0c0,0,0,0,0,0C7.2,63.7,7.2,63.9,7.2,64.1
			C7.2,64.1,7.2,64.1,7.2,64.1C7.2,64.1,7.2,64.1,7.2,64.1z"/>
	</g>
</g>
<g>
	<g>
		<path d="M29.7,26.9C29.7,26.9,29.7,26.9,29.7,26.9c1.3-0.8,2.8-1,4-1.1c0.4,0,0.7-0.1,1.1-0.1c1-0.1,2.1-0.1,3.1-0.4
			c1.6-0.4,2.8-1.2,3.5-2.3c0.7-1.2,0.7-3-0.5-4c-0.6-0.5-1.4-0.6-2.2-0.8c-0.4-0.1-0.7-0.1-1.1-0.2c-1.5-0.4-2.9-1.9-2.7-3.5
			c0.2-1.2,1.2-2.1,2.1-2.7c1-0.7,2.1-1.4,3.2-1.9c0,0,0.1-0.1,0-0.1c0,0-0.1-0.1-0.1,0c-1.1,0.5-2.2,1.2-3.3,1.9
			c-0.8,0.6-1.9,1.6-2.1,2.9c-0.2,1.7,1.2,3.2,2.8,3.7c0.3,0.1,0.7,0.2,1.1,0.2c0.8,0.2,1.5,0.3,2.1,0.8c1.1,0.9,1.1,2.6,0.5,3.7
			c-0.6,1.1-1.8,1.9-3.4,2.2c-1,0.2-2.1,0.3-3.1,0.4c-0.4,0-0.7,0-1.1,0.1c-1.2,0.1-2.8,0.3-4.1,1.2C29.6,26.8,29.6,26.8,29.7,26.9
			C29.6,26.9,29.6,26.9,29.7,26.9z"/>
	</g>
	<g>
		<path class="st0" d="M41.1,8.8c-0.5,0.1-1,0.4-1.4,0.6c-0.1,0-0.1,0.1-0.2,0.2c0,0.1,0,0.1,0,0.2c0.1,0.2,0.2,0.5,0.3,0.7
			c0,0,0.1,0.1,0.1,0.1c0,0,0.1,0,0.1,0c0.4-0.1,0.9-0.3,1.3-0.4c0,0,0,0,0.1,0c0,0,0-0.1,0-0.1C41.4,9.7,41.3,9.4,41.1,8.8z"/>
		<path d="M39.9,10.7c-0.1,0-0.1-0.1-0.2-0.1c-0.2-0.2-0.3-0.5-0.3-0.7c0-0.1,0-0.2,0-0.2c0-0.1,0.1-0.2,0.2-0.2
			c0.4-0.3,0.9-0.5,1.4-0.6c0,0,0.1,0,0.1,0.1c0.2,0.6,0.3,1,0.3,1.3c0,0,0,0.1,0,0.2c0,0-0.1,0-0.1,0.1l-1.3,0.4
			C40.1,10.7,40,10.7,39.9,10.7C40,10.7,39.9,10.7,39.9,10.7z M41.3,10.1c0-0.3-0.1-0.6-0.3-1.2c-0.5,0.1-0.9,0.3-1.3,0.6
			c-0.1,0-0.1,0.1-0.1,0.1c0,0,0,0.1,0,0.1c0.1,0.2,0.2,0.5,0.3,0.7c0,0,0,0.1,0.1,0.1c0,0,0.1,0,0.1,0L41.3,10.1
			C41.3,10.1,41.3,10.1,41.3,10.1C41.3,10.1,41.3,10.1,41.3,10.1z M41.3,10.1L41.3,10.1L41.3,10.1z"/>
	</g>
	<g>
		<path d="M27.5,28.1C27.5,28.1,27.5,28.1,27.5,28.1l0.8-0.5c0,0,0-0.1,0-0.1c0,0-0.1,0-0.1,0l-0.8,0.5C27.4,27.9,27.4,28,27.5,28.1
			C27.4,28,27.5,28.1,27.5,28.1z"/>
	</g>
	<g>
		<path d="M26.9,29.4C26.9,29.4,26.9,29.4,26.9,29.4c0.1,0,0.3,0,0.4-0.1c0.1-0.1,0.2-0.2,0.3-0.3c0.3-0.4,0.6-0.8,0.9-1.2
			c0,0,0-0.1,0-0.1c0,0-0.1,0-0.1,0c-0.3,0.4-0.6,0.8-0.9,1.2c-0.1,0.1-0.2,0.2-0.3,0.3c-0.1,0-0.2,0.1-0.3,0.1
			c-0.1,0-0.3,0-0.3-0.1c-0.1-0.1-0.2-0.1-0.2-0.2c0-0.1,0-0.2,0.1-0.3c0.1-0.2,0.3-0.3,0.4-0.4c0,0,0.1-0.1,0-0.1
			c0,0-0.1-0.1-0.1,0c-0.2,0.1-0.4,0.3-0.5,0.4c-0.1,0.1-0.2,0.2-0.1,0.4c0,0.2,0.1,0.3,0.3,0.4C26.6,29.4,26.8,29.4,26.9,29.4z"/>
	</g>
	<g>
		<g>
			<path class="st0" d="M41.2,10.9c0.3,0.8,0.7,1.5,1.3,2c1.2,1,2.1,0.9,3.6,0.3s3.4-1.5,4.1-2.9c0.3-0.6,0.5-1.2,0.5-1.8
				c0-0.6-0.2-1.3-0.6-1.7c-0.6-0.6-1.6-0.6-2.4-0.6c-1.9,0-3.7,0.1-5.2,0.8c-0.6,0.3-1.1,0.6-1.4,1.2C40.6,9,40.9,10,41.2,10.9z
				 M45.8,7.4c0.8-0.1,1.5-0.1,2.3-0.1c0.3,0,0.5,0,0.8,0.1s0.5,0.2,0.6,0.4c0.2,0.3,0.1,0.6,0,0.9C49.4,9,49.2,9.3,49,9.7
				c-0.1,0.1-0.1,0.1-0.2,0.1c-0.1,0-0.1,0-0.2-0.1c-0.9-0.4-1.7-1-2.4-1.5C46,8.1,45.9,8,45.8,7.8C45.7,7.7,45.6,7.4,45.8,7.4z"/>
			<path d="M42.5,12.9c-0.5-0.5-1-1.1-1.4-2c-0.4-1.1-0.5-2-0.1-2.7c0.2-0.5,0.7-0.9,1.4-1.2c1.5-0.7,3.1-0.9,5.2-0.8
				c0.9,0,1.9,0,2.5,0.6c0.4,0.4,0.7,1,0.7,1.7c0,0.5-0.2,1.1-0.5,1.8c-0.5,1.1-1.9,2.1-4.1,3c-0.7,0.3-1.3,0.4-1.8,0.4
				C43.7,13.7,43.1,13.5,42.5,12.9z M47.6,6.3c-2.1,0-3.7,0.1-5.1,0.8c-0.7,0.3-1.1,0.7-1.3,1.2l0,0c-0.3,0.6-0.3,1.5,0.1,2.5
				c0.4,0.9,0.8,1.5,1.3,2c1.1,1,2.1,0.9,3.5,0.3c2.2-0.9,3.5-1.8,4-2.9c0.3-0.7,0.5-1.2,0.5-1.7c0-0.6-0.2-1.2-0.6-1.6
				c-0.6-0.5-1.4-0.6-2.2-0.6C47.7,6.3,47.7,6.3,47.6,6.3z M48.7,9.9c-0.1,0-0.2,0-0.2-0.1c-0.9-0.4-1.7-1-2.4-1.5
				C46,8.2,45.8,8,45.7,7.9c-0.1-0.1-0.2-0.3-0.1-0.5c0,0,0.1-0.1,0.2-0.1c0.8-0.1,1.5-0.1,2.3-0.1c0.3,0,0.5,0,0.8,0.1
				c0.3,0.1,0.5,0.2,0.7,0.4c0.2,0.2,0.2,0.6,0.1,0.9C49.5,9,49.3,9.4,49,9.7C49,9.8,48.9,9.9,48.7,9.9C48.7,9.9,48.7,9.9,48.7,9.9z
				 M45.9,7.4C45.8,7.4,45.8,7.5,45.9,7.4c-0.1,0.1-0.1,0.2,0,0.4C46,7.9,46.1,8,46.2,8.2c0.7,0.6,1.5,1.1,2.4,1.5c0,0,0.1,0,0.1,0
				h0c0.1,0,0.1,0,0.2-0.1c0.3-0.3,0.5-0.7,0.6-1c0.1-0.3,0.1-0.6,0-0.8c-0.1-0.2-0.3-0.3-0.6-0.4c-0.2-0.1-0.5-0.1-0.8-0.1
				c-0.2,0-0.4,0-0.6,0C47,7.3,46.5,7.3,45.9,7.4z"/>
		</g>
	</g>
	<g>
		<path d="M43.6,12.3C43.6,12.3,43.6,12.3,43.6,12.3c1.3-0.5,2.5-1.1,3.6-1.9c0,0,0,0,0,0c0,0,0,0,0,0
			C46.1,11.1,44.9,11.8,43.6,12.3C43.6,12.3,43.6,12.3,43.6,12.3C43.6,12.3,43.6,12.3,43.6,12.3z"/>
	</g>
	<g>
		<path d="M42.9,11.3C42.9,11.3,42.9,11.3,42.9,11.3c1.2-0.5,2.4-1.1,3.6-1.8c0,0,0,0,0,0c0,0,0,0,0,0
			C45.3,10.1,44.1,10.7,42.9,11.3C42.9,11.2,42.9,11.2,42.9,11.3C42.9,11.3,42.9,11.3,42.9,11.3z"/>
	</g>
	<g>
		<path d="M42.1,10.3C42.1,10.3,42.1,10.3,42.1,10.3c1.2-0.4,2.3-1,3.4-1.6c0,0,0,0,0,0c0,0,0,0,0,0C44.3,9.3,43.2,9.8,42.1,10.3
			C42,10.2,42,10.2,42.1,10.3C42.1,10.3,42.1,10.3,42.1,10.3z"/>
	</g>
	<g>
		<path d="M47.3,11.7C47.3,11.7,47.3,11.7,47.3,11.7C47.4,11.7,47.4,11.7,47.3,11.7c-1.4-1.1-2.7-2.2-3.8-3.6c0,0,0,0,0,0
			c0,0,0,0,0,0C44.6,9.5,45.9,10.7,47.3,11.7C47.3,11.7,47.3,11.7,47.3,11.7z"/>
	</g>
	<g>
		<path d="M45.8,12.4C45.8,12.4,45.9,12.4,45.8,12.4C45.9,12.4,45.9,12.3,45.8,12.4c-1.3-1.1-2.6-2.3-3.6-3.7c0,0,0,0,0,0
			c0,0,0,0,0,0C43.2,10.1,44.5,11.3,45.8,12.4C45.8,12.4,45.8,12.4,45.8,12.4z"/>
	</g>
	<g>
		<path class="st0" d="M29.9,26.6c0.1,0.1,0.2,0.3,0.1,0.5c0,0.1-0.1,0.2-0.2,0.2c-0.3,0.3-0.7,0.6-1,0.9c-0.1,0.1-0.2,0.2-0.4,0.2
			c-0.2,0-0.3-0.3-0.4-0.5c-0.1-0.1-0.1-0.2-0.1-0.3c0-0.2,0.1-0.3,0.3-0.4c0.2-0.1,0.5-0.3,0.7-0.4C29.2,26.6,29.6,26.4,29.9,26.6z
			"/>
		<path d="M28.4,28.5c-0.2,0-0.3-0.2-0.4-0.4c0,0,0-0.1-0.1-0.1c0,0,0,0,0,0c-0.1-0.1-0.1-0.2-0.1-0.3c0-0.2,0.2-0.3,0.3-0.4
			l0.7-0.4c0,0,0.1,0,0.1-0.1c0.3-0.2,0.7-0.4,1-0.1c0,0,0,0,0,0c0.1,0.1,0.2,0.4,0.1,0.6c-0.1,0.1-0.1,0.2-0.2,0.3l-1,0.9
			C28.7,28.4,28.6,28.5,28.4,28.5C28.4,28.5,28.4,28.5,28.4,28.5z M29,26.8C29,26.9,29,26.9,29,26.8l-0.8,0.5
			C28,27.4,28,27.5,28,27.6c0,0.1,0,0.1,0.1,0.2c0,0,0,0,0,0.1c0,0,0,0.1,0.1,0.1c0.1,0.1,0.1,0.3,0.2,0.3c0.1,0,0.2-0.1,0.3-0.2
			l1-0.9c0.1-0.1,0.1-0.1,0.2-0.2c0.1-0.1,0-0.3-0.1-0.4C29.6,26.5,29.4,26.6,29,26.8z"/>
	</g>
</g>
<g>
	<g>
		<path class="st0" d="M54.3,73.1c-2.1,2.9-3,5.6-3,8.1c0,3.6,2.1,5.3,4.1,5.3c1.3,0,6.9,0.1,7.8,0.1c2-0.1,4-1.1,4-5.4
			c0-3.1-0.8-4.9-3-8L54.3,73.1z"/>
		<path d="M62.5,86.6c-1,0-2.7,0-4.3-0.1c-1.3,0-2.3,0-2.8,0c-2,0-4.2-1.7-4.2-5.3c0-2.8,1-5.5,3-8.2c0,0,0,0,0.1,0l9.9,0
			c0,0,0.1,0,0.1,0c2.3,3.2,3,5.1,3,8.1c0,2-0.4,3.4-1.3,4.3c-0.7,0.7-1.6,1.1-2.8,1.2C63.1,86.6,62.9,86.6,62.5,86.6z M54.4,73.2
			c-1.9,2.6-2.9,5.3-2.9,8c0,3.5,2.1,5.2,4,5.2c0.5,0,1.6,0,2.8,0c2.1,0,4.4,0.1,5,0c2.6-0.1,3.9-1.9,3.9-5.3c0-2.9-0.7-4.8-3-7.9
			L54.4,73.2z"/>
	</g>
	<g>
		<path d="M57.7,85.4c-0.8,0-1.6,0-2.3-0.3c-1.1-0.3-2-1.1-2.3-2c-0.3-0.6-0.3-1.3-0.3-1.9c0-1.4,0.6-3.2,1-4.2c0,0,0-0.1,5.4-0.1
			c2.6,0,5.3,0,5.3,0c0,0,0,0,0,0c0.6,1.3,1,2.5,1.2,3.6c0.2,1.1,0.1,2.6-0.6,3.5c-1,1.3-2.7,1.3-4.2,1.3c-0.2,0-0.3,0-0.5,0l-1.9,0
			C58.2,85.4,58,85.4,57.7,85.4z M53.8,77.1c-0.3,1-0.9,2.8-0.9,4.2c0,0.5,0,1.2,0.3,1.9c0.4,0.9,1.2,1.6,2.3,1.9c1,0.3,2,0.3,3,0.3
			l1.9,0c0.2,0,0.3,0,0.5,0c1.5,0,3.3,0,4.2-1.3c0.7-0.9,0.7-2.4,0.6-3.5c-0.2-1.1-0.6-2.4-1.2-3.6C61.5,77,54.1,77,53.8,77.1z
			 M53.8,77.1C53.8,77.1,53.8,77.1,53.8,77.1C53.8,77.1,53.8,77.1,53.8,77.1z"/>
	</g>
	<g>
		<path class="st0" d="M60.6,81.7c-0.4-0.5-0.9-0.7-1.5-0.8c-0.5-0.1-1.1,0.1-1.5,0.4c0,0-0.1,0.1-0.1,0.1S56.9,81,56.4,81
			c0,0-0.1,0-0.1,0.1c0,0,0,0.1,0,0.1c0.1,0.2,0.2,0.4,0.4,0.7c-0.2,0.2-0.3,0.5-0.3,0.7c0.3,0,0.7-0.1,1-0.4c0.4,0.4,1,0.6,1.6,0.6
			c0.5,0,1.1-0.2,1.5-0.6c0.1,0,0.1-0.1,0.2-0.2C60.6,81.9,60.6,81.8,60.6,81.7z"/>
		<path d="M58.8,82.8c-0.5,0-1.1-0.2-1.5-0.6c-0.3,0.2-0.6,0.3-1,0.3c0,0,0,0-0.1,0c0,0,0,0,0-0.1c0.1-0.3,0.2-0.5,0.3-0.7l-0.3-0.6
			c0,0,0-0.1,0-0.1c0-0.1,0.1-0.1,0.2-0.1c0.4,0,1,0.3,1.1,0.4c0,0,0.1,0,0.1,0c0.4-0.4,1-0.5,1.5-0.4c0.5,0.1,1.1,0.4,1.5,0.8l0,0
			c0.1,0.1,0.1,0.3,0,0.4c0,0.1-0.1,0.2-0.2,0.2C60,82.6,59.4,82.8,58.8,82.8C58.9,82.8,58.9,82.8,58.8,82.8z M57.4,82.1
			C57.4,82.1,57.4,82.1,57.4,82.1c0.5,0.4,1,0.6,1.6,0.6c0.5,0,1-0.2,1.5-0.6c0.1,0,0.1-0.1,0.1-0.1c0-0.1,0-0.2,0-0.2l0,0
			c-0.4-0.4-0.9-0.7-1.4-0.8c-0.5-0.1-1,0.1-1.4,0.4c0,0-0.1,0.1-0.2,0.1c0,0-0.1,0-0.1,0c0,0-0.6-0.4-1-0.4c0,0,0,0,0,0l0.4,0.7
			c0,0,0,0.1,0,0.1c-0.1,0.2-0.2,0.4-0.3,0.6C56.8,82.4,57.1,82.3,57.4,82.1C57.3,82.1,57.3,82.1,57.4,82.1z"/>
	</g>
	<g>
		<path d="M61.4,80.8c-0.1,0-0.2,0-0.2-0.1C61,80.6,61,80.4,61,80.3c0.1-0.1,0.2-0.2,0.3-0.2c0.2,0,0.3,0.2,0.3,0.4
			c0,0.1,0,0.2-0.1,0.2c0,0-0.1,0.1-0.1,0.1C61.5,80.7,61.4,80.8,61.4,80.8z M61.4,80.1c-0.1,0-0.2,0.1-0.3,0.2c0,0.1,0,0.3,0.1,0.3
			c0.1,0.1,0.2,0.1,0.3,0.1c0,0,0.1,0,0.1-0.1c0,0,0.1-0.1,0.1-0.2C61.7,80.3,61.6,80.1,61.4,80.1L61.4,80.1
			C61.4,80.1,61.4,80.1,61.4,80.1z"/>
	</g>
	<g>
		<path d="M62.3,79.3c-0.2,0-0.3-0.1-0.4-0.2c-0.2-0.2-0.2-0.4-0.2-0.6c0.1-0.2,0.3-0.4,0.6-0.3c0.4,0,0.5,0.3,0.6,0.6
			c0,0.1,0,0.3-0.1,0.4c0,0.1-0.1,0.1-0.2,0.1C62.4,79.3,62.4,79.3,62.3,79.3z M62.2,78.2c-0.2,0-0.4,0.1-0.5,0.3
			c-0.1,0.2,0,0.4,0.1,0.6c0.2,0.1,0.4,0.2,0.6,0.1c0.1,0,0.1-0.1,0.2-0.1c0.1-0.1,0.1-0.2,0.1-0.3C62.8,78.6,62.6,78.3,62.2,78.2
			L62.2,78.2C62.3,78.2,62.2,78.2,62.2,78.2z"/>
	</g>
	<g>
		<path d="M54.4,74.7C54.4,74.7,54.4,74.7,54.4,74.7C54.3,74.6,54.3,74.6,54.4,74.7c0.1-0.4,0.3-0.7,0.5-1c0,0,0,0,0,0c0,0,0,0,0,0
			C54.7,74,54.5,74.3,54.4,74.7C54.4,74.6,54.4,74.7,54.4,74.7z"/>
	</g>
	<g>
		<path d="M55.2,74.2C55.2,74.2,55.2,74.2,55.2,74.2C55.2,74.2,55.2,74.2,55.2,74.2l0.2-0.6c0,0,0,0,0,0c0,0,0,0,0,0L55.2,74.2
			C55.2,74.2,55.2,74.2,55.2,74.2z"/>
	</g>
	<g>
		<path d="M65.8,84.8C65.8,84.8,65.8,84.8,65.8,84.8C65.7,84.7,65.7,84.7,65.8,84.8c0.2-0.3,0.3-0.6,0.4-0.9c0,0,0,0,0,0
			c0,0,0,0,0,0C66.1,84.2,66,84.5,65.8,84.8C65.8,84.7,65.8,84.8,65.8,84.8z"/>
	</g>
</g>
<g>
	<g>
		<path class="st0" d="M41.2,57.3c-0.7-0.1-1.5,0.3-1.9,0.9c-0.4,0.6-0.5,1.4-0.3,2.2c0.1,0.3,0.2,0.7,0.4,0.9
			c0.5,0.6,1.4,0.7,2.2,0.6c0.4-0.1,0.7-0.2,1-0.4c0.4-0.3,0.7-0.8,0.8-1.2c0.2-0.7,0.1-1.4-0.2-2C42.9,57.7,42.2,57.3,41.2,57.3z"
			/>
		<path d="M41.1,62.1c-0.6,0-1.3-0.2-1.7-0.7c-0.2-0.2-0.4-0.6-0.5-1c-0.2-0.8-0.1-1.6,0.3-2.2c0.4-0.7,1.3-1.1,2-1
			c1,0,1.7,0.3,2.1,1c0.4,0.6,0.4,1.3,0.2,2.1c-0.2,0.5-0.5,1-0.9,1.3c-0.3,0.2-0.6,0.3-1.1,0.4C41.5,62.1,41.3,62.1,41.1,62.1z
			 M41,57.4c-0.6,0-1.3,0.4-1.7,0.9c-0.4,0.6-0.5,1.4-0.3,2.1c0.1,0.4,0.2,0.7,0.4,0.9c0.5,0.6,1.4,0.7,2.1,0.6
			c0.4-0.1,0.7-0.2,1-0.4c0.4-0.3,0.6-0.7,0.8-1.2c0.2-0.7,0.1-1.4-0.2-1.9c-0.4-0.6-1.1-1-2-0.9c0,0,0,0,0,0
			C41.2,57.4,41.1,57.4,41,57.4z"/>
	</g>
	<g>
		<path d="M39.7,61.6C39.7,61.6,39.7,61.6,39.7,61.6C39.7,61.5,39.7,61.5,39.7,61.6c0.3-0.3,0.5-0.6,0.7-0.9c0.2-0.3,0.3-0.7,0.3-1
			c0-0.2-0.1-0.4-0.2-0.7c-0.3-0.4-0.6-0.7-1-0.7c0,0,0,0,0,0c0,0,0,0,0,0c0.4,0,0.7,0.3,1,0.8c0.1,0.2,0.2,0.5,0.2,0.7
			c0,0.3-0.1,0.7-0.3,1.1C40.2,61,40,61.3,39.7,61.6C39.7,61.6,39.7,61.6,39.7,61.6z"/>
	</g>
	<g>
		<path d="M43,61.2C43,61.2,43,61.2,43,61.2c-0.8-0.6-1.2-1.8-0.8-2.8c0.1-0.2,0.3-0.6,0.6-0.7c0,0,0,0,0,0c0,0,0,0,0,0
			c-0.3,0.1-0.5,0.4-0.6,0.6C41.9,59.4,42.3,60.6,43,61.2C43.1,61.2,43.1,61.2,43,61.2C43.1,61.2,43,61.2,43,61.2z"/>
	</g>
	<g>
		<path d="M40.5,58.6C40.5,58.6,40.5,58.6,40.5,58.6c-0.1-0.1-0.1-0.1-0.2-0.2c0-0.1-0.1-0.1-0.1-0.2c-0.1-0.1-0.2-0.1-0.3-0.2
			c0,0,0,0,0,0c0,0,0,0,0,0c0.1,0.1,0.2,0.1,0.3,0.2c0.1,0.1,0.1,0.1,0.1,0.2C40.5,58.4,40.5,58.5,40.5,58.6
			C40.6,58.5,40.6,58.6,40.5,58.6C40.6,58.6,40.5,58.6,40.5,58.6z"/>
	</g>
</g>
<g>
	<g>
		<path class="st0" d="M15.9,59.3c-0.3,0.7-0.7,1.3-1.2,1.9c-0.1,0.1-0.2,0.2-0.3,0.4c0,0.1-0.1,0.3-0.1,0.4c0,0.6,0,1.2,0,1.8
			c0,0,0,0.1,0,0.1c0,0,0.1,0,0.1,0c0.4,0,0.8-0.3,1.1-0.5c0.9-0.8,1.5-1.8,1.7-3c0-0.2,0-0.5,0-0.7c-0.1-0.2-0.2-0.4-0.5-0.5
			C16.5,59,16.2,59.1,15.9,59.3z"/>
		<path d="M14.5,63.9c-0.1,0-0.1,0-0.2-0.1c0-0.1,0-0.1,0-0.2l0-1.8c0-0.1,0-0.3,0.1-0.4c0.1-0.2,0.2-0.3,0.3-0.4l0,0
			c0.5-0.5,0.9-1.2,1.2-1.9c0,0,0,0,0,0c0.3-0.2,0.6-0.3,0.9-0.2c0.2,0.1,0.4,0.3,0.5,0.6c0.1,0.3,0.1,0.5,0,0.8
			c-0.2,1.1-0.8,2.2-1.7,3.1C15.3,63.6,14.9,63.9,14.5,63.9C14.5,63.9,14.5,63.9,14.5,63.9z M14.4,63.8
			C14.4,63.8,14.4,63.8,14.4,63.8c0.4,0,0.8-0.3,1-0.5c0.9-0.9,1.5-1.9,1.7-3c0-0.2,0.1-0.5,0-0.7c-0.1-0.2-0.2-0.4-0.4-0.5
			c-0.2-0.1-0.4,0-0.8,0.2c-0.3,0.7-0.7,1.3-1.2,1.9l0,0c-0.1,0.1-0.2,0.2-0.3,0.3c0,0.1,0,0.3,0,0.4L14.4,63.8
			C14.4,63.7,14.4,63.8,14.4,63.8C14.4,63.8,14.4,63.8,14.4,63.8z"/>
	</g>
	<g>
		<path class="st0" d="M23.6,59.7c0.6,0.6,0.9,1.6,1.2,2.3c0.1,0.2,0.1,0.3,0.3,0.5c0.1,0.1,0.2,0.2,0.4,0.2
			c0.6,0.3,1.2,0.5,1.8,0.8c0,0,0.1,0,0.1,0c0,0,0.1-0.1,0.1-0.1c0.2-0.4,0.1-0.9-0.1-1.3c-0.4-1.2-1.5-2.4-2.6-3.1
			c-0.2-0.1-0.1-0.2-0.4-0.2c-0.3,0-0.6,0-0.7,0.2C23.5,59.3,23.5,59.3,23.6,59.7z"/>
		<path d="M27.3,63.7c0,0-0.1,0-0.1,0l-1.8-0.8c-0.1-0.1-0.3-0.1-0.4-0.3c-0.1-0.1-0.2-0.3-0.3-0.5l0,0c0-0.1-0.1-0.2-0.1-0.3
			c-0.3-0.7-0.6-1.5-1.1-2c0,0,0,0,0-0.1c0-0.1,0-0.2,0-0.3c0-0.2,0-0.3,0.1-0.4c0.2-0.2,0.5-0.3,0.8-0.3c0.2,0,0.2,0.1,0.3,0.1
			c0,0,0,0.1,0.1,0.1c1.2,0.8,2.3,2,2.7,3.2c0.1,0.4,0.3,0.9,0.1,1.4C27.5,63.6,27.4,63.7,27.3,63.7C27.3,63.7,27.3,63.7,27.3,63.7z
			 M23.7,59.7c0.5,0.5,0.8,1.3,1.1,2c0,0.1,0.1,0.2,0.1,0.3l0,0c0.1,0.1,0.1,0.3,0.2,0.4c0.1,0.1,0.2,0.2,0.4,0.2l1.8,0.8
			c0,0,0,0,0.1,0c0,0,0,0,0,0c0.2-0.4,0.1-0.9-0.1-1.2c-0.4-1.3-1.6-2.5-2.6-3.1c-0.1-0.1-0.1-0.1-0.2-0.2c0,0,0,0-0.2-0.1
			c-0.3,0-0.5,0-0.7,0.2c-0.1,0.1-0.1,0.1-0.1,0.3C23.6,59.5,23.6,59.6,23.7,59.7z"/>
	</g>
	<g>
		<path class="st0" d="M13.4,57.4c-0.6,0.9-1.5,1.6-2.5,1.9c0,0.1,0.2,0.2,0.3,0.2c0.9,0.2,1.9,0.1,2.8-0.4c0.3-0.2,0.7-0.4,0.8-0.8
			c0.1-0.4,0-0.8-0.4-1c-0.1,0-0.3,0-0.4,0C13.8,57.4,13.5,57.5,13.4,57.4z"/>
		<path d="M12.1,59.8c-0.3,0-0.6,0-0.9-0.1c-0.2-0.1-0.4-0.2-0.4-0.3c0,0,0-0.1,0.1-0.1c1-0.4,1.9-1.1,2.5-1.9c0,0,0.1,0,0.1,0
			c0.1,0,0.4,0,0.6,0c0.1,0,0.3,0,0.4,0c0.2,0.1,0.3,0.2,0.4,0.4c0.1,0.2,0.1,0.5,0,0.7c-0.1,0.3-0.4,0.6-0.9,0.8
			C13.4,59.6,12.8,59.8,12.1,59.8z M11,59.4c0.1,0.1,0.2,0.1,0.2,0.1c0.9,0.2,1.9,0.1,2.7-0.4c0.4-0.2,0.7-0.4,0.8-0.7
			c0.1-0.2,0.1-0.4,0-0.6c0-0.1-0.1-0.2-0.3-0.3c-0.1,0-0.2,0-0.4,0c-0.2,0-0.5,0-0.6,0C12.8,58.3,12,59,11,59.4z"/>
	</g>
	<g>
		<path class="st0" d="M26.4,56.5c1-0.2,1.9-0.7,2.6-1.4c0.5-0.5,1-1.1,1.6-1.5c0.6-0.4,1.4-0.6,2.1-0.3c0.8,0.4,0.9,1.5,0.6,2.3
			c-0.4,0.8-1.1,1.3-1.9,1.8c-0.9,0.5-1.8,0.9-2.8,1.1c-0.5,0.1-1.1,0.2-1.6,0C26.5,58.3,26.1,57.7,26.4,56.5z"/>
		<path d="M27.7,58.7c-0.2,0-0.5,0-0.7-0.1c-0.3-0.1-1-0.6-0.6-2.1c0,0,0-0.1,0.1-0.1c1-0.2,1.9-0.7,2.6-1.4
			c0.2-0.2,0.4-0.4,0.6-0.6c0.3-0.3,0.6-0.7,1-0.9c0.5-0.4,1.4-0.7,2.2-0.3c0.8,0.5,1,1.6,0.6,2.4c-0.4,0.9-1.2,1.4-1.9,1.8
			c-0.9,0.5-1.9,0.9-2.9,1.2C28.4,58.7,28,58.7,27.7,58.7z M26.5,56.5c-0.2,1-0.1,1.7,0.5,1.9c0.5,0.2,1.1,0.1,1.6,0
			c0.9-0.2,1.9-0.6,2.8-1.1c0.7-0.4,1.5-0.9,1.8-1.7c0.3-0.7,0.2-1.8-0.5-2.2c-0.7-0.4-1.5-0.1-2,0.3c-0.4,0.3-0.7,0.6-1,0.9
			c-0.2,0.2-0.4,0.4-0.6,0.6C28.4,55.8,27.5,56.3,26.5,56.5z"/>
	</g>
	<g>
		<path class="st0" d="M14,59.2c-0.6-0.3-1-0.9-0.9-1.6c0.1-0.7,0.6-1.2,1.1-1.6c1.6-1.3,3.5-2.1,5.6-2.3c2-0.2,4.1,0.3,5.9,1.4
			c1.1,0.6,2,1.6,2.3,2.8c0.1,0.2,0.1,0.5,0,0.7c-0.2,0.4-1,0.8-1.5,0.8C22.4,60.1,15.7,60,14,59.2z"/>
		<path d="M20.1,59.9c-2.8,0-5.2-0.2-6.2-0.6l0,0c-0.7-0.3-1.1-1-0.9-1.7c0.2-0.7,0.7-1.3,1.2-1.7c1.6-1.3,3.6-2.2,5.6-2.3
			c2.1-0.2,4.2,0.3,5.9,1.4c0.9,0.6,2,1.5,2.4,2.8c0,0.2,0.1,0.5,0,0.8c-0.2,0.5-1,0.8-1.5,0.9C24.7,59.8,22.3,59.9,20.1,59.9z
			 M14,59.2c1.6,0.7,8.3,0.8,12.5,0.2c0.5-0.1,1.2-0.4,1.4-0.8c0.1-0.2,0.1-0.4,0-0.7c-0.3-1.3-1.4-2.2-2.3-2.7
			c-1.7-1.1-3.8-1.5-5.8-1.4c-2,0.2-4,1-5.5,2.3c-0.4,0.3-1,0.9-1.1,1.6C13.1,58.3,13.4,58.9,14,59.2z"/>
	</g>
	<g>
		<path d="M31.6,54.1c-0.2,0-0.3,0.3-0.2,0.4c0,0.1,0.1,0.1,0.1,0.1c0.1,0,0.2-0.1,0.2-0.1c0-0.1,0.1-0.2,0-0.2
			C31.8,54.1,31.7,54,31.6,54.1z"/>
	</g>
	<g>
		<path d="M32.8,54.9C32.8,54.9,32.8,54.9,32.8,54.9C32.8,54.9,32.7,54.9,32.8,54.9C32.7,54.9,32.8,54.8,32.8,54.9
			C32.8,54.8,32.8,54.8,32.8,54.9c0.3-0.1,0.6-0.2,0.7-0.5c0,0,0,0,0,0c0,0,0,0,0,0C33.4,54.7,33.1,54.9,32.8,54.9z"/>
	</g>
	<g>
		<path d="M22.8,58.8c-0.1,0-0.2,0-0.3,0l-3.8,0c-1.4,0-3.2,0-4.6-1c0,0,0,0,0,0c0,0,0,0,0,0c1.2,0.9,2.8,1,4.5,1l3.8,0
			c1.4,0,3.3,0,4.6-1c0,0,0,0,0,0c0,0,0,0,0,0C25.8,58.8,24.1,58.8,22.8,58.8z"/>
	</g>
	<g>
		<path d="M25.9,62.6C25.9,62.6,25.9,62.6,25.9,62.6C25.9,62.5,25.8,62.5,25.9,62.6c0-0.2,0-0.4-0.1-0.6c0,0,0,0,0,0c0,0,0,0,0,0
			C25.9,62.1,25.9,62.3,25.9,62.6C25.9,62.5,25.9,62.6,25.9,62.6z"/>
	</g>
	<g>
		<path d="M26.7,62.9C26.7,62.9,26.7,62.9,26.7,62.9C26.7,62.9,26.7,62.9,26.7,62.9c0-0.2-0.1-0.3-0.1-0.5c0-0.1-0.1-0.3-0.2-0.4
			c0,0,0,0,0,0c0,0,0,0,0,0c0.1,0.1,0.1,0.3,0.2,0.4C26.7,62.5,26.7,62.7,26.7,62.9C26.7,62.9,26.7,62.9,26.7,62.9z"/>
	</g>
	<g>
		<path d="M14.8,62.1C14.7,62.1,14.7,62.1,14.8,62.1C14.7,62.1,14.7,62.1,14.8,62.1c0.2-0.2,0.4-0.3,0.6-0.5c0,0,0,0,0,0
			c0,0,0,0,0,0C15.2,61.8,15,62,14.8,62.1C14.8,62.1,14.8,62.1,14.8,62.1z"/>
	</g>
	<g>
		<path d="M14.9,62.8C14.8,62.8,14.8,62.8,14.9,62.8C14.8,62.8,14.8,62.8,14.9,62.8c0.3-0.2,0.6-0.4,0.8-0.7c0,0,0,0,0,0
			c0,0,0,0,0,0C15.5,62.5,15.2,62.7,14.9,62.8C14.9,62.8,14.9,62.8,14.9,62.8z"/>
	</g>
	<g>
		<path d="M21.4,57C21.4,57,21.4,57,21.4,57C21.4,57,21.4,57,21.4,57c0.1-0.9,0.2-1.7,0.2-2.5c0,0,0,0,0,0c0,0,0,0,0,0
			C21.6,55.3,21.6,56.2,21.4,57C21.4,57,21.4,57,21.4,57z"/>
	</g>
	<g>
		<path d="M23.2,57C23.2,57,23.2,57,23.2,57C23.2,57,23.2,57,23.2,57c0.1-0.7,0.1-1.4,0.1-2.1c0,0,0,0,0,0c0,0,0,0,0,0
			C23.4,55.6,23.3,56.3,23.2,57C23.2,57,23.2,57,23.2,57z"/>
	</g>
	<g>
		<path d="M24.7,57.1C24.7,57.1,24.7,57.1,24.7,57.1C24.7,57.1,24.7,57.1,24.7,57.1c0.1-0.5,0.1-1.1,0.1-1.6c0,0,0,0,0,0
			c0,0,0,0,0,0C24.9,56.1,24.9,56.6,24.7,57.1C24.8,57.1,24.8,57.1,24.7,57.1z"/>
	</g>
	<g>
		<path d="M26,57.1C26,57.1,26,57.1,26,57.1C26,57.1,26,57.1,26,57.1c0-0.2,0.1-0.4,0-0.6c0,0,0,0,0,0c0,0,0,0,0,0
			C26.1,56.7,26.1,56.9,26,57.1C26,57.1,26,57.1,26,57.1z"/>
	</g>
	<g>
		<path d="M19.5,57.1C19.5,57.1,19.5,57.1,19.5,57.1C19.5,57.1,19.5,57,19.5,57.1c0.1-0.8,0.1-1.6,0-2.4c0,0,0,0,0,0c0,0,0,0,0,0
			C19.7,55.4,19.7,56.2,19.5,57.1C19.6,57,19.5,57.1,19.5,57.1z"/>
	</g>
	<g>
		<path d="M17.8,57C17.8,57,17.8,57,17.8,57C17.7,57,17.7,57,17.8,57c0.1-0.7,0.1-1.3,0-1.9c0,0,0,0,0,0c0,0,0,0,0,0
			C17.9,55.7,17.9,56.4,17.8,57C17.8,57,17.8,57,17.8,57z"/>
	</g>
	<g>
		<path d="M16.1,57.1C16.1,57.1,16.1,57.1,16.1,57.1C16.1,57.1,16.1,57.1,16.1,57.1c0.1-0.5,0.1-0.9,0-1.3c0,0,0,0,0,0c0,0,0,0,0,0
			C16.2,56.2,16.2,56.7,16.1,57.1C16.1,57.1,16.1,57.1,16.1,57.1z"/>
	</g>
	<g>
		<path d="M14.9,57.1C14.9,57.1,14.9,57.1,14.9,57.1l-0.1-0.6c0,0,0,0,0,0c0,0,0,0,0,0L14.9,57.1C14.9,57.1,14.9,57.1,14.9,57.1
			C14.9,57.1,14.9,57.1,14.9,57.1z"/>
	</g>
</g>
<g>
	<g>
		<path class="st0" d="M33.1,76.1c-1.6,0.6-2.8,2-3.4,3.5c-0.7,1.5-0.8,3.2-0.9,4.8c-0.2-0.4-0.4-0.8-0.8-1c-0.4-0.2-1-0.2-1.2,0.2
			c-0.1,0.1-0.1,0.3-0.1,0.5c0,0.8,0.3,1.7,1.1,2c0.2,0.1,0.4,0.1,0.6,0.1c0.5,0.1,0.3-0.5,0.7-0.1c1,0.9,4.4,0.6,6.1,0.4
			c0.5,0,1-0.1,1.5,0.1c0.4,0.1,0.8,0.4,1.1,0.3c0.4-0.2,0.4-0.7,0.3-1.1c0.3,0,0.6,0,0.9-0.1c0.1,0.4,0.3,0.9,0.7,0.9
			c0.4,0,0.6-0.4,0.7-0.7c0.4-1,0.5-2.1,0.5-3.1c0.1-1.1,0.1-2.3-0.2-3.4s-0.9-2.2-2-2.8c-0.7-0.4-1.5-0.6-2.2-0.7
			C35.4,75.7,34.3,75.6,33.1,76.1z"/>
		<path d="M37.5,87c-0.2,0-0.4-0.1-0.7-0.2c-0.1,0-0.2-0.1-0.3-0.1c-0.4-0.2-0.9-0.1-1.3-0.1l-0.2,0c-1.8,0.2-5.1,0.5-6.1-0.5
			c-0.1-0.1-0.1-0.1-0.1-0.1c0,0,0,0,0,0c-0.1,0.1-0.2,0.2-0.5,0.2c-0.2,0-0.4-0.1-0.6-0.1c-0.9-0.3-1.1-1.3-1.1-2.1
			c0-0.2,0-0.3,0.1-0.5c0.1-0.2,0.3-0.3,0.5-0.3c0.3-0.1,0.6,0,0.9,0.1c0.3,0.2,0.5,0.5,0.7,0.8c0.1-1.5,0.3-3.1,0.9-4.5
			c0.7-1.7,2-3,3.5-3.6l0,0c1.4-0.5,2.5-0.4,3.5-0.2c0.8,0.2,1.6,0.3,2.3,0.7c1,0.6,1.7,1.6,2,2.8c0.3,1.1,0.2,2.3,0.2,3.4
			c-0.1,1-0.2,2.1-0.5,3.1c-0.1,0.3-0.3,0.8-0.8,0.8c-0.5,0-0.7-0.6-0.8-0.9l-0.7,0c0.1,0.4,0,0.9-0.4,1.1C37.7,87,37.6,87,37.5,87z
			 M35.9,86.4c0.3,0,0.5,0,0.8,0.1c0.1,0,0.2,0.1,0.3,0.1c0.3,0.1,0.5,0.2,0.8,0.1c0.3-0.1,0.3-0.6,0.2-1c0,0,0-0.1,0-0.1
			c0,0,0,0,0.1,0l0.9-0.1c0,0,0.1,0,0.1,0.1c0.1,0.3,0.2,0.9,0.6,0.9c0.4,0,0.6-0.4,0.6-0.7c0.4-1,0.4-2.1,0.5-3.1
			c0.1-1.1,0.1-2.3-0.2-3.4c-0.3-1.2-1-2.2-1.9-2.7c-0.7-0.4-1.5-0.5-2.2-0.7c-0.9-0.2-2.1-0.3-3.4,0.2c-1.5,0.5-2.7,1.8-3.4,3.5
			c-0.7,1.5-0.8,3.2-0.9,4.8c0,0,0,0.1-0.1,0.1c0,0-0.1,0-0.1,0c-0.2-0.3-0.4-0.8-0.8-1c-0.2-0.1-0.5-0.2-0.7-0.1
			c-0.1,0-0.3,0.1-0.4,0.3c-0.1,0.1-0.1,0.3-0.1,0.4c0,0.7,0.2,1.7,1,2c0.2,0.1,0.4,0.1,0.6,0.1c0.2,0,0.3-0.1,0.3-0.1
			c0,0,0.1-0.1,0.1-0.1c0.1,0,0.1,0,0.3,0.1c0.9,0.9,4.2,0.6,5.9,0.4l0.2,0C35.4,86.4,35.7,86.4,35.9,86.4z"/>
	</g>
	<g>
		<path class="st0" d="M34.7,79.2c0.3,0.3,0.5,0.7,1,1c0.4,0.3,1,0.5,1.6,0.6c1,0.1,2-0.3,2.5-0.8c0.5-0.5,0.6-1.1,0.5-1.7
			C38.5,78.5,36.8,78.8,34.7,79.2z"/>
		<path d="M37.6,80.9c-0.1,0-0.2,0-0.3,0c-0.6-0.1-1.2-0.3-1.6-0.6c-0.4-0.3-0.7-0.7-1-1c0,0,0-0.1,0-0.1c0,0,0,0,0.1-0.1
			c2.1-0.3,3.9-0.6,5.6-0.9c0,0,0,0,0.1,0c0,0,0,0,0,0.1c0.1,0.8-0.1,1.3-0.6,1.8C39.3,80.5,38.4,80.9,37.6,80.9z M34.8,79.2
			c0.2,0.3,0.5,0.6,0.9,0.9c0.4,0.3,1,0.5,1.6,0.6c0.9,0.1,1.9-0.2,2.5-0.8c0.4-0.4,0.6-0.9,0.5-1.6C38.6,78.6,36.8,78.9,34.8,79.2z
			"/>
	</g>
	<g>
		<path class="st0" d="M36.4,72.1c-0.4-1.8-0.9-3.7-0.5-5.5c0.1-0.3,0.2-0.6,0.4-0.7c0.3-0.2,0.9-0.2,1.1,0.1
			c0.2,0.3,0.3,0.6,0.4,0.9c0.2,1.1,0.4,2.4,0.4,3.5c0,0.6,0.2,1.1,0.4,1.7c0.3,0.7,0.9,1.3,1.3,1.9c0.7,1,1.2,2.2,1.2,3.4
			c0,0.4,0,0.8-0.2,1.2c-0.3,0.4-0.8,0.7-1.3,0.8c-1.1,0.4-2.2,0.6-3.3,0.4c-1.1-0.2-2.2-0.8-2.7-1.8c-0.5-1,0-3.4-0.1-4.5
			c-0.1-0.7-0.7-1.4-1.4-2.7c-1.4-2.5-1.1-3.2-0.5-3.5c0.6-0.4,1.1-0.1,1.5,0.5c0.8,1.4,2.1,4.9,2.1,4.9S36,72.4,36.4,72.1z"/>
		<path d="M37.1,79.8c-0.3,0-0.6,0-0.9-0.1c-1.2-0.2-2.3-0.9-2.7-1.8c-0.3-0.6-0.2-1.9-0.1-3c0-0.6,0.1-1.1,0.1-1.5
			c0-0.5-0.3-1-0.7-1.6c-0.2-0.3-0.4-0.6-0.6-1.1c-1.3-2.4-1.1-3.2-0.4-3.7c0.2-0.2,0.5-0.2,0.8-0.2c0.3,0.1,0.6,0.3,0.8,0.7
			c0.7,1.3,1.9,4.3,2,4.8c0.2,0,0.8-0.2,1.1-0.4l0-0.2c-0.4-1.7-0.8-3.6-0.4-5.3c0.1-0.3,0.2-0.6,0.5-0.8c0.3-0.2,0.9-0.2,1.2,0.1
			c0.2,0.3,0.3,0.6,0.4,0.9c0.2,1.2,0.4,2.5,0.4,3.5c0,0.6,0.2,1.2,0.4,1.7c0.2,0.5,0.5,0.9,0.9,1.3c0.1,0.2,0.3,0.3,0.4,0.5
			c0.8,1,1.2,2.2,1.2,3.4c0,0.4,0,0.8-0.3,1.2c-0.3,0.5-0.9,0.7-1.4,0.9C38.7,79.7,37.8,79.8,37.1,79.8z M32.1,67.1
			c-0.2,0-0.3,0-0.5,0.1c-0.5,0.3-0.9,0.9,0.5,3.4c0.2,0.4,0.4,0.7,0.6,1c0.4,0.7,0.7,1.2,0.8,1.7c0,0.4,0,0.9-0.1,1.5
			c-0.1,1.1-0.2,2.3,0.1,2.9c0.4,0.9,1.4,1.6,2.6,1.8c1,0.2,2.1,0,3.3-0.4c0.5-0.2,1-0.4,1.3-0.8c0.2-0.4,0.2-0.8,0.2-1.1
			c0-1.2-0.5-2.3-1.2-3.3c-0.1-0.2-0.3-0.3-0.4-0.5c-0.4-0.4-0.7-0.9-0.9-1.4c-0.2-0.5-0.4-1.1-0.4-1.7c0-1-0.1-2.3-0.4-3.5
			c-0.1-0.3-0.1-0.6-0.3-0.9c-0.2-0.2-0.7-0.2-1-0.1c-0.2,0.1-0.3,0.4-0.4,0.7c-0.4,1.7,0,3.5,0.4,5.2l0.1,0.3c0,0,0,0.1,0,0.1
			c-0.4,0.2-1.3,0.4-1.3,0.4c0,0-0.1,0-0.1-0.1c0,0-1.3-3.5-2.1-4.9c-0.2-0.3-0.4-0.5-0.7-0.6C32.2,67.1,32.2,67.1,32.1,67.1z"/>
	</g>
	<g>
		<path d="M35.6,75c-0.1,0-0.2,0.1-0.2,0.2c0,0.1,0,0.1,0,0.2c0,0.1,0.1,0.2,0.2,0.3c0.1,0.1,0.2,0.1,0.3,0c0-0.1,0-0.1,0-0.2
			c0-0.1,0-0.2-0.1-0.3C35.8,75,35.7,75,35.6,75z"/>
	</g>
	<g>
		<path d="M38.7,74.2c-0.1,0-0.2,0.1-0.2,0.2c0,0.1,0,0.1,0,0.2c0,0.1,0.1,0.2,0.2,0.3c0.1,0.1,0.2,0.1,0.3,0c0-0.1,0-0.1,0-0.2
			c0-0.1,0-0.2-0.1-0.3C38.9,74.2,38.8,74.2,38.7,74.2z"/>
	</g>
	<g>
		<path d="M38,76.9c-0.1,0-0.1,0-0.2,0c-0.2,0-0.3-0.1-0.5-0.2c0,0-0.1-0.1,0-0.1c0,0,0.1-0.1,0.1,0c0.1,0.1,0.3,0.1,0.4,0.2
			c0.1,0,0.1,0,0.2,0c0.1,0,0.2-0.1,0.2-0.2c0-0.1,0-0.1,0.1-0.2c0-0.1,0-0.1,0.1-0.2c0,0,0.1-0.1,0.1,0c0,0,0.1,0.1,0,0.1
			c0,0.1,0,0.1-0.1,0.2c0,0.1,0,0.1-0.1,0.2C38.3,76.7,38.2,76.8,38,76.9C38,76.9,38,76.9,38,76.9z"/>
	</g>
	<g>
		<path d="M38.2,77.7C38.2,77.7,38.1,77.6,38.2,77.7c-0.1-0.3-0.1-0.6-0.2-0.9c0,0,0-0.1,0.1-0.1c0,0,0.1,0,0.1,0.1
			C38.2,77,38.3,77.3,38.2,77.7C38.3,77.6,38.3,77.7,38.2,77.7C38.2,77.7,38.2,77.7,38.2,77.7z"/>
	</g>
	<g>
		<path d="M37.3,72C37.2,72,37.2,72,37.3,72c-0.1,0-0.2-0.1-0.2-0.2c-0.4-1.4-0.5-2.8-0.4-4.2c0-0.1,0-0.2,0.1-0.3
			c0.1-0.1,0.2-0.2,0.3-0.1c0.1,0,0.1,0.1,0.2,0.2c0.1,0.4,0.1,0.8,0.1,1.2l0,0.1c0,0.9,0.1,1.8,0.3,2.7
			C37.6,71.6,37.6,71.9,37.3,72C37.3,72,37.3,72,37.3,72C37.3,72,37.3,72,37.3,72z M37.3,72L37.3,72L37.3,72z M36.9,67.2
			c-0.1,0-0.1,0-0.2,0.1c0,0.1-0.1,0.2-0.1,0.3c-0.1,1.4,0.1,2.8,0.4,4.2c0,0.1,0.1,0.1,0.1,0.2c0,0,0,0,0.1,0
			c0.2-0.1,0.3-0.3,0.2-0.6c-0.1-0.9-0.2-1.8-0.3-2.7l0-0.1c0-0.4,0-0.8-0.1-1.1C37.1,67.3,37,67.2,36.9,67.2
			C36.9,67.2,36.9,67.2,36.9,67.2z"/>
	</g>
	<g>
		<path d="M34.3,73c-0.3,0-0.4-0.2-0.5-0.4c-0.3-0.9-0.7-1.7-1.1-2.5l0-0.1c-0.2-0.3-0.4-0.7-0.4-1.1c0-0.1,0-0.2,0-0.3
			c0.1-0.1,0.2-0.1,0.3,0c0.1,0.1,0.1,0.1,0.2,0.2c0.8,1.2,1.3,2.5,1.7,3.9c0,0.1,0,0.2,0,0.2C34.4,72.9,34.4,72.9,34.3,73L34.3,73
			C34.3,73,34.3,73,34.3,73z M34.4,72.9L34.4,72.9L34.4,72.9z M32.4,68.6c0,0-0.1,0-0.1,0c-0.1,0.1,0,0.2,0,0.2
			c0.1,0.4,0.3,0.7,0.4,1.1l0,0.1c0.4,0.8,0.8,1.7,1.1,2.5c0.1,0.3,0.2,0.4,0.5,0.4l0,0c0,0,0,0,0,0c0,0,0-0.1,0-0.2
			c-0.4-1.4-0.9-2.7-1.7-3.9c-0.1-0.1-0.1-0.2-0.2-0.2C32.5,68.6,32.5,68.6,32.4,68.6z"/>
	</g>
	<g>
		<path d="M40,82C40,82,40,82,40,82C40,82,40,82,40,82c0-0.4,0-0.7,0-1.1c0,0,0,0,0,0c0,0,0,0,0,0C40,81.3,40,81.6,40,82
			C40,82,40,82,40,82z"/>
	</g>
	<g>
		<path d="M39.2,82.3C39.2,82.3,39.2,82.3,39.2,82.3C39.2,82.3,39.2,82.2,39.2,82.3c0-0.2,0-0.5,0-0.7c0,0,0,0,0,0c0,0,0,0,0,0
			C39.3,81.8,39.3,82,39.2,82.3C39.3,82.2,39.2,82.3,39.2,82.3z"/>
	</g>
	<g>
		<path d="M39.6,83.4C39.6,83.4,39.6,83.4,39.6,83.4C39.6,83.4,39.5,83.4,39.6,83.4l0-0.6c0,0,0,0,0,0c0,0,0,0,0,0L39.6,83.4
			C39.6,83.4,39.6,83.4,39.6,83.4z"/>
	</g>
</g>
<g>
	<g>
		<path class="st0" d="M64.3,13.4C64,19.3,64,24.3,64.1,29.7l-5.3,0l-0.4-16.4L64.3,13.4z"/>
		<path d="M58.7,29.8C58.7,29.8,58.7,29.8,58.7,29.8l-0.5-16.5c0,0,0,0,0-0.1c0,0,0,0,0.1,0c0,0,0,0,0,0l6,0c0,0,0,0,0.1,0
			c0,0,0,0,0,0.1c-0.4,6-0.3,11-0.3,16.3c0,0,0,0,0,0.1c0,0,0,0-0.1,0L58.7,29.8C58.7,29.8,58.7,29.8,58.7,29.8z M58.4,13.4
			l0.4,16.2l5.2,0c-0.1-5.3-0.1-10.3,0.3-16.2L58.4,13.4z"/>
	</g>
	<g>
		<path class="st0" d="M60.6,12.2c1.3,0,2.6-0.1,3.9,0c0.8,0,1.7,0.1,2.1,0.4c0.4,0.3,0.1,0.8-0.6,0.9c-0.3,0.1-0.6,0.1-0.9,0.1
			c-2.6,0-5.3,0-7.9,0c-0.3,0-0.6,0-0.8-0.1c-0.5-0.2-0.6-0.5-0.6-0.8c0-0.1,0-0.2,0.1-0.2c0.1-0.1,0.2-0.1,0.4-0.1
			c0.5-0.1,1.1-0.1,1.7-0.1C59,12.3,60,12.3,60.6,12.2z"/>
		<path d="M60.5,13.7c-1.1,0-2.2,0-3.3,0c-0.3,0-0.6,0-0.9-0.1c-0.5-0.1-0.7-0.4-0.7-0.9c0-0.1,0-0.2,0.1-0.3
			c0.1-0.1,0.2-0.1,0.4-0.1c0.6-0.1,1.2-0.1,1.7-0.1c1,0,2,0,2.6,0l0,0c1.3,0,2.6-0.1,3.9,0c0.8,0,1.7,0.1,2.2,0.4
			c0.2,0.1,0.2,0.3,0.2,0.5c-0.1,0.3-0.4,0.5-0.8,0.6c-0.3,0.1-0.6,0.1-0.9,0.1C63.6,13.7,62.1,13.7,60.5,13.7z M57.5,12.3
			c-0.4,0-0.8,0-1.2,0.1c-0.1,0-0.2,0-0.3,0.1c-0.1,0-0.1,0.1-0.1,0.2c0,0.3,0,0.6,0.5,0.8c0.2,0.1,0.6,0.1,0.8,0.1
			c2.6,0,5.3,0,7.9,0c0.3,0,0.6,0,0.9-0.1c0.4-0.1,0.6-0.3,0.7-0.5c0-0.1,0-0.2-0.1-0.3c-0.4-0.3-1.4-0.4-2.1-0.4
			c-1.3,0-2.6,0-3.9,0l0,0c-0.6,0-1.6,0-2.6,0C57.8,12.3,57.7,12.3,57.5,12.3z"/>
	</g>
	<g>
		<path class="st0" d="M60.6,28.3c1.3,0,2.6-0.1,3.9,0c0.8,0,1.7,0.1,2.1,0.4c0.4,0.3,0.1,0.8-0.6,0.9c-0.3,0.1-0.6,0.1-0.9,0.1
			c-2.6,0-5.3,0-7.9,0c-0.3,0-0.6,0-0.8-0.1c-0.5-0.2-0.6-0.5-0.6-0.8c0-0.1,0-0.2,0.1-0.2c0.1-0.1,0.2-0.1,0.4-0.1
			c0.5-0.1,1.1-0.1,1.7-0.1C59,28.3,60,28.3,60.6,28.3z"/>
		<path d="M60.5,29.8c-1.1,0-2.2,0-3.3,0c-0.3,0-0.6,0-0.9-0.1c-0.5-0.1-0.7-0.4-0.7-0.9c0-0.1,0-0.2,0.1-0.3
			c0.1-0.1,0.2-0.1,0.4-0.1c0.6-0.1,1.2-0.1,1.7-0.1c1,0,2,0,2.6,0l0,0c1.3,0,2.6-0.1,3.9,0c0.8,0,1.7,0.1,2.2,0.4
			c0.2,0.1,0.2,0.3,0.2,0.5c-0.1,0.3-0.4,0.5-0.8,0.6c-0.3,0.1-0.6,0.1-0.9,0.1C63.6,29.8,62.1,29.8,60.5,29.8z M57.5,28.4
			c-0.4,0-0.8,0-1.2,0.1c-0.1,0-0.2,0-0.3,0.1c-0.1,0-0.1,0.1-0.1,0.2c0,0.3,0,0.6,0.5,0.8c0.2,0.1,0.6,0.1,0.8,0.1
			c2.6,0,5.3,0,7.9,0c0.3,0,0.6,0,0.9-0.1c0.4-0.1,0.6-0.3,0.7-0.5c0-0.1,0-0.2-0.1-0.3c-0.4-0.3-1.4-0.4-2.1-0.4
			c-1.3,0-2.6,0-3.9,0l0,0c-0.6,0-1.6,0-2.6,0C57.8,28.4,57.7,28.4,57.5,28.4z"/>
	</g>
	<g>
		<path d="M59,14.7C58.9,14.7,58.9,14.7,59,14.7C58.9,14.7,58.9,14.6,59,14.7c1.5-0.1,3.1-0.1,4.7-0.2c0,0,0,0,0,0c0,0,0,0,0,0
			C62.1,14.6,60.5,14.7,59,14.7C59,14.7,59,14.7,59,14.7z"/>
	</g>
	<g>
		<path d="M59.9,15.8c-0.3,0-0.6,0-0.9,0c0,0,0,0,0,0c0,0,0,0,0,0c1.5,0,3,0,4.5-0.2c0,0,0,0,0,0c0,0,0,0,0,0
			C62.4,15.7,61.1,15.8,59.9,15.8z"/>
	</g>
	<g>
		<path d="M59.1,16.9C59.1,16.9,59.1,16.9,59.1,16.9C59.1,16.9,59.1,16.8,59.1,16.9c1.4-0.1,2.9-0.1,4.4-0.4c0,0,0,0,0,0
			c0,0,0,0,0,0C62,16.9,60.5,16.9,59.1,16.9C59.1,16.9,59.1,16.9,59.1,16.9z"/>
	</g>
	<g>
		<path d="M60.3,17.9c-0.4,0-0.8,0-1.2,0c0,0,0,0,0,0c0,0,0,0,0,0c1.4,0.1,2.9,0,4.3-0.2c0,0,0,0,0,0c0,0,0,0,0,0
			C62.4,17.8,61.4,17.9,60.3,17.9z"/>
	</g>
	<g>
		<path d="M60.2,19c-0.3,0-0.7,0-1,0c0,0,0,0,0,0c0,0,0,0,0,0c1.4,0.1,2.9,0,4.2-0.3c0,0,0,0,0,0c0,0,0,0,0,0
			C62.4,18.9,61.3,19,60.2,19z"/>
	</g>
	<g>
		<path d="M60.3,19.9c-0.4,0-0.7,0-1.1,0c0,0,0,0,0,0c0,0,0,0,0,0c1.3,0,2.8,0.1,4.3-0.3c0,0,0,0,0,0s0,0,0,0
			C62.4,19.9,61.3,19.9,60.3,19.9z"/>
	</g>
	<g>
		<path d="M56.5,20.9C56.5,20.9,56.5,20.9,56.5,20.9C56.5,20.9,56.4,20.8,56.5,20.9c0.1-2.4,0.1-4.8-0.1-7.2c0,0,0-0.1,0.1-0.1
			c0,0,0.1,0,0.1,0.1C56.8,16.1,56.8,18.5,56.5,20.9C56.6,20.9,56.5,20.9,56.5,20.9z"/>
	</g>
	<g>
		<path class="st0" d="M56.3,20.9c0.3,0,0.6,0,0.8,0.1c0.1,0.1,0.2,0.2,0.3,0.4c0.1,0.3,0.1,0.6-0.1,0.9c-0.1,0.2-0.3,0.3-0.6,0.3
			c-0.2,0-0.4,0.1-0.5,0c-0.1,0-0.2-0.1-0.3-0.1c-0.3-0.2-0.4-0.5-0.4-0.9C55.6,21.3,55.8,20.9,56.3,20.9z"/>
		<path d="M56.4,22.7c-0.1,0-0.1,0-0.2,0c-0.1,0-0.2-0.1-0.3-0.1c-0.3-0.2-0.5-0.6-0.4-0.9c0-0.4,0.3-0.8,0.8-0.8
			c0.3,0,0.6,0,0.9,0.1c0.1,0.1,0.2,0.2,0.3,0.4c0.1,0.4,0.1,0.7-0.1,0.9c-0.1,0.2-0.3,0.3-0.6,0.4C56.6,22.7,56.5,22.7,56.4,22.7z
			 M56.5,21c-0.1,0-0.2,0-0.2,0l0,0c-0.4,0-0.6,0.4-0.7,0.7c0,0.3,0.1,0.6,0.4,0.8c0.1,0.1,0.2,0.1,0.2,0.1c0.1,0,0.3,0,0.5,0
			c0.2-0.1,0.4-0.2,0.5-0.3c0.2-0.3,0.1-0.6,0-0.8c-0.1-0.2-0.1-0.3-0.2-0.3C56.9,21,56.7,21,56.5,21z M56.3,20.9L56.3,20.9
			L56.3,20.9z"/>
	</g>
	<g>
		<path d="M61.2,20.9c-0.7,0-1.3-0.1-2-0.2c0,0,0,0,0,0c0,0,0,0,0,0c1.4,0.2,2.7,0.2,4.1,0c0,0,0,0,0,0c0,0,0,0,0,0
			C62.7,20.9,62,20.9,61.2,20.9z"/>
	</g>
	<g>
		<path d="M61.4,22c-0.7,0-1.4-0.1-2.1-0.2c0,0,0,0,0,0c0,0,0,0,0,0c1.4,0.2,2.7,0.2,4.1,0c0,0,0,0,0,0c0,0,0,0,0,0
			C62.7,21.9,62.1,22,61.4,22z"/>
	</g>
	<g>
		<path d="M61,23c-0.6,0-1.2,0-1.8-0.1c0,0,0,0,0,0c0,0,0,0,0,0c1.4,0.2,2.9,0.2,4.3-0.1c0,0,0,0,0,0c0,0,0,0,0,0
			C62.7,22.9,61.8,23,61,23z"/>
	</g>
	<g>
		<path d="M61.3,24.1c-0.7,0-1.4-0.1-2.1-0.2c0,0,0,0,0,0c0,0,0,0,0,0c1.4,0.3,2.9,0.3,4.3,0c0,0,0,0,0,0c0,0,0,0,0,0
			C62.8,24,62.1,24.1,61.3,24.1z"/>
	</g>
	<g>
		<path d="M61.7,25.1c-0.8,0-1.6-0.1-2.4-0.3c0,0,0,0,0,0c0,0,0,0,0,0c1.4,0.3,2.8,0.4,4.2,0.1c0,0,0,0,0,0c0,0,0,0,0,0
			C62.9,25,62.3,25.1,61.7,25.1z"/>
	</g>
	<g>
		<path d="M61.6,26.1c-0.8,0-1.6-0.1-2.4-0.3c0,0,0,0,0,0c0,0,0,0,0,0c1.4,0.3,2.9,0.4,4.3,0.1c0,0,0,0,0,0c0,0,0,0,0,0
			C62.9,26,62.3,26.1,61.6,26.1z"/>
	</g>
	<g>
		<path d="M61.8,27.2c-0.8,0-1.6-0.1-2.4-0.3c0,0,0,0,0,0c0,0,0,0,0,0c1.3,0.3,2.7,0.3,4.1,0.1c0,0,0,0,0,0c0,0,0,0,0,0
			C62.9,27.1,62.3,27.2,61.8,27.2z"/>
	</g>
</g>
<g>
	<g>
		<path class="st0" d="M88.2,25.1c-3.5,0-7.1,0-10.6,0c-0.4,0-0.9,0-1.3,0.2c-0.6,0.4-0.7,1.3-0.3,1.9c0.3,0.6,1.1,1.4,1.8,1.8
			c0.3,0.2,0.6,0.4,1,0.5c1.1,0.4,2.3,0.4,3.4,0.3c1.3-0.1,2.6-0.2,3.8-0.6c0.4-0.1,0.8-0.3,1.2-0.6C88,28,88.2,26.4,88.2,25.1z"/>
		<path d="M80.8,30c-0.7,0-1.4-0.1-2.1-0.3c-0.4-0.1-0.7-0.3-1-0.5c-0.6-0.4-1.4-1.2-1.8-1.8c-0.3-0.6-0.3-1.6,0.4-2
			c0.4-0.3,0.9-0.3,1.3-0.3l10.6,0c0,0,0,0,0,0c0,0,0.1,0,0.1,0.1c0.1,1.3-0.2,3-1.2,3.7c-0.3,0.2-0.7,0.4-1.2,0.6
			c-1.2,0.4-2.5,0.5-3.8,0.6C81.7,30,81.2,30,80.8,30z M88.1,25.2l-10.5,0c-0.4,0-0.9,0-1.2,0.2c-0.6,0.4-0.6,1.2-0.3,1.8
			c0.3,0.6,1.2,1.4,1.7,1.8c0.3,0.2,0.6,0.4,1,0.5c1.1,0.4,2.3,0.3,3.4,0.3c1.2-0.1,2.5-0.2,3.7-0.6c0.5-0.2,0.8-0.3,1.1-0.6
			C87.9,28,88.1,26.4,88.1,25.2z"/>
	</g>
	<g>
		<path class="st0" d="M75.4,27.3c3.5-1,7.3-1.2,10.9-0.7c1.1,0.2,2.2,0.4,3.2,0.9c0.1,0.1,0.3,0.1,0.3,0.3c0.1,0.2,0,0.3-0.1,0.5
			c-0.5,0.9-1.6,1-2.6,1c-3.2,0.1-6.4,0-9.6-0.3c-0.6-0.1-1.2-0.1-1.7-0.3c-0.3-0.1-0.7-0.2-0.9-0.5C74.8,28,74.8,27.5,75.4,27.3z"
			/>
		<path d="M84.4,29.5c-2.3,0-4.6-0.1-6.8-0.3c-0.6-0.1-1.2-0.1-1.7-0.3c-0.3-0.1-0.7-0.2-0.9-0.6c-0.1-0.2-0.2-0.5-0.1-0.7
			c0.1-0.1,0.2-0.3,0.5-0.4l0,0c3.5-1,7.3-1.2,10.9-0.7c0.9,0.1,2.1,0.4,3.2,0.9c0.1,0.1,0.3,0.2,0.4,0.3c0.1,0.2,0,0.4-0.1,0.6
			c-0.5,0.9-1.7,1.1-2.6,1.1C86.3,29.5,85.4,29.5,84.4,29.5z M75.4,27.4L75.4,27.4c-0.2,0.1-0.3,0.2-0.4,0.3c-0.1,0.2,0,0.4,0.1,0.5
			c0.2,0.3,0.5,0.4,0.8,0.5c0.5,0.2,1.1,0.2,1.7,0.3c3.2,0.3,6.4,0.4,9.5,0.3c0.9,0,2.1-0.2,2.5-1c0.1-0.1,0.1-0.3,0.1-0.4
			c-0.1-0.1-0.2-0.2-0.3-0.2c-1.1-0.5-2.3-0.8-3.2-0.9C82.7,26.2,78.9,26.4,75.4,27.4z"/>
	</g>
	<g>
		<path class="st0" d="M87.8,25c1.7-0.1,1.7-0.1,3.3,0c0.2,0,0.4,0,0.5,0.2c0.1,0.1,0.1,0.3,0.1,0.4c-0.1,1.1-0.2,3.7-1.6,4.7
			c-1.6,1.1-5.5,0.7-13.6,0.7c-2.6,0-3.5-0.9-3.9-4.8c0-0.3-0.1-0.6,0.1-0.8c0.2-0.2,0.5-0.2,0.8-0.2c1.4,0,1.9-0.1,3.4-0.1
			c0.3,0,0.5,0.4,0.6,0.7c0.1,0.4,0.2,0.9,0.3,1.3c0,0.2,0.1,0.4,0.2,0.5c0.2,0.2,0.5,0.2,0.8,0.2c2.1,0,6.6,0,7.2,0
			c0.9-0.1,0.9-0.8,1.2-1.9c0-0.2,0.1-0.4,0.2-0.6C87.4,25.2,87.6,25.1,87.8,25z"/>
		<path d="M85,31.2c-0.9,0-1.9,0-3.1,0c-1.6,0-3.3-0.1-5.4-0.1c-1.4,0-2.3-0.3-2.8-1c-0.6-0.7-0.9-1.8-1.2-3.9
			c0-0.3-0.1-0.6,0.1-0.9c0.2-0.2,0.5-0.3,0.8-0.3c0.5,0,0.9,0,1.3-0.1c0.6,0,1.2-0.1,2.1,0c0,0,0,0,0,0c0.3,0,0.5,0.3,0.6,0.8
			c0.1,0.4,0.2,0.9,0.3,1.3c0,0.2,0.1,0.4,0.2,0.5c0.2,0.2,0.5,0.2,0.7,0.2c2.3,0,6.7,0,7.2,0c0.7-0.1,0.8-0.6,1-1.5
			c0-0.1,0-0.2,0.1-0.4c0,0,0-0.1,0-0.1c0-0.2,0.1-0.4,0.2-0.6c0.1-0.2,0.4-0.4,0.6-0.4l0,0c0.4,0,0.8,0,1,0c0.8,0,1.1-0.1,2.3,0
			c0.1,0,0.4,0,0.5,0.2c0.1,0.1,0.1,0.3,0.1,0.5c0,0.2,0,0.4-0.1,0.6c-0.1,1.3-0.3,3.3-1.5,4.1C89.3,31.1,87.6,31.2,85,31.2z
			 M76.2,25.2c-0.5,0-1,0-1.4,0c-0.4,0-0.8,0-1.3,0.1c-0.3,0-0.6,0-0.7,0.2c-0.2,0.2-0.1,0.5-0.1,0.7c0.5,3.8,1.2,4.7,3.9,4.7
			c2,0,3.8,0,5.4,0.1c4.5,0.1,7,0.1,8.2-0.7c1.2-0.8,1.3-2.7,1.5-4c0-0.2,0-0.4,0.1-0.6c0-0.1,0-0.3,0-0.4c-0.1-0.1-0.3-0.1-0.4-0.1
			c-1.2-0.1-1.6-0.1-2.3,0c-0.3,0-0.6,0-1,0l0,0c-0.2,0-0.3,0.1-0.4,0.3c-0.1,0.2-0.1,0.3-0.2,0.5c0,0,0,0.1,0,0.1
			c0,0.1-0.1,0.2-0.1,0.4c-0.2,0.9-0.3,1.6-1.2,1.6c-0.6,0-5.1,0-7.2,0c-0.3,0-0.6,0-0.9-0.3c-0.1-0.2-0.2-0.4-0.2-0.6
			c-0.1-0.4-0.2-0.9-0.3-1.3c-0.1-0.3-0.2-0.6-0.5-0.7C76.7,25.2,76.4,25.2,76.2,25.2z M87.8,25L87.8,25L87.8,25z"/>
	</g>
	<g>
		<path d="M77.2,27.7C77.2,27.7,77.2,27.7,77.2,27.7l-0.3-1.2c0-0.1,0-0.2-0.1-0.3c-0.2-0.3-0.6-0.3-1-0.3l-2.7,0.1c0,0,0,0,0,0
			c0,0,0,0,0,0c0,0,0,0,0,0l2.7-0.1c0.4,0,0.8,0,1,0.4c0.1,0.1,0.1,0.2,0.1,0.3L77.2,27.7C77.2,27.6,77.2,27.7,77.2,27.7
			C77.2,27.7,77.2,27.7,77.2,27.7z"/>
	</g>
	<g>
		<path d="M80.3,28.8c-0.4,0-0.8,0-1.2,0c-0.5,0-1.1-0.1-1.4-0.4c0,0,0,0,0,0c0,0,0,0,0,0c0.4,0.3,0.9,0.4,1.4,0.4
			c0.6,0,1.3,0,1.9,0l3.8,0c0.5,0,1.1,0,1.6-0.2c0.4-0.2,0.9-0.5,1.1-1.1c0,0,0,0,0,0c0,0,0,0,0,0c-0.1,0.6-0.7,1-1.1,1.1
			c-0.5,0.2-1.1,0.2-1.6,0.2l-3.8,0C80.7,28.8,80.5,28.8,80.3,28.8z"/>
	</g>
	<g>
		<path d="M87.6,26.8C87.6,26.8,87.6,26.8,87.6,26.8C87.6,26.8,87.6,26.8,87.6,26.8c0-0.3,0.1-0.6,0.2-0.8c0.1-0.1,0.2-0.2,0.2-0.2
			c0.1,0,0.2-0.1,0.3-0.1c1-0.1,2-0.1,2.9,0.1c0,0,0,0,0,0c0,0,0,0,0,0c-1-0.1-1.9-0.1-2.9-0.1c-0.1,0-0.2,0-0.3,0.1
			c-0.1,0-0.2,0.1-0.2,0.2C87.7,26.2,87.7,26.5,87.6,26.8C87.7,26.8,87.6,26.8,87.6,26.8z"/>
	</g>
	<g>
		<path d="M73.3,26.5C73.3,26.5,73.3,26.5,73.3,26.5C73.3,26.4,73.3,26.4,73.3,26.5l1.2-0.1c0,0,0,0,0,0c0,0,0,0,0,0L73.3,26.5
			C73.3,26.5,73.3,26.5,73.3,26.5z"/>
	</g>
</g>
<g>
	<g>
		<path class="st0" d="M39.4,50.9c-0.4-0.9-0.5-1.9-0.5-2.9c0.1-2.7,1-5.3,2.7-7.4c0.8-0.9,1.7-1.8,2.3-3.1c1.9,1,4.2,1.2,6.3,0.5
			c1,1.7,1.9,3.5,1.9,5.5c0,0.7-0.1,1.3-0.4,2c-0.2,0.4-0.4,0.9-0.6,1.6c-0.5,1.1-1.2,2.7-0.5,3.7c0.5,0.9-0.5,1.3-1-0.4
			c-0.1-0.2-0.4,0-0.6,0.2c-0.5,0.5-1.2,0.6-1.9,0.6c-1.1,0.1-2.3,0.1-3.4,0.2C42.1,51.4,40.6,51.5,39.4,50.9z"/>
		<path d="M42.1,51.5c-1,0-1.9-0.1-2.8-0.6c0,0,0,0,0,0c-0.4-0.8-0.6-1.8-0.5-3c0.1-2.7,1-5.3,2.7-7.4c0.2-0.2,0.4-0.5,0.6-0.7
			c0.6-0.7,1.2-1.4,1.7-2.4c0,0,0,0,0,0c0,0,0,0,0.1,0c1.9,1,4.2,1.2,6.2,0.5c0,0,0.1,0,0.1,0c0.9,1.6,2,3.5,1.9,5.5
			c0,0.7-0.1,1.3-0.4,2c-0.1,0.4-0.3,0.8-0.6,1.3L51,47.1c-0.5,1.1-1.1,2.5-0.5,3.5c0.2,0.3,0.2,0.6,0.1,0.7
			c-0.1,0.1-0.2,0.2-0.3,0.1c-0.4,0-0.7-0.5-0.9-1.2c0,0,0,0-0.1,0c-0.1,0-0.2,0.1-0.4,0.3c-0.5,0.5-1.2,0.6-2,0.7l-3.4,0.2
			C43,51.5,42.6,51.5,42.1,51.5z M39.4,50.8c1.2,0.6,2.6,0.6,4,0.5l3.4-0.2c0.7,0,1.4-0.1,1.9-0.6c0.1-0.1,0.3-0.3,0.5-0.3
			c0.1,0,0.1,0,0.2,0.1c0,0,0,0,0,0c0.2,0.7,0.6,1,0.8,1.1c0.1,0,0.1,0,0.2-0.1c0.1-0.1,0.1-0.3-0.1-0.6c-0.6-1,0-2.6,0.5-3.7
			l0.1-0.3c0.2-0.5,0.4-1,0.5-1.3c0.3-0.8,0.4-1.3,0.4-2c0-2-1-3.8-1.9-5.4c-2,0.7-4.3,0.5-6.2-0.5c-0.4,1-1.1,1.7-1.7,2.4
			c-0.2,0.2-0.4,0.5-0.6,0.7c-1.7,2.1-2.6,4.7-2.7,7.3C38.9,49.1,39.1,50,39.4,50.8z"/>
	</g>
	<g>
		<path class="st0" d="M43.3,36.6c-0.2,0.5-0.4,1.1,0,1.5c0.1,0.2,0.4,0.3,0.6,0.4c1.4,0.7,3.2,0.6,4.8,0.4c0.5-0.1,1-0.1,1.4-0.4
			c0.4-0.2,0.8-0.6,0.7-1.1c0-0.2-0.1-0.4-0.2-0.6c-0.1-0.1-0.1-0.2-0.2-0.3c-0.1,0-0.2,0-0.3,0c-1.6,0-3.3,0.2-4.9-0.1
			c-0.3-0.1-0.6-0.2-1-0.2C43.9,36.3,43.4,36.3,43.3,36.6z"/>
		<path d="M46.7,39.1c-1,0-2-0.1-2.9-0.5c-0.2-0.1-0.4-0.2-0.6-0.4c-0.3-0.4-0.2-1,0-1.6l0,0c0.1-0.3,0.6-0.4,1-0.4
			c0.3,0,0.5,0.1,0.8,0.1c0.1,0,0.1,0,0.2,0c1.2,0.3,2.5,0.2,3.8,0.2c0.4,0,0.7,0,1.1,0c0.1,0,0.2,0,0.3,0c0.2,0.1,0.2,0.2,0.3,0.3
			c0.1,0.2,0.2,0.4,0.2,0.6c0,0.4-0.3,0.9-0.8,1.1c-0.4,0.2-1,0.3-1.5,0.4C48,39,47.4,39.1,46.7,39.1z M43.4,36.6L43.4,36.6
			c-0.2,0.5-0.3,1,0,1.4c0.1,0.2,0.4,0.3,0.5,0.4c1.5,0.7,3.3,0.6,4.7,0.4c0.5-0.1,1-0.1,1.4-0.3c0.4-0.2,0.7-0.6,0.7-1
			c0-0.2-0.1-0.4-0.2-0.6c-0.1-0.1-0.1-0.2-0.2-0.2c-0.1,0-0.2,0-0.2,0c-0.4,0-0.7,0-1.1,0c-1.3,0.1-2.6,0.1-3.8-0.2
			c-0.1,0-0.1,0-0.2,0c-0.3-0.1-0.5-0.1-0.8-0.1C44,36.4,43.5,36.4,43.4,36.6z"/>
	</g>
	<g>
		<g>
			<path class="st0" d="M51.5,30.2c-0.1-0.6-0.1-0.5-0.1-1.2c0.1-0.8,0-1.6-0.2-2.3c0-0.2-0.1-0.4-0.3-0.4c-0.1,0-0.2,0-0.3,0.1
				c-0.7,0.5-1.3,1-1.9,1.6c-0.1,0.1-0.1,0.2-0.2,0.2c-1-0.3-2.1-0.2-3.1,0c-0.1-0.1-0.1-0.2-0.2-0.3c-0.6-0.6-1.2-1.1-1.9-1.6
				c-0.1-0.1-0.2-0.1-0.3-0.1c-0.2,0-0.3,0.2-0.3,0.4c-0.2,0.8-0.3,1.5-0.2,2.3c0.1,0.6,0.1,0.4,0.1,1c-0.2,0.5-1.4,2.7-1.3,4.2
				c0.1,1,0.9,1.8,1.7,2.3c1.9,1.2,4.2,1.3,6.5,0.8c1.5-0.4,3.2-2,3.2-3.5C52.7,31.7,51.7,30.5,51.5,30.2z"/>
			<path d="M47,37.6c-1.5,0-2.8-0.4-4-1.1c-0.8-0.5-1.7-1.3-1.8-2.4c-0.1-1.4,0.9-3.4,1.2-4.1c0,0,0-0.1,0.1-0.1c0-0.3,0-0.4,0-0.5
				c0-0.1,0-0.2-0.1-0.4c-0.1-0.8,0-1.6,0.2-2.3c0.1-0.3,0.2-0.4,0.4-0.4c0.1,0,0.2,0.1,0.3,0.1c0.7,0.5,1.3,1,1.9,1.6
				c0.1,0.1,0.1,0.2,0.2,0.2c1-0.3,2.1-0.3,3,0c0.1-0.1,0.1-0.1,0.2-0.2c0.6-0.6,1.2-1.2,1.9-1.6c0.1-0.1,0.2-0.1,0.3-0.1
				c0.2,0,0.3,0.2,0.4,0.4c0.2,0.8,0.3,1.6,0.2,2.3c0,0.4,0,0.5,0,0.7c0,0.1,0,0.2,0.1,0.4c0,0.1,0.1,0.1,0.1,0.2
				c0.3,0.5,1,1.6,1,3.4c0,1.5-1.7,3.2-3.2,3.6C48.6,37.5,47.8,37.6,47,37.6z M43,26.4C43,26.4,43,26.4,43,26.4
				c-0.1,0-0.2,0.2-0.3,0.3c-0.2,0.7-0.3,1.5-0.2,2.3c0,0.2,0,0.3,0.1,0.4c0,0.1,0,0.2,0,0.6c0,0,0,0,0,0c0,0,0,0.1-0.1,0.1
				c-0.3,0.6-1.3,2.6-1.2,4c0.1,1,1,1.8,1.7,2.2c1.8,1.1,4,1.4,6.4,0.7c1.4-0.4,3.1-2,3.1-3.4c0-1.7-0.7-2.7-1-3.3
				c-0.1-0.1-0.1-0.2-0.2-0.3c0,0,0,0,0,0c0-0.2,0-0.3-0.1-0.4c0-0.2-0.1-0.3,0-0.8c0.1-0.8,0-1.5-0.2-2.3c0-0.1-0.1-0.3-0.3-0.3
				c-0.1,0-0.1,0-0.2,0.1c-0.7,0.5-1.3,1-1.9,1.6c-0.1,0.1-0.1,0.2-0.2,0.2c0,0-0.1,0-0.1,0c-1-0.3-2.1-0.2-3.1,0c0,0-0.1,0-0.1,0
				c-0.1-0.1-0.1-0.2-0.2-0.3c-0.6-0.6-1.2-1.1-1.9-1.6C43.2,26.4,43.1,26.4,43,26.4z"/>
		</g>
	</g>
	<g>
		<path d="M44.9,31.2c-0.1,0-0.3,0.1-0.3,0.1c-0.1,0.1-0.1,0.2-0.1,0.3c0,0.1,0,0.2,0.1,0.3c0.1,0.1,0.2,0.2,0.3,0.1
			c0.2,0,0.2-0.2,0.2-0.4c0-0.1,0-0.2,0-0.3C45.1,31.4,45.1,31.2,44.9,31.2z"/>
	</g>
	<g>
		<path d="M49.3,31.2c-0.1,0-0.3,0.1-0.3,0.1c-0.1,0.1-0.1,0.2-0.1,0.3c0,0.1,0,0.2,0.1,0.3c0.1,0.1,0.2,0.2,0.3,0.1
			c0.2,0,0.2-0.2,0.2-0.4c0-0.1,0-0.2,0-0.3C49.5,31.4,49.5,31.2,49.3,31.2z"/>
	</g>
	<g>
		<path d="M47.2,32.9c-0.2,0-0.3,0-0.5,0.1c-0.1,0.1-0.3,0.2-0.2,0.4c0,0.2,0.3,0.3,0.6,0.3c0.1,0,0.2,0,0.3,0
			c0.2-0.1,0.3-0.2,0.3-0.4C47.6,33.1,47.5,32.9,47.2,32.9z"/>
	</g>
	<g>
		<path d="M47.1,34.8C47,34.8,47,34.8,47.1,34.8l-0.1-1.2c0,0,0-0.1,0.1-0.1c0,0,0.1,0,0.1,0.1L47.1,34.8
			C47.2,34.7,47.1,34.8,47.1,34.8C47.1,34.8,47.1,34.8,47.1,34.8z"/>
	</g>
	<g>
		<path d="M49.1,33.5C49.1,33.5,49.1,33.5,49.1,33.5C49.1,33.5,49.1,33.5,49.1,33.5c0.6-0.3,1.3-0.5,2-0.6c0,0,0,0,0,0c0,0,0,0,0,0
			C50.4,33.1,49.8,33.3,49.1,33.5C49.1,33.5,49.1,33.5,49.1,33.5z"/>
	</g>
	<g>
		<path d="M49.4,34.1C49.3,34.1,49.3,34,49.4,34.1C49.3,34,49.3,34,49.4,34.1c0.5-0.2,1-0.2,1.6-0.2c0,0,0,0,0,0c0,0,0,0,0,0
			C50.4,33.9,49.9,33.9,49.4,34.1C49.4,34.1,49.4,34.1,49.4,34.1z"/>
	</g>
	<g>
		<path d="M50.4,34.9C50.4,34.9,50.4,34.9,50.4,34.9c-0.3-0.1-0.6-0.2-1-0.2c0,0,0,0,0,0c0,0,0,0,0,0c0,0,0,0,0,0
			C49.8,34.7,50.1,34.7,50.4,34.9C50.4,34.8,50.4,34.9,50.4,34.9C50.4,34.9,50.4,34.9,50.4,34.9z"/>
	</g>
	<g>
		<path d="M44.9,33.5C44.9,33.5,44.8,33.5,44.9,33.5c-0.6-0.3-1.3-0.4-2-0.5c0,0,0,0,0,0c0,0,0,0,0,0C43.6,33,44.2,33.2,44.9,33.5
			C44.9,33.4,44.9,33.4,44.9,33.5C44.9,33.5,44.9,33.5,44.9,33.5z"/>
	</g>
	<g>
		<path d="M44.6,34C44.6,34,44.6,34,44.6,34c-0.5-0.1-1-0.2-1.6-0.1c0,0,0,0,0,0c0,0,0,0,0,0C43.6,33.8,44.1,33.8,44.6,34
			C44.6,34,44.7,34,44.6,34C44.6,34,44.6,34,44.6,34z"/>
	</g>
	<g>
		<path d="M43.6,34.8C43.6,34.8,43.6,34.8,43.6,34.8C43.6,34.8,43.6,34.8,43.6,34.8c0.3-0.2,0.6-0.2,1-0.2c0,0,0,0,0,0c0,0,0,0,0,0
			c0,0,0,0,0,0C44.2,34.7,43.9,34.7,43.6,34.8C43.6,34.8,43.6,34.8,43.6,34.8z"/>
	</g>
	<g>
		<path d="M50.5,29.1C50.5,29.1,50.5,29.1,50.5,29.1c-0.4-0.2-0.7-0.4-1.1-0.6c0,0-0.1,0-0.1-0.1c0-0.1,0-0.1,0-0.2l0,0
			c0.3-0.4,0.6-0.7,1.1-0.9c0,0,0.1,0,0.1,0c0,0,0.1,0.1,0.1,0.1c0.2,0.5,0.1,1.1,0,1.5C50.6,29,50.6,29.1,50.5,29.1
			C50.5,29.1,50.5,29.1,50.5,29.1z M50.6,27.4C50.5,27.4,50.5,27.4,50.6,27.4c-0.5,0.2-0.8,0.5-1.1,0.9l0,0c0,0,0,0.1,0,0.1
			c0,0,0,0.1,0.1,0.1c0.3,0.2,0.7,0.4,1,0.5c0,0,0,0,0,0c0,0,0,0,0-0.1C50.7,28.5,50.8,28,50.6,27.4C50.6,27.5,50.6,27.4,50.6,27.4
			C50.6,27.4,50.6,27.4,50.6,27.4z M49.4,28.3L49.4,28.3L49.4,28.3z"/>
	</g>
	<g>
		<path d="M43.4,29.1C43.4,29.1,43.4,29.1,43.4,29.1c0,0-0.1,0-0.1-0.1c-0.1-0.4-0.3-1,0-1.5c0,0,0-0.1,0.1-0.1c0,0,0.1,0,0.1,0
			c0.4,0.2,0.8,0.5,1.1,0.9c0,0,0.1,0.1,0,0.2c0,0-0.1,0.1-0.1,0.1C44.2,28.7,43.8,28.9,43.4,29.1C43.5,29.1,43.5,29.1,43.4,29.1z
			 M43.4,27.4C43.4,27.4,43.4,27.4,43.4,27.4C43.4,27.4,43.4,27.5,43.4,27.4c-0.3,0.5-0.2,1.1,0,1.5c0,0,0,0.1,0,0.1c0,0,0,0,0,0
			c0.3-0.2,0.7-0.4,1-0.5c0,0,0.1,0,0.1-0.1c0,0,0,0,0-0.1l0,0C44.3,27.9,43.9,27.6,43.4,27.4C43.5,27.4,43.4,27.4,43.4,27.4z"/>
	</g>
	<g>
		<path d="M45.7,29.3C45.7,29.3,45.7,29.3,45.7,29.3C45.7,29.3,45.7,29.3,45.7,29.3c0-0.3,0-0.5,0-0.7c0,0,0,0,0,0c0,0,0,0,0,0
			C45.8,28.9,45.8,29.1,45.7,29.3C45.8,29.3,45.7,29.3,45.7,29.3z"/>
	</g>
	<g>
		<path d="M46.3,29C46.3,29,46.3,29,46.3,29C46.3,29,46.3,29,46.3,29l0-0.5c0,0,0,0,0,0c0,0,0,0,0,0L46.3,29
			C46.3,29,46.3,29,46.3,29z"/>
	</g>
	<g>
		<path class="st0" d="M38.8,47.9c-0.6,0.8-0.9,2.4-0.2,3.2c3.1,3.7,13.4,3.2,14.1-0.4c0.1-0.3,0.5-1.3-1.1-1.3
			c-0.5,0-1,0.1-1.4,0.2c-2.6,0.7-5.5,1.1-8.3,0.6C40.5,50,39.3,49.2,38.8,47.9z"/>
		<path d="M46.1,53.7c-2.9,0-6-0.8-7.5-2.6c-0.7-0.8-0.5-2.4,0.2-3.3c0,0,0,0,0.1,0c0,0,0.1,0,0.1,0.1c0.4,1.2,1.5,2,3,2.3
			c2.4,0.4,5.2,0.2,8.2-0.6l0.1,0c0.4-0.1,0.9-0.3,1.4-0.2c0.6,0,1,0.2,1.2,0.4c0.2,0.3,0.1,0.7,0.1,0.9c0,0,0,0.1,0,0.1
			c-0.2,1.2-1.5,2.1-3.4,2.6C48.4,53.6,47.2,53.7,46.1,53.7z M38.8,48.1c-0.5,0.9-0.7,2.2-0.1,3c1.4,1.7,4.4,2.5,7.3,2.5
			c1.2,0,2.3-0.1,3.3-0.4c1.9-0.5,3.1-1.4,3.3-2.5c0,0,0-0.1,0-0.1c0.1-0.2,0.1-0.5,0-0.8c-0.2-0.2-0.5-0.3-1-0.4
			c-0.5,0-0.9,0.1-1.3,0.2l-0.1,0c-3.1,0.9-5.9,1.1-8.3,0.6C40.4,50.1,39.3,49.3,38.8,48.1z"/>
	</g>
	<g>
		<path d="M48.3,50.1C48.3,50.1,48.3,50.1,48.3,50.1C48.2,50.1,48.2,50,48.3,50.1c0-1.5-0.1-2.9-0.2-4.2c0,0,0-0.1,0.1-0.1
			c0,0,0.1,0,0.1,0.1C48.4,47.2,48.4,48.6,48.3,50.1C48.4,50,48.3,50.1,48.3,50.1z"/>
	</g>
	<g>
		<path d="M46.1,50.5C46.1,50.5,46,50.4,46.1,50.5c-0.2-1.6-0.5-3.1-1.1-4.6c0,0,0-0.1,0-0.1c0,0,0.1,0,0.1,0
			C45.8,47.3,46.1,48.8,46.1,50.5C46.2,50.4,46.1,50.5,46.1,50.5C46.1,50.5,46.1,50.5,46.1,50.5z"/>
	</g>
	<g>
		<path d="M43.3,41C43.2,41,43.2,41,43.3,41c-0.1-0.5-0.1-1,0-1.4c0,0,0,0,0,0c0,0,0,0,0,0C43.2,40,43.2,40.5,43.3,41
			C43.3,41,43.3,41,43.3,41C43.3,41,43.3,41,43.3,41z"/>
	</g>
	<g>
		<path d="M43.9,41.8C43.9,41.8,43.9,41.7,43.9,41.8c-0.1-0.4-0.1-0.7-0.1-1.1c0,0,0,0,0,0c0,0,0,0,0,0C43.8,41,43.9,41.4,43.9,41.8
			C44,41.7,43.9,41.7,43.9,41.8C43.9,41.8,43.9,41.8,43.9,41.8z"/>
	</g>
	<g>
		<path d="M44.8,43.5C44.8,43.5,44.8,43.5,44.8,43.5L44.6,43c0,0,0,0,0,0c0,0,0,0,0,0L44.8,43.5C44.8,43.5,44.8,43.5,44.8,43.5
			C44.8,43.5,44.8,43.5,44.8,43.5z"/>
	</g>
	<g>
		<path d="M50.1,42.3C50.1,42.3,50.1,42.3,50.1,42.3c0-0.4-0.1-0.7-0.2-1c0,0,0,0,0,0c0,0,0,0,0,0C50.1,41.6,50.2,41.9,50.1,42.3
			C50.2,42.3,50.2,42.3,50.1,42.3C50.1,42.3,50.1,42.3,50.1,42.3z"/>
	</g>
	<g>
		<path d="M50.5,41.3C50.5,41.3,50.5,41.3,50.5,41.3C50.5,41.3,50.5,41.2,50.5,41.3c0-0.4-0.1-0.7-0.3-1.1c0,0,0,0,0,0c0,0,0,0,0,0
			C50.5,40.5,50.5,40.9,50.5,41.3C50.5,41.2,50.5,41.3,50.5,41.3z"/>
	</g>
	<g>
		<path d="M50.4,52.5C50.4,52.5,50.4,52.5,50.4,52.5c-0.7-0.5-1.1-1.4-1-2.3c0,0,0,0,0,0c0,0,0,0,0,0C49.3,51,49.7,51.9,50.4,52.5
			C50.4,52.5,50.4,52.5,50.4,52.5C50.4,52.5,50.4,52.5,50.4,52.5z"/>
	</g>
</g>
<g>
	<g>
		<path class="st0" d="M20,48.5c-1,0-2.5-0.5-2.2-3.3c0.3-2.8,1.4-5.6,3-7.4c1.9-2.1,8.4-3,11,0c1.4,1.7,3.1,6.2,2.7,8.1
			c-0.4,1.9-1.2,2.4-2.7,2.7C30.3,48.8,24.3,48.7,20,48.5z"/>
		<path d="M28.5,48.8c-2.5,0-5.8-0.1-8.5-0.2c-0.5,0-1.2-0.2-1.7-0.7c-0.5-0.6-0.7-1.5-0.6-2.7c0.3-3,1.4-5.7,3-7.4
			c1.1-1.2,3.6-2,6.1-2c2.2,0,4,0.7,5,1.9c1.5,1.7,3.1,6.2,2.7,8.1c-0.4,2-1.3,2.5-2.8,2.7C31.2,48.8,30,48.8,28.5,48.8z M20,48.4
			c4.3,0.1,10.3,0.3,11.8,0.1c1.4-0.2,2.2-0.7,2.6-2.6c0.2-0.8-0.1-2.4-0.7-4.1c-0.6-1.6-1.4-3.2-2-3.9c-1-1.2-2.8-1.9-4.9-1.9
			c-2.4,0-4.9,0.8-6,1.9c-1.6,1.7-2.7,4.4-3,7.3c-0.1,1.1,0.1,2,0.5,2.6C18.8,48.3,19.5,48.4,20,48.4z"/>
	</g>
	<g>
		<path class="st0" d="M20,44.9c0.2-2.8,0.9-4.3,1.8-5s2.9-0.7,3.6,0.4c0.7,1,1.4,3.6,1.3,4.5c-0.1,0.9-0.5,1.5-1.2,1.6
			c-0.7,0.1-3.6,0.1-4.4-0.2C20.2,46,19.9,45.4,20,44.9z"/>
		<path d="M24.1,46.6c-1.1,0-2.5-0.1-3.1-0.3c-0.8-0.3-1.2-0.9-1.1-1.4l0,0c0.2-2.6,0.8-4.3,1.8-5c0.5-0.4,1.5-0.6,2.3-0.4
			c0.4,0.1,1.1,0.3,1.4,0.8c0.7,1,1.4,3.6,1.3,4.5c-0.1,1-0.5,1.6-1.3,1.7C25.2,46.6,24.7,46.6,24.1,46.6z M23.4,39.6
			c-0.6,0-1.2,0.2-1.6,0.4c-1,0.7-1.5,2.3-1.7,4.9l0,0c0,0.3,0.2,1,1,1.2c0.8,0.3,3.7,0.3,4.4,0.2c0.7-0.1,1.1-0.7,1.2-1.6
			c0.1-0.9-0.6-3.4-1.3-4.4c-0.3-0.5-0.9-0.7-1.3-0.7C23.8,39.6,23.6,39.6,23.4,39.6z M20,44.9L20,44.9L20,44.9z"/>
	</g>
	<g>
		<path class="st0" d="M25.9,44.1c-0.6-0.1-1.2-0.1-1.8-0.2c-0.6,0-1.1,0-1.7,0.1c-0.8,0.1-1.7,0.4-2.4,0.8c0,0.1,0,0.1,0,0.2
			c0,0.4,0.3,1,1.1,1.3c0.8,0.3,3.7,0.3,4.4,0.2c0.7-0.1,1.1-0.7,1.2-1.6c0-0.2,0-0.4,0-0.6C26.4,44.1,26.2,44.1,25.9,44.1z"/>
		<path d="M24.1,46.6c-1.1,0-2.5-0.1-3.1-0.3c-0.8-0.3-1.2-0.9-1.1-1.4c0,0,0-0.1,0-0.1l0,0c0,0,0-0.1,0-0.1
			c0.7-0.4,1.6-0.6,2.5-0.8c0.6-0.1,1.1-0.1,1.7-0.1c0.6,0,1.2,0.1,1.8,0.2c0,0,0,0,0,0c0.2,0,0.5,0.1,0.8,0.1c0,0,0.1,0,0.1,0.1
			c0,0.3,0,0.5,0,0.6c-0.1,1-0.5,1.6-1.3,1.7C25.2,46.6,24.7,46.6,24.1,46.6z M20.1,44.8c0,0,0,0.1,0,0.1c0,0.3,0.2,1,1,1.2
			c0.8,0.3,3.7,0.3,4.4,0.2c0.7-0.1,1.1-0.7,1.2-1.6c0-0.1,0-0.3,0-0.5c-0.2,0-0.5-0.1-0.7-0.1c-0.6-0.1-1.2-0.1-1.8-0.2
			c-0.6,0-1.1,0-1.7,0.1C21.6,44.2,20.8,44.5,20.1,44.8z"/>
	</g>
	<g>
		<path d="M23.6,47c-1.2,0-2.8-0.1-3.4-0.5c-1.2-0.7-0.7-2.8-0.4-4.1l0,0c0.3-1.3,0.8-2.3,1.5-2.9c0,0,0,0,0,0c0,0,0,0,0,0
			c-0.7,0.5-1.1,1.5-1.5,2.8l0,0c-0.3,1.3-0.8,3.4,0.3,4.1C21.1,47,24,47,25,46.9c0.5,0,1-0.1,1.4-0.3c0.5-0.3,0.8-0.8,0.9-1.5
			c0.1-0.6,0-1.2-0.1-1.8c-0.2-0.8-0.4-1.7-0.8-2.6c-0.6-1.2-1.8-2.5-4.3-1.5c0,0,0,0,0,0c0,0,0,0,0,0c2.6-1,3.8,0.3,4.4,1.5
			c0.4,0.9,0.6,1.9,0.8,2.6c0.1,0.6,0.2,1.2,0.2,1.8c-0.1,0.7-0.4,1.2-0.9,1.5C26,46.9,25.5,46.9,25,47C24.7,47,24.2,47,23.6,47z"/>
	</g>
	<g>
		<path d="M18.9,47.8C18.9,47.8,18.9,47.8,18.9,47.8c-0.3-0.2-0.4-0.5-0.5-0.8c0,0,0,0,0,0c0,0,0,0,0,0
			C18.5,47.2,18.7,47.5,18.9,47.8C18.9,47.7,18.9,47.8,18.9,47.8C18.9,47.8,18.9,47.8,18.9,47.8z"/>
	</g>
	<g>
		<path d="M18.3,46.6C18.2,46.6,18.2,46.6,18.3,46.6l-0.1-0.5c0,0,0,0,0,0c0,0,0,0,0,0L18.3,46.6C18.3,46.6,18.3,46.6,18.3,46.6
			C18.3,46.6,18.3,46.6,18.3,46.6z"/>
	</g>
	<g>
		<path d="M33,47.7C33,47.7,33,47.7,33,47.7C33,47.7,33,47.7,33,47.7c0.4-0.4,0.6-0.8,0.8-1.3c0,0,0,0,0,0c0,0,0,0,0,0
			C33.7,46.9,33.4,47.4,33,47.7C33,47.7,33,47.7,33,47.7z"/>
	</g>
</g>
<g>
	<g>
		<g>
			<path class="st0" d="M86,36.2c-0.5-0.1-1.1,0.4-1.1,0.9c0,0.1,0,0.2,0,0.4c0,0.2-0.2,0.3-0.3,0.5c-0.2,0.2-0.2,0.5-0.3,0.8
				c0,0.3,0,0.5,0.2,0.7c0.3,0.3,0.8,0.2,1-0.1c0.2-0.2,0.3-0.4,0.4-0.5c0.3-0.2,0.6-0.2,1-0.1c0.3,0,0.7,0,0.9-0.2
				c0.2-0.2,0.2-0.5,0.1-0.8c-0.1-0.3-0.4-0.4-0.6-0.5c-0.1,0-0.2-0.1-0.3-0.2c-0.2-0.1-0.3-0.3-0.4-0.4
				C86.4,36.4,86.2,36.2,86,36.2z"/>
			<path d="M84.9,39.7c-0.2,0-0.4-0.1-0.5-0.2c-0.2-0.2-0.3-0.6-0.2-0.8c0-0.3,0.1-0.6,0.3-0.8c0,0,0.1-0.1,0.1-0.1
				c0.1-0.1,0.2-0.2,0.2-0.3c0-0.1,0-0.1,0-0.2c0,0,0-0.1,0-0.1c0-0.3,0.2-0.6,0.4-0.8c0.2-0.2,0.5-0.3,0.8-0.2l0,0
				c0.3,0,0.5,0.3,0.7,0.5c0,0,0.1,0.1,0.1,0.1c0.1,0.1,0.2,0.2,0.3,0.3c0.1,0,0.1,0.1,0.2,0.1c0,0,0.1,0,0.1,0
				c0.3,0.1,0.5,0.3,0.7,0.6c0.1,0.3,0.1,0.7-0.1,0.9c-0.3,0.3-0.7,0.3-1,0.3l0,0c-0.3,0-0.7-0.1-0.9,0.1c-0.1,0.1-0.2,0.2-0.2,0.3
				c-0.1,0.1-0.1,0.2-0.2,0.2C85.4,39.6,85.2,39.7,84.9,39.7z M85.9,36.2c-0.2,0-0.4,0.1-0.6,0.2c-0.2,0.2-0.3,0.4-0.4,0.7
				c0,0,0,0.1,0,0.1c0,0.1,0,0.2,0,0.3c0,0.2-0.1,0.3-0.2,0.4c0,0-0.1,0.1-0.1,0.1c-0.1,0.2-0.2,0.5-0.3,0.7c0,0.3,0.1,0.5,0.2,0.6
				c0.2,0.2,0.7,0.2,0.9-0.1c0.1-0.1,0.1-0.1,0.2-0.2c0.1-0.1,0.2-0.2,0.3-0.3c0.3-0.2,0.7-0.2,1-0.2l0,0c0.3,0,0.7,0,0.9-0.2
				c0.2-0.2,0.2-0.5,0.1-0.7c-0.1-0.2-0.3-0.4-0.6-0.5c0,0-0.1,0-0.1,0c-0.1,0-0.2-0.1-0.3-0.1c-0.1-0.1-0.2-0.2-0.3-0.3
				c0,0-0.1-0.1-0.1-0.1c-0.2-0.2-0.4-0.4-0.6-0.4l0,0C85.9,36.2,85.9,36.2,85.9,36.2z"/>
		</g>
		<g>
			<path class="st0" d="M82.7,36.5c-0.1,0.3-0.1,0.7,0.2,1c0.2,0.2,0.4,0.3,0.7,0.2c0.2-0.1,0.3-0.4,0.3-0.6c0-0.2-0.2-0.4-0.4-0.6
				C83.3,36.4,82.9,36.2,82.7,36.5z"/>
			<path d="M83.4,37.9c-0.2,0-0.4-0.1-0.6-0.3c-0.3-0.3-0.3-0.7-0.2-1.1l0,0c0-0.1,0.1-0.2,0.2-0.2c0.2-0.1,0.5,0.1,0.6,0.2
				c0.2,0.2,0.4,0.4,0.4,0.6c0,0.2,0,0.6-0.3,0.7C83.5,37.9,83.5,37.9,83.4,37.9z M82.8,36.6L82.8,36.6c-0.1,0.3-0.1,0.7,0.2,0.9
				c0.1,0.2,0.4,0.3,0.6,0.2c0.2-0.1,0.2-0.3,0.2-0.5c0-0.2-0.1-0.4-0.3-0.5c-0.1-0.1-0.4-0.2-0.5-0.2
				C82.9,36.5,82.8,36.5,82.8,36.6z"/>
		</g>
		<g>
			<path class="st0" d="M87.2,34.6c-0.3,0.2-0.4,0.6-0.3,1c0.1,0.2,0.3,0.5,0.5,0.5c0.2,0,0.4-0.2,0.5-0.4c0.1-0.2,0-0.5-0.1-0.7
				C87.8,34.8,87.5,34.4,87.2,34.6z"/>
			<path d="M87.4,36.2C87.4,36.2,87.4,36.2,87.4,36.2c-0.3,0-0.5-0.3-0.6-0.6c-0.1-0.4,0-0.8,0.3-1.1l0,0c0.1-0.1,0.2-0.1,0.3-0.1
				c0.2,0.1,0.4,0.4,0.5,0.5c0.1,0.3,0.1,0.5,0.1,0.7C87.9,36,87.7,36.2,87.4,36.2z M87.3,34.7L87.3,34.7c-0.2,0.2-0.4,0.6-0.3,0.9
				c0,0.2,0.2,0.4,0.4,0.4c0.2,0,0.4-0.2,0.4-0.3c0.1-0.2,0-0.4-0.1-0.6c-0.1-0.2-0.2-0.4-0.4-0.4C87.4,34.6,87.3,34.7,87.3,34.7z"
				/>
		</g>
		<g>
			<path class="st0" d="M83.6,34.5c-0.1,0.3-0.1,0.7,0.2,1c0.2,0.2,0.4,0.3,0.7,0.2c0.2-0.1,0.3-0.4,0.3-0.6c0-0.2-0.2-0.4-0.4-0.6
				C84.1,34.4,83.7,34.2,83.6,34.5z"/>
			<path d="M84.2,35.8c-0.2,0-0.4-0.1-0.6-0.3c-0.3-0.3-0.3-0.7-0.2-1.1l0,0c0-0.1,0.1-0.2,0.2-0.2c0.2-0.1,0.5,0.1,0.6,0.2
				c0.2,0.2,0.4,0.4,0.4,0.6c0,0.2,0,0.6-0.3,0.7C84.4,35.8,84.3,35.8,84.2,35.8z M83.7,34.5c-0.1,0.3-0.1,0.7,0.2,0.9
				c0.1,0.2,0.4,0.3,0.6,0.2c0.2-0.1,0.2-0.3,0.2-0.5c0-0.2-0.1-0.4-0.3-0.5c-0.1-0.1-0.4-0.2-0.5-0.2
				C83.7,34.4,83.7,34.5,83.7,34.5L83.7,34.5z"/>
		</g>
		<g>
			<path class="st0" d="M85.8,33.7c0.3,0.2,0.5,0.5,0.5,0.9c0,0.3-0.1,0.5-0.4,0.6c-0.2,0.1-0.5-0.1-0.6-0.3
				c-0.1-0.2-0.1-0.4-0.1-0.7C85.3,33.9,85.5,33.5,85.8,33.7z"/>
			<path d="M85.9,35.2c-0.2,0-0.4-0.2-0.5-0.3c-0.1-0.2-0.1-0.4-0.1-0.7c0-0.2,0.1-0.5,0.3-0.6c0.1,0,0.2,0,0.3,0
				c0.3,0.2,0.6,0.6,0.6,1c0,0.3-0.1,0.6-0.4,0.7C85.9,35.2,85.9,35.2,85.9,35.2z M85.7,33.7C85.7,33.7,85.7,33.7,85.7,33.7
				c-0.2,0.1-0.3,0.3-0.3,0.5c0,0.3,0,0.5,0.1,0.6c0.1,0.2,0.3,0.3,0.5,0.2c0.2-0.1,0.3-0.3,0.3-0.5C86.3,34.2,86.1,33.9,85.7,33.7
				L85.7,33.7C85.8,33.7,85.7,33.7,85.7,33.7z"/>
		</g>
	</g>
	<g>
		<path d="M84.9,39.3C84.9,39.3,84.9,39.3,84.9,39.3c-0.2-0.1-0.3-0.3-0.3-0.4c0,0,0,0,0,0c0,0,0,0,0,0
			C84.7,39.1,84.8,39.2,84.9,39.3C84.9,39.3,84.9,39.3,84.9,39.3C84.9,39.3,84.9,39.3,84.9,39.3z"/>
	</g>
</g>
<g>
	<g>
		<g>
			<path class="st0" d="M59,57c-0.5-0.1-1.1,0.4-1.1,0.9c0,0.1,0,0.2,0,0.4c0,0.2-0.2,0.3-0.3,0.5c-0.2,0.2-0.2,0.5-0.3,0.8
				c0,0.3,0,0.5,0.2,0.7c0.3,0.3,0.8,0.2,1-0.1c0.2-0.2,0.3-0.4,0.4-0.5c0.3-0.2,0.6-0.2,1-0.1c0.3,0,0.7,0,0.9-0.2
				c0.2-0.2,0.2-0.5,0.1-0.8c-0.1-0.3-0.4-0.4-0.6-0.5c-0.1,0-0.2-0.1-0.3-0.2c-0.2-0.1-0.3-0.3-0.4-0.4C59.4,57.2,59.2,57,59,57z"
				/>
			<path d="M57.9,60.5c-0.2,0-0.4-0.1-0.5-0.2c-0.2-0.2-0.3-0.6-0.2-0.8c0-0.3,0.1-0.6,0.3-0.8c0,0,0.1-0.1,0.1-0.1
				c0.1-0.1,0.2-0.2,0.2-0.3c0-0.1,0-0.1,0-0.2c0,0,0-0.1,0-0.1c0-0.3,0.2-0.6,0.4-0.8c0.2-0.2,0.5-0.3,0.8-0.2l0,0
				c0.3,0,0.5,0.3,0.7,0.5c0,0,0.1,0.1,0.1,0.1c0.1,0.1,0.2,0.2,0.3,0.3c0.1,0,0.1,0.1,0.2,0.1c0,0,0.1,0,0.1,0
				c0.3,0.1,0.5,0.3,0.7,0.6c0.1,0.3,0.1,0.7-0.1,0.9c-0.3,0.3-0.7,0.3-1,0.3l0,0c-0.3,0-0.7-0.1-0.9,0.1c-0.1,0.1-0.2,0.2-0.2,0.3
				c-0.1,0.1-0.1,0.2-0.2,0.2C58.4,60.4,58.2,60.5,57.9,60.5z M58.9,57c-0.2,0-0.4,0.1-0.6,0.2c-0.2,0.2-0.3,0.4-0.4,0.7
				c0,0,0,0.1,0,0.1c0,0.1,0,0.2,0,0.3c0,0.2-0.1,0.3-0.2,0.4c0,0-0.1,0.1-0.1,0.1c-0.1,0.2-0.2,0.5-0.3,0.7c0,0.3,0.1,0.5,0.2,0.6
				c0.2,0.2,0.7,0.2,0.9-0.1c0.1-0.1,0.1-0.1,0.2-0.2c0.1-0.1,0.2-0.2,0.3-0.3c0.3-0.2,0.7-0.2,1-0.2l0,0c0.3,0,0.7,0,0.9-0.2
				c0.2-0.2,0.2-0.5,0.1-0.7c-0.1-0.2-0.3-0.4-0.6-0.5c0,0-0.1,0-0.1,0c-0.1,0-0.2-0.1-0.3-0.1c-0.1-0.1-0.2-0.2-0.3-0.3
				c0,0-0.1-0.1-0.1-0.1c-0.2-0.2-0.4-0.4-0.6-0.4l0,0C58.9,57,58.9,57,58.9,57z"/>
		</g>
		<g>
			<path class="st0" d="M55.7,57.3c-0.1,0.3-0.1,0.7,0.2,1c0.2,0.2,0.4,0.3,0.7,0.2c0.2-0.1,0.3-0.4,0.3-0.6c0-0.2-0.2-0.4-0.4-0.6
				C56.3,57.2,55.9,57,55.7,57.3z"/>
			<path d="M56.4,58.7c-0.2,0-0.4-0.1-0.6-0.3c-0.3-0.3-0.3-0.7-0.2-1.1l0,0c0-0.1,0.1-0.2,0.2-0.2c0.2-0.1,0.5,0.1,0.6,0.2
				c0.2,0.2,0.4,0.4,0.4,0.6c0,0.2,0,0.6-0.3,0.7C56.5,58.7,56.5,58.7,56.4,58.7z M55.8,57.4L55.8,57.4c-0.1,0.3-0.1,0.7,0.2,0.9
				c0.1,0.2,0.4,0.3,0.6,0.2c0.2-0.1,0.2-0.3,0.2-0.5c0-0.2-0.1-0.4-0.3-0.5c-0.1-0.1-0.4-0.2-0.5-0.2
				C55.9,57.3,55.8,57.3,55.8,57.4z"/>
		</g>
		<g>
			<path class="st0" d="M60.2,55.4c-0.3,0.2-0.4,0.6-0.3,1c0.1,0.2,0.3,0.5,0.5,0.5c0.2,0,0.4-0.2,0.5-0.4c0.1-0.2,0-0.5-0.1-0.7
				C60.8,55.6,60.5,55.2,60.2,55.4z"/>
			<path d="M60.4,57C60.4,57,60.4,57,60.4,57c-0.3,0-0.5-0.3-0.6-0.6c-0.1-0.4,0-0.8,0.3-1.1l0,0c0.1-0.1,0.2-0.1,0.3-0.1
				c0.2,0.1,0.4,0.4,0.5,0.5c0.1,0.3,0.1,0.5,0.1,0.7C60.9,56.8,60.7,57,60.4,57z M60.3,55.5L60.3,55.5c-0.2,0.2-0.4,0.6-0.3,0.9
				c0,0.2,0.2,0.4,0.4,0.4c0.2,0,0.4-0.2,0.4-0.3c0.1-0.2,0-0.4-0.1-0.6c-0.1-0.2-0.2-0.4-0.4-0.4C60.4,55.4,60.3,55.5,60.3,55.5z"
				/>
		</g>
		<g>
			<path class="st0" d="M56.6,55.3c-0.1,0.3-0.1,0.7,0.2,1c0.2,0.2,0.4,0.3,0.7,0.2c0.2-0.1,0.3-0.4,0.3-0.6c0-0.2-0.2-0.4-0.4-0.6
				C57.1,55.2,56.7,55,56.6,55.3z"/>
			<path d="M57.2,56.6c-0.2,0-0.4-0.1-0.6-0.3c-0.3-0.3-0.3-0.7-0.2-1.1l0,0c0-0.1,0.1-0.2,0.2-0.2c0.2-0.1,0.5,0.1,0.6,0.2
				c0.2,0.2,0.4,0.4,0.4,0.6c0,0.2,0,0.6-0.3,0.7C57.4,56.6,57.3,56.6,57.2,56.6z M56.7,55.3c-0.1,0.3-0.1,0.7,0.2,0.9
				c0.1,0.2,0.4,0.3,0.6,0.2c0.2-0.1,0.2-0.3,0.2-0.5c0-0.2-0.1-0.4-0.3-0.5c-0.1-0.1-0.4-0.2-0.5-0.2
				C56.7,55.2,56.7,55.3,56.7,55.3L56.7,55.3z"/>
		</g>
		<g>
			<path class="st0" d="M58.8,54.5c0.3,0.2,0.5,0.5,0.5,0.9c0,0.3-0.1,0.5-0.4,0.6c-0.2,0.1-0.5-0.1-0.6-0.3
				c-0.1-0.2-0.1-0.4-0.1-0.7C58.3,54.7,58.5,54.3,58.8,54.5z"/>
			<path d="M58.9,56c-0.2,0-0.4-0.2-0.5-0.3c-0.1-0.2-0.1-0.4-0.1-0.7c0-0.2,0.1-0.5,0.3-0.6c0.1,0,0.2,0,0.3,0
				c0.3,0.2,0.6,0.6,0.6,1c0,0.3-0.1,0.6-0.4,0.7C58.9,56,58.9,56,58.9,56z M58.7,54.5C58.7,54.5,58.7,54.5,58.7,54.5
				c-0.2,0.1-0.3,0.3-0.3,0.5c0,0.3,0,0.5,0.1,0.6c0.1,0.2,0.3,0.3,0.5,0.2c0.2-0.1,0.3-0.3,0.3-0.5C59.3,55,59.1,54.7,58.7,54.5
				L58.7,54.5C58.8,54.5,58.7,54.5,58.7,54.5z"/>
		</g>
	</g>
	<g>
		<path d="M57.9,60.1C57.9,60.1,57.9,60.1,57.9,60.1c-0.2-0.1-0.3-0.3-0.3-0.4c0,0,0,0,0,0c0,0,0,0,0,0C57.7,59.9,57.8,60,57.9,60.1
			C57.9,60.1,57.9,60.1,57.9,60.1C57.9,60.1,57.9,60.1,57.9,60.1z"/>
	</g>
</g>
<g>
	<g>
		<path class="st0" d="M24,31.4c0.3,0.1,0.6,0.1,0.8,0.4s0.3,0.6,0.1,0.8c-0.2,0.2-0.4,0.2-0.6,0.2c-4.3,0-8.7,0-13-0.1
			c-0.4,0-0.9,0-1.2-0.3c-0.3-0.3-0.5-0.9-0.1-1.1C10.3,31.1,22.7,31.1,24,31.4z"/>
		<path d="M24.3,32.8C24.3,32.8,24.3,32.8,24.3,32.8l-13-0.1c-0.4,0-0.9,0-1.3-0.3c-0.2-0.2-0.4-0.5-0.4-0.7c0-0.2,0.1-0.4,0.3-0.5
			c0.4-0.3,12.9-0.2,14.2,0.1l0,0c0.3,0.1,0.6,0.2,0.8,0.4c0.2,0.2,0.3,0.7,0,0.9C24.8,32.8,24.5,32.8,24.3,32.8z M14.9,31.2
			c-2.7,0-4.8,0.1-4.9,0.1c-0.1,0.1-0.2,0.2-0.2,0.4c0,0.2,0.1,0.5,0.3,0.6c0.3,0.2,0.7,0.3,1.2,0.3l13,0.1c0.2,0,0.4,0,0.6-0.1
			c0.2-0.2,0.1-0.5-0.1-0.7c-0.2-0.2-0.5-0.3-0.7-0.3l0,0c-0.7-0.2-4.4-0.2-7.4-0.3C16.1,31.2,15.5,31.2,14.9,31.2z"/>
	</g>
	<g>
		<path class="st0" d="M13.4,27.2c-0.3,7.4-2.3,14.4-5.3,21.1C9.3,48.6,10,47,10.7,46c0.1,0.5,0,1.2-0.2,1.7
			c0.5,0.1,1.2-0.6,1.4-1.1c0.7-1.3,1-2.3,1.4-3.7c0.2,0.6,0.4,1.4,0.4,1.9c0.5-0.2,0.9-1.1,1-1.6c1-5,1.2-10,0.9-15
			c0-0.6-0.1-1.2-0.5-1.6C14.7,26.1,14.1,26.5,13.4,27.2z"/>
		<path d="M8.4,48.4c-0.1,0-0.2,0-0.3,0c0,0,0,0-0.1,0c0,0,0,0,0-0.1c3.3-7.4,5-14.3,5.3-21.1c0,0,0,0,0-0.1
			c0.6-0.6,1.3-1.2,1.8-0.7c0.4,0.4,0.5,1.1,0.5,1.7c0.3,5.3,0,10.2-0.9,15c-0.1,0.5-0.5,1.4-1,1.6c0,0-0.1,0-0.1,0c0,0,0,0,0-0.1
			c0-0.4-0.1-1-0.3-1.5c-0.3,1.2-0.6,2.2-1.3,3.5c-0.2,0.4-0.9,1.1-1.4,1.1c0,0-0.1,0-0.1,0c0,0,0,0-0.1,0c0,0,0,0,0-0.1
			c0.1-0.3,0.3-0.9,0.2-1.4c-0.1,0.2-0.2,0.3-0.3,0.5C9.8,47.5,9.2,48.4,8.4,48.4z M8.2,48.3c0.8,0.1,1.4-0.8,1.9-1.6
			c0.2-0.2,0.3-0.5,0.5-0.7c0,0,0.1,0,0.1,0c0,0,0.1,0,0.1,0.1c0.1,0.6,0,1.3-0.2,1.6c0.4,0,1-0.6,1.2-1.1c0.7-1.3,1.1-2.3,1.4-3.7
			c0,0,0-0.1,0.1-0.1c0,0,0.1,0,0.1,0.1c0.2,0.5,0.3,1.3,0.4,1.7c0.4-0.3,0.7-1,0.8-1.5c0.9-4.8,1.2-9.7,0.9-15
			c0-0.6-0.1-1.2-0.5-1.6c-0.3-0.3-0.8,0-1.5,0.7C13.2,34,11.5,40.9,8.2,48.3z"/>
	</g>
	<g>
		<path class="st0" d="M12.8,30.2c0.1-2.3-0.3-4.5,0.7-7.2c1.1-3,1.6-3.3,3.1-5.6c0.3-0.4,1.4-1.7,1.4-2.1c0-3-1.8-2.2-1.8-2.2
			s0.6-1,1.3-1.3c-0.3-0.4-1.5-0.4-1.5-0.4s1.6-1.1,2.2-1.1c-0.7-0.4-1.1-0.4-1.7-0.6c0.6-0.3,1.5-0.8,2.1-1.1
			c0.7-0.2,3.2-0.9,5.2,1.1c2.1,2.1,0.3,4.1,0.4,5.5c0.9,3,1.6,3.6-0.4,8.1c-0.9,1.9-1.8,3.9-6,5.3C16.5,29,13.9,29.2,12.8,30.2z"/>
		<path d="M12.8,30.2C12.7,30.2,12.7,30.2,12.8,30.2C12.7,30.2,12.7,30.2,12.8,30.2c0-0.7-0.1-1.4-0.1-2.1c0-1.6-0.1-3.3,0.7-5.3
			c0.8-2.3,1.3-3,2.2-4.2c0.3-0.4,0.6-0.8,0.9-1.4c0.1-0.1,0.3-0.4,0.5-0.6c0.4-0.5,1-1.2,1-1.4c0-1.1-0.2-1.8-0.7-2.1
			c-0.5-0.3-1-0.1-1-0.1c0,0-0.1,0-0.1,0c0,0,0-0.1,0-0.1c0,0,0.6-0.9,1.3-1.3c-0.3-0.2-1-0.3-1.3-0.3c0,0-0.1,0-0.1-0.1
			c0,0,0-0.1,0-0.1c0.1,0,1.3-0.9,2.1-1.1c-0.3-0.2-0.6-0.2-0.9-0.3c-0.2,0-0.4-0.1-0.6-0.2c0,0-0.1,0-0.1-0.1c0,0,0-0.1,0-0.1
			c0.2-0.1,0.4-0.2,0.7-0.4c0.5-0.3,1-0.6,1.4-0.7c0.7-0.2,3.2-0.9,5.3,1.1c1.5,1.5,1.1,3,0.7,4.2c-0.1,0.5-0.3,1-0.3,1.4
			c0.1,0.4,0.2,0.8,0.3,1.1c0.7,2.1,1,3.2-0.8,7l0,0c-0.9,1.9-1.8,3.9-6,5.4c-0.5,0.2-1.1,0.3-1.7,0.5
			C14.9,29.3,13.6,29.6,12.8,30.2C12.8,30.2,12.8,30.2,12.8,30.2z M16.7,12.8c0.2,0,0.4,0,0.6,0.2c0.5,0.3,0.8,1.1,0.8,2.2
			c0,0.3-0.4,0.8-1,1.5c-0.2,0.3-0.4,0.5-0.5,0.6c-0.4,0.6-0.7,1-0.9,1.4c-0.8,1.2-1.3,1.9-2.1,4.2c-0.7,2-0.7,3.6-0.7,5.2
			c0,0.6,0,1.2,0,1.8c0.8-0.5,2.1-0.8,3.3-1.1c0.6-0.1,1.3-0.3,1.7-0.4c4.2-1.5,5.1-3.4,5.9-5.3l0,0c1.8-3.8,1.4-4.8,0.8-6.9
			c-0.1-0.3-0.2-0.7-0.3-1.1c0,0,0,0,0,0c0-0.4,0.1-0.9,0.3-1.4c0.4-1.2,0.8-2.6-0.7-4c-2-2-4.4-1.3-5.1-1.1
			c-0.4,0.1-0.9,0.4-1.4,0.7c-0.2,0.1-0.3,0.2-0.5,0.3c0.1,0,0.2,0.1,0.4,0.1c0.3,0.1,0.7,0.1,1.1,0.4c0,0,0,0.1,0,0.1
			c0,0,0,0.1-0.1,0.1c-0.5,0-1.5,0.7-2,1c0.4,0,1.1,0.1,1.3,0.4c0,0,0,0,0,0.1c0,0,0,0,0,0.1c-0.5,0.3-0.9,0.8-1.2,1.1
			C16.5,12.9,16.6,12.8,16.7,12.8z"/>
	</g>
	<g>
		<path class="st0" d="M27.1,15.5c0.4-0.6,0.6-1.5,0.3-2.3c-0.3-0.8-0.9-1.4-1.6-1.7c-0.2-0.1-0.5-0.1-0.7-0.1
			c-0.5,0.1-0.8,0.4-1.1,0.8c-0.5,0.7-0.3,3,0,3.2c0.9,0.6,2-0.4,2.4,0.6C26.9,15.9,27.1,15.6,27.1,15.5z"/>
		<path d="M26.5,16.1C26.5,16.1,26.5,16.1,26.5,16.1c-0.3-0.5-0.7-0.5-1.2-0.4c-0.4,0.1-0.9,0.1-1.3-0.2c-0.2-0.1-0.3-0.5-0.3-0.8
			c-0.1-0.7-0.1-2,0.3-2.5c0.3-0.4,0.6-0.8,1.1-0.8c0.2,0,0.5,0,0.7,0.1c0.8,0.3,1.4,1,1.7,1.8c0.3,0.8,0.1,1.7-0.3,2.4l0,0
			C27.1,15.7,26.8,16,26.5,16.1C26.5,16.1,26.5,16.1,26.5,16.1z M25.8,15.5c0.3,0,0.6,0.1,0.8,0.4c0.3-0.1,0.5-0.4,0.5-0.4
			c0,0,0,0,0,0c0.4-0.6,0.5-1.5,0.3-2.2c-0.2-0.7-0.8-1.4-1.6-1.6c-0.3-0.1-0.5-0.1-0.7-0.1c-0.4,0.1-0.7,0.4-1,0.8
			c-0.3,0.4-0.4,1.5-0.2,2.4c0.1,0.5,0.2,0.7,0.2,0.7c0.4,0.2,0.8,0.2,1.2,0.1C25.4,15.5,25.6,15.5,25.8,15.5z M27.1,15.6L27.1,15.6
			L27.1,15.6z M27.1,15.6L27.1,15.6L27.1,15.6z M27.1,15.5L27.1,15.5C27.1,15.5,27.1,15.5,27.1,15.5z"/>
	</g>
	<g>
		<path d="M22.2,11.5c-0.1,0-0.2,0.2-0.2,0.3c0,0.1,0,0.1,0,0.2c0,0.1,0.1,0.2,0.2,0.3c0.1,0.1,0.3,0,0.3-0.1c0.1-0.1,0-0.2,0-0.3
			c0-0.1,0-0.2-0.1-0.3S22.3,11.4,22.2,11.5z"/>
	</g>
	<g>
		<path d="M26.2,15.8C26.2,15.8,26.1,15.7,26.2,15.8c-0.2-0.3-0.3-0.5-0.5-0.6c-0.2-0.1-0.5-0.2-0.8-0.2c-0.1,0-0.1,0-0.2,0
			c-0.5-0.1-0.8-0.3-1-0.6c0,0,0-0.1,0-0.1c0,0,0.1,0,0.1,0c0.1,0.2,0.4,0.4,0.8,0.5c0.1,0,0.1,0,0.2,0c0.3,0.1,0.6,0.1,0.8,0.3
			c0.2,0.1,0.4,0.4,0.5,0.6C26.3,15.7,26.3,15.7,26.2,15.8C26.2,15.8,26.2,15.8,26.2,15.8z"/>
	</g>
	<g>
		<path d="M13.4,28.3C13.4,28.3,13.3,28.2,13.4,28.3c-0.1-0.1-0.1-0.1,0-0.2c1-0.3,1.9-0.9,2.6-1.6c0,0,0.1,0,0.1,0
			c0,0,0.1,0,0.1,0.1l0,0.7c1.4-0.7,2.2-2,2.9-3.1c0,0,0,0,0.1,0c0,0,0.1,0,0.1,0.1l0.2,0.5c1.9-2.1,2.1-4.6,1.8-6.1
			c-0.2-0.8-0.5-1.3-0.9-1.4c-0.7-0.3-1.6-0.1-2.2,0.4c0,0-0.1,0-0.1,0c0,0,0-0.1,0-0.1c0.6-0.5,1.6-0.7,2.3-0.4
			c0.4,0.2,0.8,0.8,1,1.6c0.2,0.9,0.2,1.9-0.1,3c-0.3,1.2-0.9,2.4-1.8,3.4c0,0,0,0-0.1,0c0,0-0.1,0-0.1-0.1L19,24.4
			c-0.7,1.1-1.6,2.4-3,3.1c0,0-0.1,0-0.1,0c0,0,0,0,0-0.1l0-0.6C15.2,27.4,14.4,27.9,13.4,28.3C13.4,28.2,13.4,28.3,13.4,28.3z"/>
	</g>
	<g>
		<path d="M18.4,31.3C18.3,31.3,18.3,31.3,18.4,31.3c-0.1,0-0.1-0.1-0.1-0.1c0.1-0.7,0.1-2,0-2.6c0,0,0-0.1,0.1-0.1
			c0,0,0.1,0,0.1,0.1C18.5,29.2,18.6,30.5,18.4,31.3C18.4,31.2,18.4,31.3,18.4,31.3z"/>
	</g>
	<g>
		<path d="M20.1,31.3C20.1,31.3,20.1,31.3,20.1,31.3c-0.1,0-0.1-0.1-0.1-0.1c0.2-0.9,0.3-2.1,0.1-3.7c0,0,0-0.1,0.1-0.1
			c0,0,0.1,0,0.1,0.1C20.4,29.1,20.4,30.3,20.1,31.3C20.2,31.3,20.1,31.3,20.1,31.3z"/>
	</g>
	<g>
		<path d="M18.5,32.3C18.4,32.3,18.4,32.3,18.5,32.3c-0.1,0-0.1-0.1-0.1-0.1c0.1-0.2,0.1-0.4,0.1-0.6c0,0,0-0.1,0-0.1
			c0-0.1-0.1-0.1-0.1-0.1c0,0-0.1-0.1-0.1-0.1c0,0,0-0.1,0-0.1c0,0,0.1,0,0.1,0c0,0,0,0.1,0.1,0.1c0.1,0.1,0.1,0.1,0.1,0.2
			c0,0,0,0.1,0,0.1C18.7,31.8,18.7,32.1,18.5,32.3C18.5,32.3,18.5,32.3,18.5,32.3z"/>
	</g>
	<g>
		<path d="M19.1,32.2C19.1,32.2,19.1,32.2,19.1,32.2c-0.1,0-0.1-0.1-0.1-0.1c0.1-0.3,0.1-0.6-0.1-0.9c0,0,0-0.1,0-0.1
			c0,0,0.1,0,0.1,0C19.3,31.5,19.3,31.9,19.1,32.2C19.2,32.2,19.2,32.2,19.1,32.2z"/>
	</g>
	<g>
		<path d="M20.1,32.3C20.1,32.3,20.1,32.3,20.1,32.3c-0.1,0-0.1-0.1-0.1-0.1c0.2-0.3,0.1-0.6-0.1-0.9c0,0,0-0.1,0-0.1
			c0,0,0.1,0,0.1,0C20.4,31.5,20.4,31.9,20.1,32.3C20.2,32.3,20.2,32.3,20.1,32.3z"/>
	</g>
	<g>
		<path d="M20.7,32.3C20.7,32.3,20.7,32.3,20.7,32.3c-0.1,0-0.1-0.1-0.1-0.1c0-0.2,0.1-0.3,0.1-0.5c0-0.2-0.1-0.3-0.1-0.4
			c0,0,0-0.1,0-0.1c0,0,0.1,0,0.1,0c0.1,0.1,0.2,0.3,0.2,0.5C20.9,31.9,20.9,32.1,20.7,32.3C20.8,32.3,20.8,32.3,20.7,32.3z"/>
	</g>
	<g>
		<path d="M24.3,13.2C24.3,13.2,24.3,13.2,24.3,13.2c0-0.7,0.4-1.3,1-1.5c0,0,0,0,0,0c0,0,0,0,0,0C24.7,12,24.3,12.6,24.3,13.2
			C24.3,13.2,24.3,13.2,24.3,13.2C24.3,13.2,24.3,13.2,24.3,13.2z"/>
	</g>
	<g>
		<path d="M18.1,9.2C18.1,9.2,18.1,9.2,18.1,9.2C18.1,9.2,18.1,9.2,18.1,9.2c0.5-0.3,1.1-0.5,1.6-0.5c0,0,0,0,0,0c0,0,0,0,0,0
			C19.2,8.8,18.6,9,18.1,9.2C18.1,9.2,18.1,9.2,18.1,9.2z"/>
	</g>
	<g>
		<path d="M10.9,45.5C10.9,45.5,10.9,45.5,10.9,45.5C10.9,45.5,10.9,45.4,10.9,45.5c1.2-3.7,2.2-7.5,2.9-11.3c0,0,0,0,0,0
			c0,0,0,0,0,0C13.1,38,12.1,41.8,10.9,45.5C10.9,45.5,10.9,45.5,10.9,45.5z"/>
	</g>
	<g>
		<path d="M13.4,42.2C13.4,42.2,13.4,42.2,13.4,42.2C13.4,42.2,13.4,42.2,13.4,42.2c0.2-1.5,0.5-3,0.6-4.5c0,0,0,0,0,0c0,0,0,0,0,0
			C13.9,39.2,13.7,40.7,13.4,42.2C13.4,42.2,13.4,42.2,13.4,42.2z"/>
	</g>
	<g>
		<path d="M24.4,19.4C24.4,19.4,24.4,19.4,24.4,19.4C24.4,19.4,24.4,19.4,24.4,19.4c0.1-0.4,0.1-0.9,0-1.3c0,0,0,0,0,0c0,0,0,0,0,0
			C24.6,18.5,24.5,18.9,24.4,19.4C24.5,19.4,24.5,19.4,24.4,19.4z"/>
	</g>
	<g>
		<path d="M23.8,19C23.8,19,23.8,19,23.8,19C23.8,19,23.8,18.9,23.8,19l0-0.6c0,0,0,0,0,0c0,0,0,0,0,0L23.8,19
			C23.9,18.9,23.9,19,23.8,19z"/>
	</g>
	<g>
		<path d="M24,20.7C24,20.7,24,20.7,24,20.7C24,20.7,24,20.6,24,20.7l0.2-0.6c0,0,0,0,0,0c0,0,0,0,0,0L24,20.7
			C24,20.7,24,20.7,24,20.7z"/>
	</g>
</g>
<g>
	<path class="st0" d="M92.1,15.4c-0.1-0.2-0.2-0.4-0.4-0.6c-0.2-0.1-0.5-0.2-0.7,0c-0.1,0.1-0.2,0.2-0.2,0.3
		c-0.1,0.2-0.1,0.3-0.1,0.5c0,0.2,0.1,0.4,0.3,0.6c0.4,0.6,0.8,1.2,1.2,1.8c0,0,0,0.1,0.1,0.1c0,0,0.1,0,0.1-0.1
		c0.5-0.5,0.9-1.1,1.2-1.7c0.2-0.4,0.4-0.8,0.2-1.3c-0.1-0.2-0.3-0.4-0.6-0.4c-0.1,0-0.2,0.1-0.3,0.1C92.5,15,92.3,15.2,92.1,15.4z"
		/>
	<path d="M92.1,18.2C92.1,18.2,92.1,18.2,92.1,18.2C92,18.1,92,18.1,92,18l-1.2-1.8c-0.1-0.2-0.2-0.4-0.3-0.6c0-0.2,0.1-0.4,0.1-0.5
		c0-0.1,0.1-0.3,0.2-0.4c0.2-0.2,0.6-0.1,0.8,0c0.2,0.1,0.3,0.3,0.4,0.5c0.1-0.1,0.2-0.1,0.2-0.2c0.1-0.1,0.3-0.2,0.4-0.3
		c0.1-0.1,0.2-0.1,0.3-0.1c0.3,0,0.5,0.2,0.6,0.5c0.2,0.5,0,0.9-0.3,1.3c-0.3,0.6-0.7,1.2-1.2,1.7C92.3,18.1,92.2,18.2,92.1,18.2z
		 M91.2,14.8c-0.1,0-0.2,0-0.3,0.1c-0.1,0.1-0.1,0.2-0.2,0.3c-0.1,0.1-0.1,0.3-0.1,0.5c0,0.2,0.1,0.4,0.2,0.5l1.2,1.8c0,0,0,0,0,0
		c0,0,0,0,0,0c0.5-0.5,0.8-1.1,1.2-1.6c0.2-0.3,0.4-0.8,0.2-1.2c-0.1-0.2-0.3-0.4-0.5-0.3c-0.1,0-0.2,0.1-0.3,0.1
		c-0.1,0.1-0.3,0.2-0.4,0.3c-0.1,0.1-0.2,0.2-0.3,0.3c0,0,0,0-0.1,0c0,0,0,0-0.1,0c-0.1-0.2-0.2-0.4-0.4-0.6
		C91.5,14.8,91.4,14.8,91.2,14.8z"/>
</g>
<g>
	<path class="st0" d="M50.1,67.4c-0.1-0.2-0.2-0.4-0.4-0.6c-0.2-0.1-0.5-0.2-0.7,0c-0.1,0.1-0.2,0.2-0.2,0.3
		c-0.1,0.2-0.1,0.3-0.1,0.5c0,0.2,0.1,0.4,0.3,0.6c0.4,0.6,0.8,1.2,1.2,1.8c0,0,0,0.1,0.1,0.1c0,0,0.1,0,0.1-0.1
		c0.5-0.5,0.9-1.1,1.2-1.7c0.2-0.4,0.4-0.8,0.2-1.3c-0.1-0.2-0.3-0.4-0.6-0.4c-0.1,0-0.2,0.1-0.3,0.1C50.5,67,50.3,67.2,50.1,67.4z"
		/>
	<path d="M50.1,70.2C50.1,70.2,50.1,70.2,50.1,70.2C50,70.1,50,70.1,50,70l-1.2-1.8c-0.1-0.2-0.2-0.4-0.3-0.6c0-0.2,0.1-0.4,0.1-0.5
		c0-0.1,0.1-0.3,0.2-0.4c0.2-0.2,0.6-0.1,0.8,0c0.2,0.1,0.3,0.3,0.4,0.5c0.1-0.1,0.2-0.1,0.2-0.2c0.1-0.1,0.3-0.2,0.4-0.3
		c0.1-0.1,0.2-0.1,0.3-0.1c0.3,0,0.5,0.2,0.6,0.5c0.2,0.5,0,0.9-0.3,1.3c-0.3,0.6-0.7,1.2-1.2,1.7C50.3,70.1,50.2,70.2,50.1,70.2z
		 M49.2,66.8c-0.1,0-0.2,0-0.3,0.1c-0.1,0.1-0.1,0.2-0.2,0.3c-0.1,0.1-0.1,0.3-0.1,0.5c0,0.2,0.1,0.4,0.2,0.5l1.2,1.8c0,0,0,0,0,0
		c0,0,0,0,0,0c0.5-0.5,0.8-1.1,1.2-1.6c0.2-0.3,0.4-0.8,0.2-1.2c-0.1-0.2-0.3-0.4-0.5-0.3c-0.1,0-0.2,0.1-0.3,0.1
		c-0.1,0.1-0.3,0.2-0.4,0.3c-0.1,0.1-0.2,0.2-0.3,0.3c0,0,0,0-0.1,0c0,0,0,0-0.1,0c-0.1-0.2-0.2-0.4-0.4-0.6
		C49.5,66.8,49.4,66.8,49.2,66.8z"/>
</g>
<g>
	<path class="st0" d="M11.1,83.4c-0.1-0.2-0.2-0.4-0.4-0.6c-0.2-0.1-0.5-0.2-0.7,0c-0.1,0.1-0.2,0.2-0.2,0.3
		c-0.1,0.2-0.1,0.3-0.1,0.5c0,0.2,0.1,0.4,0.3,0.6c0.4,0.6,0.8,1.2,1.2,1.8c0,0,0,0.1,0.1,0.1c0,0,0.1,0,0.1-0.1
		c0.5-0.5,0.9-1.1,1.2-1.7c0.2-0.4,0.4-0.8,0.2-1.3c-0.1-0.2-0.3-0.4-0.6-0.4c-0.1,0-0.2,0.1-0.3,0.1C11.5,83,11.3,83.2,11.1,83.4z"
		/>
	<path d="M11.1,86.2C11.1,86.2,11.1,86.2,11.1,86.2C11,86.1,11,86.1,11,86l-1.2-1.8c-0.1-0.2-0.2-0.4-0.3-0.6c0-0.2,0.1-0.4,0.1-0.5
		c0-0.1,0.1-0.3,0.2-0.4c0.2-0.2,0.6-0.1,0.8,0c0.2,0.1,0.3,0.3,0.4,0.5c0.1-0.1,0.2-0.1,0.2-0.2c0.1-0.1,0.3-0.2,0.4-0.3
		c0.1-0.1,0.2-0.1,0.3-0.1c0.3,0,0.5,0.2,0.6,0.5c0.2,0.5,0,0.9-0.3,1.3c-0.3,0.6-0.7,1.2-1.2,1.7C11.3,86.1,11.2,86.2,11.1,86.2z
		 M10.2,82.8c-0.1,0-0.2,0-0.3,0.1c-0.1,0.1-0.1,0.2-0.2,0.3c-0.1,0.1-0.1,0.3-0.1,0.5c0,0.2,0.1,0.4,0.2,0.5l1.2,1.8c0,0,0,0,0,0
		c0,0,0,0,0,0c0.5-0.5,0.8-1.1,1.2-1.6c0.2-0.3,0.4-0.8,0.2-1.2c-0.1-0.2-0.3-0.4-0.5-0.3c-0.1,0-0.2,0.1-0.3,0.1
		c-0.1,0.1-0.3,0.2-0.4,0.3c-0.1,0.1-0.2,0.2-0.3,0.3c0,0,0,0-0.1,0c0,0,0,0-0.1,0c-0.1-0.2-0.2-0.4-0.4-0.6
		C10.5,82.8,10.4,82.8,10.2,82.8z"/>
</g>
<g>
	<path class="st0" d="M10.1,15.4C10,15.2,9.8,15,9.6,14.8c-0.2-0.1-0.5-0.2-0.7,0c-0.1,0.1-0.2,0.2-0.2,0.3
		c-0.1,0.2-0.1,0.3-0.1,0.5c0,0.2,0.1,0.4,0.3,0.6c0.4,0.6,0.8,1.2,1.2,1.8c0,0,0,0.1,0.1,0.1c0,0,0.1,0,0.1-0.1
		c0.5-0.5,0.9-1.1,1.2-1.7c0.2-0.4,0.4-0.8,0.2-1.3c-0.1-0.2-0.3-0.4-0.6-0.4c-0.1,0-0.2,0.1-0.3,0.1C10.5,15,10.3,15.2,10.1,15.4z"
		/>
	<path d="M10.1,18.2C10.1,18.2,10.1,18.2,10.1,18.2C10,18.1,10,18.1,10,18l-1.2-1.8c-0.1-0.2-0.2-0.4-0.3-0.6c0-0.2,0.1-0.4,0.1-0.5
		c0-0.1,0.1-0.3,0.2-0.4c0.2-0.2,0.6-0.1,0.8,0c0.2,0.1,0.3,0.3,0.4,0.5c0.1-0.1,0.2-0.1,0.2-0.2c0.1-0.1,0.3-0.2,0.4-0.3
		c0.1-0.1,0.2-0.1,0.3-0.1c0.3,0,0.5,0.2,0.6,0.5c0.2,0.5,0,0.9-0.3,1.3c-0.3,0.6-0.7,1.2-1.2,1.7C10.3,18.1,10.2,18.2,10.1,18.2z
		 M9.2,14.8c-0.1,0-0.2,0-0.3,0.1c-0.1,0.1-0.1,0.2-0.2,0.3c-0.1,0.1-0.1,0.3-0.1,0.5c0,0.2,0.1,0.4,0.2,0.5l1.2,1.8c0,0,0,0,0,0
		c0,0,0,0,0,0c0.5-0.5,0.8-1.1,1.2-1.6c0.2-0.3,0.4-0.8,0.2-1.2c-0.1-0.2-0.3-0.4-0.5-0.3c-0.1,0-0.2,0.1-0.3,0.1
		c-0.1,0.1-0.3,0.2-0.4,0.3c-0.1,0.1-0.2,0.2-0.3,0.3c0,0,0,0-0.1,0c0,0,0,0-0.1,0c-0.1-0.2-0.2-0.4-0.4-0.6
		C9.5,14.8,9.4,14.8,9.2,14.8z"/>
</g>
<g>
	<g>
		<path class="st0" d="M76.3,68.2c0.2-0.2,0.5-0.3,0.6-0.6c0.1-0.3,0.1-0.6-0.1-0.8c-0.4-0.2-0.7,0.2-1,0.4c-0.6,0.5-1.3,0.7-2,0.7
			c-0.7,0-1.4-0.2-2.1-0.4c-0.3-0.1-0.7-0.2-0.9,0.1c-0.1,0.2-0.1,0.4,0.1,0.6c0.1,0.2,0.3,0.3,0.5,0.4c-0.2,0.1-0.5,0.3-0.6,0.6
			c-0.1,0.2,0,0.6,0.2,0.7c0.2,0.1,0.4,0,0.5-0.1c1.1-0.5,2.4-0.7,3.7-0.4c0.5,0.1,1.1,0.3,1.6,0.1c0.1,0,0.3-0.1,0.4-0.2
			c0.1-0.2,0-0.5-0.1-0.6C76.7,68.5,76.5,68.4,76.3,68.2z"/>
		<path d="M71,69.9c0,0-0.1,0-0.1,0c-0.1,0-0.2-0.1-0.3-0.3c-0.1-0.2-0.1-0.4,0-0.5c0.1-0.2,0.3-0.4,0.5-0.5
			c-0.2-0.1-0.3-0.2-0.4-0.3c-0.1-0.2-0.2-0.5-0.1-0.7c0.2-0.3,0.8-0.2,0.9-0.1c0.7,0.2,1.4,0.4,2.1,0.4c0,0,0,0,0,0
			c0.8,0,1.5-0.2,2-0.6l0.1-0.1c0.3-0.3,0.7-0.6,1.1-0.4c0.3,0.2,0.3,0.6,0.2,0.9c-0.1,0.2-0.4,0.4-0.6,0.5c0.1,0.1,0.2,0.1,0.3,0.2
			c0.1,0.1,0.2,0.1,0.3,0.2c0.2,0.2,0.3,0.5,0.2,0.7c-0.1,0.1-0.2,0.2-0.4,0.3c-0.4,0.1-0.9,0-1.3-0.1c-0.1,0-0.2,0-0.3-0.1
			c-1.2-0.2-2.5-0.1-3.6,0.4l0,0C71.3,69.9,71.2,69.9,71,69.9z M71.1,67.6c-0.2,0-0.3,0-0.3,0.1c-0.1,0.1-0.1,0.4,0.1,0.5
			c0.1,0.2,0.3,0.3,0.5,0.3c0,0,0,0,0,0.1c0,0,0,0.1,0,0.1c-0.2,0.1-0.5,0.3-0.6,0.5c-0.1,0.1-0.1,0.3,0,0.4c0,0.1,0.1,0.1,0.2,0.2
			c0.1,0,0.3,0,0.5-0.1l0,0c1.1-0.5,2.5-0.7,3.7-0.4c0.1,0,0.2,0,0.3,0.1c0.4,0.1,0.9,0.2,1.3,0.1c0.2,0,0.3-0.1,0.3-0.2
			c0.1-0.2,0-0.4-0.1-0.5c-0.1-0.1-0.1-0.1-0.2-0.1c-0.1-0.1-0.3-0.1-0.4-0.3c0,0,0,0,0-0.1c0,0,0,0,0-0.1c0.2-0.1,0.5-0.3,0.6-0.5
			c0.1-0.2,0.1-0.5-0.1-0.6c-0.3-0.2-0.6,0.1-0.9,0.4l-0.1,0.1c-0.5,0.4-1.3,0.7-2.1,0.7c0,0,0,0,0,0c-0.7,0-1.5-0.2-2.2-0.4
			C71.4,67.6,71.2,67.6,71.1,67.6z"/>
	</g>
	<g>
		<path d="M72.4,68.6C72.4,68.6,72.4,68.6,72.4,68.6C72.4,68.6,72.4,68.6,72.4,68.6l2.7-0.3c0,0,0,0,0,0c0,0,0,0,0,0L72.4,68.6
			C72.4,68.6,72.4,68.6,72.4,68.6z"/>
	</g>
</g>
<g>
	<g>
		<path class="st0" d="M79.8,6c-2.2,0-4.4-0.1-6.6-0.1c-0.2,0-0.4,0-0.6,0.1c-0.3,0.1-0.5,0.4-0.5,0.8c0,0.3,0.2,0.6,0.5,0.7
			c0.2,0.1,0.4,0.1,0.5,0.1c2,0,4,0,6,0c0.3,0,0.5,0,0.8-0.1C80.4,7.2,80.6,6.5,79.8,6z"/>
		<path d="M79.2,7.6C79.2,7.6,79.2,7.6,79.2,7.6l-6,0c-0.2,0-0.4,0-0.6-0.1c-0.3-0.1-0.6-0.5-0.6-0.8c0-0.4,0.2-0.7,0.5-0.8
			c0.2-0.1,0.5-0.1,0.7-0.1l6.6,0.1c0,0,0,0,0,0c0.4,0.2,0.6,0.5,0.5,0.9c0,0.3-0.2,0.5-0.4,0.7C79.7,7.6,79.5,7.6,79.2,7.6z
			 M73.1,6C73,6,72.8,6,72.7,6c-0.3,0.1-0.4,0.4-0.4,0.7c0,0.3,0.2,0.6,0.5,0.7c0.2,0.1,0.3,0.1,0.5,0.1l6,0c0.2,0,0.5,0,0.7-0.1
			c0.2-0.1,0.3-0.3,0.3-0.5c0-0.3-0.1-0.5-0.4-0.7L73.3,6C73.2,6,73.2,6,73.1,6z"/>
	</g>
	<g>
		<g>
			<path class="st0" d="M83.6,6.8c-0.1-1.4-0.9-2.2-1.9-2.4c-0.7-0.1-1.4,0.2-1.9,0.7c-0.2,0.2-0.4,0.5-0.5,0.8
				c-0.1,0.4-0.1,0.9,0.1,1.4c0.2,0.6,0.6,1.2,1.2,1.4C82.9,9.4,83.6,7.5,83.6,6.8z"/>
			<path d="M81.5,8.9c-0.3,0-0.6,0-0.9-0.1c-0.6-0.2-1-0.7-1.3-1.4C79,6.9,79,6.4,79.2,6c0.1-0.3,0.3-0.6,0.6-0.9
				c0.6-0.6,1.3-0.9,2-0.8c1.1,0.2,1.9,1.1,2,2.5l0,0c0,0.4-0.2,1.2-0.9,1.7C82.5,8.7,82.1,8.9,81.5,8.9z M81.4,4.5
				c-0.6,0-1.2,0.3-1.6,0.7c-0.3,0.3-0.4,0.5-0.5,0.8c-0.1,0.4-0.1,0.8,0.1,1.3c0.1,0.3,0.5,1.1,1.2,1.3c0.9,0.3,1.6,0.2,2.2-0.3
				c0.6-0.5,0.8-1.2,0.8-1.6l0,0c-0.1-1.2-0.8-2.1-1.8-2.3C81.6,4.5,81.5,4.5,81.4,4.5z"/>
		</g>
		<g>
			<path d="M82.8,6.3C82.8,6.3,82.8,6.3,82.8,6.3c-1-0.2-2-0.3-3-0.1c0,0,0,0,0,0c0,0,0,0,0,0C80.7,6,81.8,6,82.8,6.3
				C82.8,6.2,82.8,6.2,82.8,6.3C82.8,6.3,82.8,6.3,82.8,6.3z"/>
		</g>
		<g>
			<path d="M81.4,7.2c-0.6,0-1.1-0.1-1.7-0.2c0,0,0,0,0,0c0,0,0,0,0,0c1,0.2,2,0.2,3,0.1c0,0,0,0,0,0c0,0,0,0,0,0
				C82.4,7.2,81.9,7.2,81.4,7.2z"/>
		</g>
		<g>
			<path d="M80.3,5.4C80.3,5.4,80.3,5.4,80.3,5.4C80.3,5.4,80.3,5.4,80.3,5.4c0.7-0.3,1.4-0.3,2.1-0.1c0,0,0,0,0,0c0,0,0,0,0,0
				C81.7,5.2,81,5.2,80.3,5.4C80.3,5.4,80.3,5.4,80.3,5.4z"/>
		</g>
		<g>
			<path d="M81.4,8.1c-0.4,0-0.8-0.1-1.2-0.2c0,0,0,0,0,0c0,0,0,0,0,0c0.7,0.3,1.4,0.3,2.1,0.1c0,0,0,0,0,0c0,0,0,0,0,0
				C82,8,81.7,8.1,81.4,8.1z"/>
		</g>
	</g>
	<g>
		<g>
			<path class="st0" d="M69.2,6.6C69.2,8,70.1,8.8,71.1,9c0.7,0.1,1.4-0.2,1.9-0.7c0.2-0.2,0.4-0.5,0.5-0.8C73.7,7,73.6,6.5,73.5,6
				c-0.2-0.6-0.6-1.2-1.2-1.4C69.9,4,69.1,5.9,69.2,6.6z"/>
			<path d="M71.3,9.1c-0.1,0-0.2,0-0.3,0c-1.1-0.2-1.9-1.1-2-2.5l0,0c0-0.4,0.2-1.2,0.9-1.7c0.4-0.3,1.2-0.6,2.3-0.3
				c0.6,0.2,1,0.7,1.3,1.4c0.2,0.5,0.2,1,0.1,1.4c-0.1,0.3-0.3,0.6-0.6,0.9C72.6,8.8,72,9.1,71.3,9.1z M71.3,4.6
				c-0.5,0-0.9,0.1-1.3,0.4c-0.6,0.5-0.8,1.2-0.8,1.6l0,0c0.1,1.2,0.8,2.1,1.8,2.3C71.7,9,72.4,8.7,73,8.2c0.3-0.3,0.4-0.5,0.5-0.8
				c0.1-0.4,0.1-0.8-0.1-1.3c-0.1-0.3-0.5-1.1-1.2-1.3C71.9,4.7,71.6,4.6,71.3,4.6z"/>
		</g>
		<g>
			<path d="M71.7,7.4c-0.6,0-1.2-0.1-1.7-0.2c0,0,0,0,0,0c0,0,0,0,0,0c1,0.2,2,0.3,3,0.1c0,0,0,0,0,0c0,0,0,0,0,0
				C72.6,7.3,72.2,7.4,71.7,7.4z"/>
		</g>
		<g>
			<path d="M73,6.4C73,6.4,73,6.4,73,6.4c-1-0.2-2-0.2-3-0.1c0,0,0,0,0,0c0,0,0,0,0,0C71,6.1,72,6.1,73,6.4C73,6.4,73.1,6.4,73,6.4
				C73.1,6.4,73,6.4,73,6.4z"/>
		</g>
		<g>
			<path d="M71.4,8.2c-0.3,0-0.7-0.1-1-0.2c0,0,0,0,0,0c0,0,0,0,0,0c0.7,0.2,1.4,0.2,2.1,0c0,0,0,0,0,0c0,0,0,0,0,0
				C72.2,8.1,71.8,8.2,71.4,8.2z"/>
		</g>
		<g>
			<path d="M72.6,5.6C72.6,5.6,72.6,5.6,72.6,5.6c-0.7-0.3-1.4-0.3-2.1-0.1c0,0,0,0,0,0c0,0,0,0,0,0C71.2,5.2,71.9,5.3,72.6,5.6
				C72.6,5.5,72.6,5.6,72.6,5.6C72.6,5.6,72.6,5.6,72.6,5.6z"/>
		</g>
	</g>
</g>
<g>
	<g>
		<path d="M83.5,18.6c-0.4,0-0.7,0-1,0l-3.2-0.2c0,0-0.1,0-0.1-0.1s0-0.1,0.1-0.1l3.2,0.2c1,0.1,2.2,0.1,3.1-0.4
			c0.5-0.3,1-0.8,1.1-1.4c0.1-0.4,0.1-0.8-0.1-1.2c-0.1-0.2-0.3-0.4-0.5-0.6c-0.1-0.1-0.1-0.1-0.2-0.2c-1-1.1-1.5-2.9-0.5-4.2
			c0.4-0.6,1.1-1,1.8-1.3c0.8-0.4,1.6-0.9,1.9-1.7c0,0,0.1-0.1,0.1,0c0,0,0.1,0.1,0,0.1c-0.3,0.9-1.2,1.3-2,1.8
			c-0.6,0.3-1.3,0.7-1.7,1.3c-0.9,1.2-0.4,3,0.5,4c0.1,0.1,0.1,0.1,0.2,0.2c0.2,0.2,0.4,0.4,0.5,0.6c0.2,0.4,0.3,0.8,0.1,1.3
			c-0.2,0.6-0.7,1.2-1.2,1.5C85,18.5,84.3,18.6,83.5,18.6z"/>
	</g>
	<g>
		<path class="st0" d="M70.9,19.6c-0.4,0-0.8-0.1-1-0.4c-0.3-0.3-0.2-0.9,0-1.3c0.4-0.8,1-1.4,1.8-1.9c1.5-1,3.2-1.5,5-1.2
			c1.1,0.2,2.3,0.8,2.8,1.8c0.5,1,0.2,2.5-0.9,3c-0.4,0.1-0.8,0.2-1.1,0.2C76.5,19.8,72.3,19.7,70.9,19.6z"/>
		<path d="M77,19.9c-1.3,0-4.9-0.1-6.2-0.2c-0.4,0-0.8-0.1-1.1-0.4c-0.3-0.3-0.3-0.8,0-1.4c0.3-0.7,0.9-1.3,1.8-1.9
			c1.6-1.1,3.4-1.5,5-1.2c1.3,0.2,2.4,0.9,2.9,1.8c0.3,0.6,0.3,1.3,0.1,2c-0.2,0.5-0.6,0.9-1,1.1c-0.4,0.2-0.8,0.2-1.2,0.2
			C77.3,19.9,77.2,19.9,77,19.9z M75.7,14.9c-1.3,0-2.7,0.4-4,1.3c-0.9,0.6-1.4,1.2-1.7,1.8c-0.1,0.2-0.3,0.8,0,1.2
			c0.2,0.3,0.6,0.3,0.9,0.3l0,0c1.4,0.1,5.6,0.3,6.5,0.2c0.4,0,0.8,0,1.1-0.2c0.4-0.2,0.8-0.5,0.9-1c0.2-0.6,0.2-1.3-0.1-1.8
			c-0.5-0.9-1.5-1.6-2.8-1.8C76.3,14.9,76,14.9,75.7,14.9z"/>
	</g>
	<g>
		<path d="M73.8,17.2C73.8,17.2,73.8,17.2,73.8,17.2c-0.1-0.1-0.1-0.1,0-0.2c0.2-0.1,0.4-0.3,0.4-0.6c0-0.1,0-0.1,0-0.2
			c0-0.1-0.1-0.2-0.2-0.2c-0.1,0-0.2,0-0.4,0.1c-0.2,0.1-0.5,0.3-0.6,0.5c0,0-0.1,0.1-0.1,0c0,0-0.1-0.1,0-0.1
			c0.2-0.3,0.4-0.5,0.7-0.6c0.2-0.1,0.3-0.1,0.5-0.1c0.2,0,0.3,0.2,0.4,0.3c0,0.1,0,0.2,0,0.2C74.3,16.8,74.1,17.1,73.8,17.2
			C73.9,17.2,73.8,17.2,73.8,17.2z"/>
	</g>
	<g>
		<path d="M72,17.4c-0.1,0-0.2,0.2-0.2,0.3c0,0.1,0,0.1,0,0.2c0,0,0.1,0.1,0.1,0.1c0.1,0,0.1-0.1,0.2-0.2c0-0.1,0-0.1,0-0.2
			C72.1,17.5,72,17.4,72,17.4z"/>
	</g>
	<g>
		<path d="M70.1,18.9C70.1,18.9,70,18.9,70.1,18.9c-0.2,0-0.3-0.1-0.4-0.2c0,0,0-0.1,0-0.1c0,0,0.1,0,0.1,0c0.1,0.1,0.2,0.1,0.3,0.1
			c0.1,0,0.2,0,0.2-0.1c0,0,0.1,0,0.1,0c0,0,0,0.1,0,0.1C70.3,18.8,70.2,18.9,70.1,18.9z"/>
	</g>
	<g>
		<path d="M76.6,19.3C76.6,19.3,76.6,19.3,76.6,19.3C76.6,19.3,76.6,19.3,76.6,19.3c0.4-0.1,0.7-0.1,1.1-0.1c0.4-0.1,0.7-0.2,1-0.4
			c0,0,0,0,0,0c0,0,0,0,0,0c-0.3,0.2-0.6,0.3-1,0.4C77.3,19.3,76.9,19.3,76.6,19.3L76.6,19.3z"/>
	</g>
</g>
</svg>
