<svg width="512" height="512" viewBox="0 0 512 512" xmlns="http://www.w3.org/2000/svg">
  <!-- Background circle -->
  <circle cx="256" cy="256" r="240" fill="#2f6df6" stroke="#1e40af" stroke-width="8"/>
  
  <!-- Pet silhouette (cat/dog) -->
  <g transform="translate(256, 256)">
    <!-- Head -->
    <ellipse cx="0" cy="-40" rx="80" ry="70" fill="#ffffff"/>
    
    <!-- Ears -->
    <path d="M -50 -80 L -30 -120 L -10 -90 Z" fill="#ffffff"/>
    <path d="M 50 -80 L 30 -120 L 10 -90 Z" fill="#ffffff"/>
    
    <!-- Eyes -->
    <circle cx="-25" cy="-50" r="12" fill="#2f6df6"/>
    <circle cx="25" cy="-50" r="12" fill="#2f6df6"/>
    <circle cx="-25" cy="-50" r="6" fill="#ffffff"/>
    <circle cx="25" cy="-50" r="6" fill="#ffffff"/>
    
    <!-- Nose -->
    <path d="M -8 -30 L 0 -20 L 8 -30 Z" fill="#fbbf24"/>
    
    <!-- Mouth -->
    <path d="M 0 -20 Q -15 -10 -20 0" stroke="#2f6df6" stroke-width="3" fill="none" stroke-linecap="round"/>
    <path d="M 0 -20 Q 15 -10 20 0" stroke="#2f6df6" stroke-width="3" fill="none" stroke-linecap="round"/>
    
    <!-- Body -->
    <ellipse cx="0" cy="60" rx="90" ry="100" fill="#ffffff"/>
    
    <!-- Paws -->
    <ellipse cx="-50" cy="120" rx="25" ry="30" fill="#ffffff"/>
    <ellipse cx="50" cy="120" rx="25" ry="30" fill="#ffffff"/>
    
    <!-- Crown/ribbon (beauty contest element) -->
    <path d="M -60 -100 L -40 -130 L -20 -100 L 0 -120 L 20 -100 L 40 -130 L 60 -100 L 50 -90 L -50 -90 Z" fill="#fbbf24"/>
    <circle cx="-40" cy="-115" r="4" fill="#ffffff"/>
    <circle cx="0" cy="-120" r="4" fill="#ffffff"/>
    <circle cx="40" cy="-115" r="4" fill="#ffffff"/>
  </g>
  
  <!-- Decorative stars -->
  <g fill="#fbbf24" opacity="0.8">
    <path d="M 100 100 L 105 115 L 120 115 L 108 125 L 113 140 L 100 130 L 87 140 L 92 125 L 80 115 L 95 115 Z"/>
    <path d="M 412 100 L 417 115 L 432 115 L 420 125 L 425 140 L 412 130 L 399 140 L 404 125 L 392 115 L 407 115 Z"/>
    <path d="M 100 412 L 105 427 L 120 427 L 108 437 L 113 452 L 100 442 L 87 452 L 92 437 L 80 427 L 95 427 Z"/>
  </g>
</svg>
